<?xml version="1.0" encoding="UTF-8"?>
<svg version="1.1" xmlns="http://www.w3.org/2000/svg" width="136" height="136">
<path d="M0 0 C7.92 0 15.84 0 24 0 C27.33011281 7.88008468 30.48147297 15.78891551 33.42578125 23.8203125 C33.81823532 24.88619598 34.21068939 25.95207947 34.61503601 27.05026245 C35.43386464 29.27652079 36.25138388 31.50326114 37.06762695 33.73046875 C38.3226421 37.15265557 39.58394763 40.57248091 40.84570312 43.9921875 C41.64360611 46.16392405 42.44114562 48.33579418 43.23828125 50.5078125 C43.61632401 51.53166046 43.99436676 52.55550842 44.38386536 53.61038208 C44.72810043 54.55251556 45.07233551 55.49464905 45.42700195 56.46533203 C45.731689 57.29517609 46.03637604 58.12502014 46.35029602 58.98001099 C47 61 47 61 47 63 C39.74 63 32.48 63 25 63 C24.34 60.03 23.68 57.06 23 54 C16.07 54 9.14 54 2 54 C1.01 56.97 0.02 59.94 -1 63 C-7.93 63 -14.86 63 -22 63 C-20.87501936 56.25011615 -20.87501936 56.25011615 -19.71240234 53.13208008 C-19.45478119 52.43307083 -19.19716003 51.73406158 -18.93173218 51.01387024 C-18.65261993 50.27323837 -18.37350769 49.53260651 -18.0859375 48.76953125 C-17.79320953 47.97963303 -17.50048157 47.1897348 -17.19888306 46.37590027 C-16.26260732 43.85286706 -15.31899874 41.33265245 -14.375 38.8125 C-13.76382436 37.17010731 -13.15314324 35.52753052 -12.54296875 33.88476562 C-11.32236986 30.60018063 -10.09909559 27.3166104 -8.87402344 24.03369141 C-5.89091813 16.03172096 -2.94825642 8.01486162 0 0 Z M12 23 C10.35 27.95 8.7 32.9 7 38 C10.3 38 13.6 38 17 38 C16.54705135 36.24859857 16.08741252 34.49892656 15.625 32.75 C15.36976562 31.77546875 15.11453125 30.8009375 14.8515625 29.796875 C14.00081692 26.72279197 14.00081692 26.72279197 12 23 Z " fill="#031B4E" transform="translate(58,32)"/>
</svg>
