<?xml version="1.0" encoding="UTF-8"?>
<svg version="1.1" xmlns="http://www.w3.org/2000/svg" width="60" height="60">
<path d="M0 0 C6.6 0 13.2 0 20 0 C24.09584232 9.57001781 27.7697571 19.26148267 31.35864258 29.03076172 C32.32398335 31.65623165 33.29557843 34.2793328 34.26757812 36.90234375 C34.88318624 38.57277898 35.49843431 40.24334695 36.11328125 41.9140625 C36.54910271 43.08891708 36.54910271 43.08891708 36.99372864 44.2875061 C39 49.77047566 39 49.77047566 39 52 C33.06 52 27.12 52 21 52 C19 48 19 48 19 45 C10.585 45.495 10.585 45.495 2 46 C1.34 47.98 0.68 49.96 0 52 C-5.94 52 -11.88 52 -18 52 C-16.8749952 45.24997121 -16.8749952 45.24997121 -15.64892578 41.95751953 C-15.37839386 41.22300568 -15.10786194 40.48849182 -14.82913208 39.73171997 C-14.53747162 38.95658051 -14.24581116 38.18144104 -13.9453125 37.3828125 C-13.64309784 36.56682587 -13.34088318 35.75083923 -13.0295105 34.91012573 C-12.06635061 32.31318956 -11.0957946 29.71909049 -10.125 27.125 C-9.47998009 25.38950445 -8.83544409 23.65382898 -8.19140625 21.91796875 C-5.47600887 14.60630334 -2.73862544 7.30300118 0 0 Z M10 20 C9.51801537 21.24891614 9.03954323 22.49918808 8.5625 23.75 C8.29566406 24.44609375 8.02882813 25.1421875 7.75390625 25.859375 C7.03853307 27.89059003 6.48634348 29.9035291 6 32 C8.64 32 11.28 32 14 32 C13.71640113 30.5608866 13.42278601 29.12374482 13.125 27.6875 C12.88136719 26.48673828 12.88136719 26.48673828 12.6328125 25.26171875 C12.05521001 22.74698882 12.05521001 22.74698882 10 20 Z " fill="#30266D" transform="translate(19,4)"/>
</svg>
