<?xml version="1.0" encoding="UTF-8"?>
<svg version="1.1" xmlns="http://www.w3.org/2000/svg" width="1667" height="500">
<path d="M0 0 C5.11791155 3.75558977 9.65253509 8.31474013 13.171875 13.59375 C13.84992188 12.86929688 14.52796875 12.14484375 15.2265625 11.3984375 C25.42595893 0.70930742 35.7522554 -6.17949447 51.046875 -6.78125 C64.21975995 -6.27297148 76.37635575 -2.45536054 85.51171875 7.37109375 C96.63074551 22.2575084 97.630589 38.854927 97.46484375 56.6796875 C97.45923377 58.47571454 97.45497032 60.27174623 97.45198059 62.06777954 C97.44064199 66.74651236 97.41127232 71.42495632 97.37786865 76.10357666 C97.34146775 81.74307284 97.32795419 87.38266676 97.31050873 93.02224731 C97.28162608 101.54628113 97.22406316 110.06968382 97.171875 118.59375 C81.991875 118.59375 66.811875 118.59375 51.171875 118.59375 C51.13449219 113.53804688 51.09710937 108.48234375 51.05859375 103.2734375 C51.02830742 100.06507047 50.99715533 96.85675848 50.96289062 93.6484375 C50.90862088 88.55927338 50.85750881 83.47021812 50.82543945 78.38085938 C50.79937495 74.27635348 50.75895061 70.17221434 50.70868874 66.06793594 C50.69204123 64.50435076 50.68051378 62.94070217 50.67426109 61.37704086 C50.66459662 59.18179897 50.63651144 56.98749088 50.60424805 54.79248047 C50.59314499 53.54449677 50.58204193 52.29651306 50.57060242 51.01071167 C50.0303872 46.38124651 48.65167434 42.93481815 45.171875 39.78125 C40.6740972 37.11069443 36.24992605 37.1163264 31.171875 37.59375 C27.45319297 38.90217516 25.70883859 39.87162655 23.359375 43.03125 C21.2647115 47.55131333 21.03018341 51.40046311 20.96655273 56.38183594 C20.95665314 57.05541641 20.94675354 57.72899689 20.93655396 58.42298889 C20.90505842 60.64133229 20.88022903 62.85969707 20.85546875 65.078125 C20.83488889 66.61941066 20.81389215 68.1606908 20.79249573 69.70196533 C20.7373816 73.75266038 20.68792546 77.80340547 20.63964844 81.85418701 C20.58050828 86.71763057 20.51433911 91.58098297 20.44934845 96.4443512 C20.35147307 103.82742831 20.26252539 111.21056471 20.171875 118.59375 C5.321875 118.59375 -9.528125 118.59375 -24.828125 118.59375 C-24.87710937 113.9221875 -24.92609375 109.250625 -24.9765625 104.4375 C-25.01197599 101.46612506 -25.04795143 98.49477796 -25.0859375 95.5234375 C-25.14608841 90.81416959 -25.20423328 86.10494035 -25.25 81.39550781 C-25.28705672 77.59579798 -25.33346992 73.79630405 -25.38618851 69.9967804 C-25.40462476 68.55206617 -25.41977183 67.10730586 -25.43146896 65.66252136 C-25.27381574 53.16717766 -25.27381574 53.16717766 -29.640625 41.71875 C-33.22490192 38.23688099 -35.80428516 37.67500713 -40.765625 37.28125 C-44.76253323 37.40921128 -47.47578211 38.30806167 -50.828125 40.59375 C-54.44897781 45.10175051 -55.33372744 48.14209708 -55.37402344 53.88427734 C-55.38436111 54.58741058 -55.39469879 55.29054382 -55.40534973 56.01498413 C-55.43465474 58.32012243 -55.43627419 60.62437801 -55.4375 62.9296875 C-55.45249008 64.53538678 -55.46921897 66.14107069 -55.48760986 67.74673462 C-55.53120312 71.95856454 -55.55126449 76.1701865 -55.56634521 80.38220215 C-55.58939568 85.44351124 -55.64181608 90.50459194 -55.68928528 95.5657196 C-55.75800628 103.24178921 -55.78953 110.91720362 -55.828125 118.59375 C-71.008125 118.59375 -86.188125 118.59375 -101.828125 118.59375 C-101.828125 77.67375 -101.828125 36.75375 -101.828125 -5.40625 C-86.648125 -5.40625 -71.468125 -5.40625 -55.828125 -5.40625 C-55.333125 1.02875 -55.333125 1.02875 -54.828125 7.59375 C-53.8690625 6.541875 -53.8690625 6.541875 -52.890625 5.46875 C-38.55036329 -8.63117213 -17.1736121 -10.2790963 0 0 Z " fill="#30266D" transform="translate(1278.828125,99.40625)"/>
<path d="M0 0 C1.40897804 0.00333092 1.40897804 0.00333092 2.84642029 0.00672913 C3.90744461 0.00680466 4.96846893 0.00688019 6.06164551 0.00695801 C7.79286903 0.01469994 7.79286903 0.01469994 9.55906677 0.02259827 C10.73404221 0.02401321 11.90901764 0.02542816 13.11959839 0.02688599 C16.88981116 0.0325046 20.65996556 0.04506026 24.43016052 0.05775452 C26.97898779 0.06276712 29.52781599 0.06733044 32.0766449 0.07142639 C38.34033685 0.08248007 44.60399452 0.0992363 50.86766052 0.12025452 C58.5541068 21.94053491 66.14932832 43.78588251 73.43016052 65.74525452 C78.32819742 80.51625319 83.27120074 95.26996147 88.30516052 109.99525452 C88.74328568 111.27789185 88.74328568 111.27789185 89.19026184 112.58644104 C91.93846441 120.62859631 94.69909662 128.66578052 97.52000427 136.68275452 C98.09440247 138.31688293 98.09440247 138.31688293 98.68040466 139.98402405 C99.36113724 141.91373115 100.04613517 143.84194206 100.73655701 145.76820374 C101.02474304 146.58305237 101.31292908 147.397901 101.60984802 148.23744202 C101.85589783 148.9243512 102.10194763 149.61126038 102.35545349 150.31898499 C102.86766052 152.12025452 102.86766052 152.12025452 102.86766052 155.12025452 C87.02766052 155.12025452 71.18766052 155.12025452 54.86766052 155.12025452 C52.88207551 150.48722282 51.15332322 146.20218931 49.68016052 141.43275452 C49.33598083 140.33576233 48.99180115 139.23877014 48.63719177 138.10853577 C47.86766052 135.12025452 47.86766052 135.12025452 47.86766052 131.12025452 C24.60266052 131.61525452 24.60266052 131.61525452 0.86766052 132.12025452 C-2.59733948 143.50525452 -2.59733948 143.50525452 -6.13233948 155.12025452 C-21.97233948 155.12025452 -37.81233948 155.12025452 -54.13233948 155.12025452 C-53.38203033 149.86809051 -52.53794138 145.8600544 -50.87013245 140.93959045 C-50.64019624 140.25578119 -50.41026003 139.57197193 -50.17335606 138.86744118 C-49.41295599 136.61113622 -48.64384538 134.35790767 -47.87452698 132.10462952 C-47.33319116 130.50491055 -46.79235376 128.90502285 -46.25198364 127.30497742 C-44.80920781 123.03838889 -43.35859947 118.77450303 -41.90621567 114.51117706 C-40.70623944 110.98561446 -39.51089573 107.45848859 -38.3154974 103.93137169 C-31.24885814 83.0837248 -24.11774246 62.25966862 -16.81105042 41.49476624 C-12.96905161 30.57240719 -9.2428222 19.61828114 -5.65357971 8.61000061 C-5.32946106 7.62080627 -5.00534241 6.63161194 -4.67140198 5.61244202 C-4.3950592 4.76021057 -4.11871643 3.90797913 -3.83399963 3.02992249 C-2.7782993 0.15668379 -2.7782993 0.15668379 0 0 Z M23.86766052 55.12025452 C21.17264568 61.975535 18.96972317 68.96971895 16.79612732 76.00404358 C16.17474741 78.01275327 15.54777706 80.01966246 14.9203949 82.02650452 C14.52357599 83.30504657 14.12707965 84.58368879 13.73094177 85.86244202 C13.37298523 87.01599182 13.01502869 88.16954163 12.64622498 89.35804749 C11.7772297 91.96278108 11.7772297 91.96278108 11.86766052 94.12025452 C19.78766052 94.12025452 27.70766052 94.12025452 35.86766052 94.12025452 C32.73068945 80.94497602 28.89824706 68.04803797 24.86766052 55.12025452 C24.53766052 55.12025452 24.20766052 55.12025452 23.86766052 55.12025452 Z " fill="#30266D" transform="translate(86.13233947753906,62.87974548339844)"/>
<path d="M0 0 C15.18 0 30.36 0 46 0 C46.33 17.49 46.66 34.98 47 53 C48.98 50.69 50.96 48.38 53 46 C61.28043597 39.34263952 71.87131934 36.31235844 82.4375 36.71875 C93.95776206 37.98316901 103.65452858 41.70739964 111.3125 50.625 C121.93937379 64.92297564 122.29571861 80.32785292 122.1953125 97.3515625 C122.19157649 99.22056933 122.1887323 101.08957814 122.18673706 102.95858765 C122.17914687 107.84773282 122.15953863 112.73675679 122.1373291 117.62585449 C122.11314804 123.50807694 122.1040677 129.39034021 122.09242249 135.27259827 C122.07311108 144.18181615 122.03475643 153.09076874 122 162 C107.15 162 92.3 162 77 162 C76.95101562 157.34003906 76.90203125 152.68007812 76.8515625 147.87890625 C76.81614237 144.91208876 76.78016316 141.94529883 76.7421875 138.97851562 C76.68207379 134.27811809 76.623938 129.57775877 76.578125 124.87719727 C76.54102486 121.08396746 76.49460096 117.29095214 76.44193649 113.49790764 C76.42352297 112.05681083 76.40836786 110.61566827 76.39665604 109.17450142 C76.52332178 94.13743088 76.52332178 94.13743088 70 81 C65.56732543 78.24378569 61.0632666 78.36009269 56 79 C50.9385546 81.39268328 49.1027771 83.90337289 47 89 C46.5328166 92.55106276 46.5328166 92.55106276 46.56762695 96.38232422 C46.5574353 97.09521103 46.54724365 97.80809784 46.53674316 98.54258728 C46.50674301 100.88003531 46.49736751 103.21707268 46.48828125 105.5546875 C46.47142487 107.18280383 46.45327333 108.81090723 46.43388367 110.43899536 C46.38648148 114.7099605 46.35660906 118.98087316 46.33044434 123.25201416 C46.29533392 128.38422584 46.23834911 133.51623608 46.18505096 138.64828491 C46.1066517 146.43216404 46.05595992 154.21578155 46 162 C30.82 162 15.64 162 0 162 C0 108.54 0 55.08 0 0 Z " fill="#30266D" transform="translate(907,56)"/>
<path d="M0 0 C15.18 0 30.36 0 46 0 C46.33 17.49 46.66 34.98 47 53 C48.98 50.69 50.96 48.38 53 46 C61.28043597 39.34263952 71.87131934 36.31235844 82.4375 36.71875 C93.95776206 37.98316901 103.65452858 41.70739964 111.3125 50.625 C121.93937379 64.92297564 122.29571861 80.32785292 122.1953125 97.3515625 C122.19157649 99.22056933 122.1887323 101.08957814 122.18673706 102.95858765 C122.17914687 107.84773282 122.15953863 112.73675679 122.1373291 117.62585449 C122.11314804 123.50807694 122.1040677 129.39034021 122.09242249 135.27259827 C122.07311108 144.18181615 122.03475643 153.09076874 122 162 C107.15 162 92.3 162 77 162 C76.95101562 157.34003906 76.90203125 152.68007812 76.8515625 147.87890625 C76.81614237 144.91208876 76.78016316 141.94529883 76.7421875 138.97851562 C76.68207379 134.27811809 76.623938 129.57775877 76.578125 124.87719727 C76.54102486 121.08396746 76.49460096 117.29095214 76.44193649 113.49790764 C76.42352297 112.05681083 76.40836786 110.61566827 76.39665604 109.17450142 C76.52332178 94.13743088 76.52332178 94.13743088 70 81 C65.56732543 78.24378569 61.0632666 78.36009269 56 79 C50.9385546 81.39268328 49.1027771 83.90337289 47 89 C46.5328166 92.55106276 46.5328166 92.55106276 46.56762695 96.38232422 C46.5574353 97.09521103 46.54724365 97.80809784 46.53674316 98.54258728 C46.50674301 100.88003531 46.49736751 103.21707268 46.48828125 105.5546875 C46.47142487 107.18280383 46.45327333 108.81090723 46.43388367 110.43899536 C46.38648148 114.7099605 46.35660906 118.98087316 46.33044434 123.25201416 C46.29533392 128.38422584 46.23834911 133.51623608 46.18505096 138.64828491 C46.1066517 146.43216404 46.05595992 154.21578155 46 162 C30.82 162 15.64 162 0 162 C0 108.54 0 55.08 0 0 Z " fill="#30266D" transform="translate(335,56)"/>
<path d="M0 0 C15.18 0 30.36 0 46 0 C46.33 26.07 46.66 52.14 47 79 C56.03932628 64.82618877 56.03932628 64.82618877 63.63827515 50.57388306 C66.65161818 44.81852326 69.58258437 39.32186742 75.88415527 36.88439941 C84.03824185 35.28675084 92.15000864 35.98785278 100.375 36.625 C102.86414895 36.73552081 105.35377133 36.83587262 107.84375 36.92578125 C113.90627057 37.1666785 119.95090927 37.53307122 126 38 C124.74810793 41.21155089 123.48939172 44.00094798 121.5234375 46.8359375 C120.77670776 47.92032104 120.77670776 47.92032104 120.01489258 49.02661133 C119.20314575 50.18906372 119.20314575 50.18906372 118.375 51.375 C117.80740967 52.19572998 117.23981934 53.01645996 116.6550293 53.86206055 C114.77472381 56.57800092 112.88727344 59.28889804 111 62 C109.64415211 63.9567686 108.28868984 65.91380444 106.93359375 67.87109375 C105.55993135 69.85158713 104.1862335 71.83205593 102.8125 73.8125 C102.13960938 74.78541992 101.46671875 75.75833984 100.7734375 76.76074219 C97.8129408 81.02623278 94.8357397 85.26211629 91.69140625 89.39453125 C91.20889404 90.03608154 90.72638184 90.67763184 90.22924805 91.33862305 C88.9775654 92.98970687 87.70453154 94.62454586 86.4296875 96.2578125 C84.65570079 98.88025116 84.65570079 98.88025116 85.73339844 101.41845703 C86.93070736 103.85877017 88.20089032 105.88192701 89.8359375 108.046875 C90.39933838 108.8004126 90.96273926 109.5539502 91.54321289 110.33032227 C92.44994751 111.52806274 92.44994751 111.52806274 93.375 112.75 C94.65375046 114.46118927 95.93106892 116.17344948 97.20703125 117.88671875 C97.84721191 118.74571777 98.48739258 119.6047168 99.14697266 120.48974609 C102.34052943 124.81598467 105.42322029 129.21833279 108.50463867 133.62475586 C111.164307 137.42052393 113.85764671 141.18641115 116.6015625 144.921875 C117.19960693 145.73841553 117.79765137 146.55495605 118.41381836 147.39624023 C119.57088897 148.97250009 120.73294138 150.54511865 121.90063477 152.11352539 C122.42197998 152.82500732 122.9433252 153.53648926 123.48046875 154.26953125 C123.94348389 154.89448486 124.40649902 155.51943848 124.88354492 156.16333008 C126.068302 158.11236298 126.49591483 159.79112541 127 162 C119.45729802 162.33053805 111.91646844 162.55761739 104.36816406 162.71411133 C101.80300127 162.77935752 99.23831966 162.86798237 96.67480469 162.98071289 C76.1218964 163.86166571 76.1218964 163.86166571 71.1546936 160.89959717 C67.81943885 157.58191999 66.52610215 153.34222593 65 149 C63.72543848 146.71422553 62.4058524 144.45298816 61.04296875 142.21875 C59.75585491 139.98029114 58.47069571 137.74070723 57.1875 135.5 C55.88968627 133.2393747 54.59152272 130.97895017 53.29296875 128.71875 C52.45028442 127.24825195 52.45028442 127.24825195 51.59057617 125.74804688 C50.08676976 123.14991258 48.54449325 120.57415542 47 118 C46.67 132.52 46.34 147.04 46 162 C30.82 162 15.64 162 0 162 C0 108.54 0 55.08 0 0 Z " fill="#30266D" transform="translate(199,56)"/>
<path d="M0 0 C3.55657249 2.79616863 6.82639254 5.77820327 10 9 C10.33 5.04 10.66 1.08 11 -3 C26.18 -3 41.36 -3 57 -3 C57 37.92 57 78.84 57 121 C41.82 121 26.64 121 11 121 C10.67 116.71 10.34 112.42 10 108 C9.2575 109.03125 8.515 110.0625 7.75 111.125 C2.67841128 117.08018294 -5.27972816 120.9343183 -13 122 C-27.14787004 122.89827746 -38.15346939 120.31963832 -49.1953125 111.18359375 C-59.9721793 101.04186549 -66.32454075 85.7064075 -67.17700195 70.93237305 C-67.57826695 48.5334732 -67.64058259 25.12082172 -51.0078125 7.7421875 C-37.51518714 -3.96542128 -16.38011359 -9.82806815 0 0 Z M-16 43 C-20.93529672 49.46538872 -21.62841392 56.12704072 -21 64 C-19.87578121 69.8583144 -17.31761625 73.16981324 -12.71875 76.87109375 C-8.91199517 79.37143954 -5.42587179 79.43533165 -1 79 C3.45933605 77.21959344 6.98497144 74.69496741 9.5 70.5625 C12.24400001 64.10674998 12.19092381 56.13957475 10.26953125 49.4609375 C8.02465163 44.5680162 4.84952331 41.42476166 0 39 C-6.13761003 38.23748633 -11.27133675 38.78719092 -16 43 Z " fill="#30266D" transform="translate(1455,97)"/>
<path d="M0 0 C15.18 0 30.36 0 46 0 C46.05607422 7.69183594 46.05607422 7.69183594 46.11328125 15.5390625 C46.14356713 18.79300199 46.17471895 22.04688718 46.20898438 25.30078125 C46.2632567 30.46237416 46.31436869 35.62385968 46.34643555 40.78564453 C46.37249769 44.94850242 46.4129204 49.11099854 46.46318626 53.27363205 C46.47983536 54.85954657 46.49136182 56.44552363 46.49761391 58.03151321 C46.50727662 60.25788294 46.53535988 62.48333126 46.56762695 64.70947266 C46.58428154 66.60809555 46.58428154 66.60809555 46.60127258 68.54507446 C47.16427579 73.42343013 48.82019878 76.71609867 52.125 80.3125 C56.06038283 82.62239862 59.46112209 83.17906379 64 83 C68.39903162 81.84615564 70.9712477 80.57532624 73.375 76.75 C76.2741081 71.45597651 76.126173 65.037695 76.20532227 59.14672852 C76.21522186 58.50197067 76.22512146 57.85721283 76.23532104 57.19291687 C76.26659289 55.0882824 76.29155569 52.98362546 76.31640625 50.87890625 C76.33700553 49.40916906 76.35800273 47.9394374 76.37937927 46.4697113 C76.4342931 42.62127184 76.48383629 38.77278166 76.53222656 34.92425537 C76.5915522 30.29601812 76.65760952 25.66787255 76.72252655 21.039711 C76.82014933 14.0265305 76.90926932 7.0132883 77 0 C91.85 0 106.7 0 122 0 C122 40.92 122 81.84 122 124 C107.15 124 92.3 124 77 124 C76.67 118.72 76.34 113.44 76 108 C73.525 110.97 73.525 110.97 71 114 C68.640625 116.01171875 68.640625 116.01171875 66.25 117.6875 C65.08210937 118.52861328 65.08210937 118.52861328 63.890625 119.38671875 C56.8391861 123.32218397 50.13816757 124.53722011 42.125 124.4375 C41.24730957 124.42775146 40.36961914 124.41800293 39.46533203 124.40795898 C28.41120782 124.10607353 21.20977778 121.19475172 13.22265625 113.41015625 C3.54390425 102.91491902 -0.17963738 89.83440013 -0.11352539 75.72143555 C-0.11367142 74.90140549 -0.11381744 74.08137543 -0.1139679 73.23649597 C-0.1132734 70.53654296 -0.1055027 67.83665965 -0.09765625 65.13671875 C-0.09579043 63.26056455 -0.0943673 61.38440987 -0.09336853 59.508255 C-0.0895563 54.577979 -0.07973707 49.6477326 -0.06866455 44.71746826 C-0.05662084 38.79780438 -0.05204203 32.87813058 -0.04621124 26.95845795 C-0.03652463 17.97228473 -0.017359 8.98617643 0 0 Z " fill="#30266D" transform="translate(606,94)"/>
<path d="M0 0 C0.96421875 -0.01611328 1.9284375 -0.03222656 2.921875 -0.04882812 C18.46261057 -0.05924417 33.29567768 6.10249896 44.4453125 16.94140625 C58.73199426 32.48265325 61.65389153 51.24857804 60.81591797 71.61376953 C59.73881305 86.83923979 53.17514957 102.12668849 41.625 112.3125 C33.21016236 118.72232077 25.02698765 122.90873944 14.625 125.3125 C13.85929687 125.50199219 13.09359375 125.69148438 12.3046875 125.88671875 C-4.30051274 128.52515436 -22.41248617 126.01709552 -36.375 116.3125 C-49.43399486 106.27749068 -57.90990269 92.69560762 -60.375 76.3125 C-60.67045773 72.03769496 -60.6999312 67.78379167 -60.6875 63.5 C-60.71166992 61.85161133 -60.71166992 61.85161133 -60.73632812 60.16992188 C-60.74609682 43.59244093 -55.326301 28.46866545 -43.68359375 16.4921875 C-31.04917066 4.56323981 -17.18522089 -0.05698018 0 0 Z M-8.375 45.3125 C-14.25992324 52.38341542 -15.01824043 59.3556804 -14.375 68.3125 C-13.36510593 74.26068343 -11.27222825 78.58756298 -6.40234375 82.2734375 C-2.71027906 84.16570958 0.62575019 84.28135287 4.625 83.3125 C9.25069361 80.40002625 11.84340372 77.4697524 13.625 72.3125 C14.96113976 64.51835143 15.73835472 56.20759387 11.328125 49.2734375 C8.54792181 45.79101804 6.07462978 43.39484238 1.625 42.3125 C-2.22925902 42.3125 -5.18965001 43.19591876 -8.375 45.3125 Z " fill="#30266D" transform="translate(1102.375,92.6875)"/>
<path d="M0 0 C39.93 0 79.86 0 121 0 C121 12.87 121 25.74 121 39 C108.46 39 95.92 39 83 39 C83 77.28 83 115.56 83 155 C67.82 155 52.64 155 37 155 C37 116.72 37 78.44 37 39 C24.79 39 12.58 39 0 39 C0 26.13 0 13.26 0 0 Z " fill="#30266D" transform="translate(774,63)"/>
<path d="M0 0 C1.06371826 0.00563965 2.12743652 0.0112793 3.22338867 0.01708984 C17.88389917 0.2442451 30.39536347 4.10637736 41.34375 14.26953125 C49.17075342 22.94224903 53.83609604 32.86040385 55.1875 44.3125 C49.11864683 44.43598196 43.05052258 44.52678371 36.98071289 44.5871582 C34.91547919 44.6123222 32.85033471 44.64645684 30.78540039 44.68969727 C27.81894953 44.75026616 24.85367448 44.77869036 21.88671875 44.80078125 C20.9616301 44.82658768 20.03654144 44.8523941 19.0834198 44.87898254 C16.68094714 44.88003673 14.53059604 44.84358405 12.1875 44.3125 C10.04653492 41.86727815 9.1875 40.56103643 9.1875 37.3125 C4.68396738 35.55502386 1.01110189 35.11955592 -3.8125 35.3125 C-4.4725 36.9625 -5.1325 38.6125 -5.8125 40.3125 C-3.33618217 43.26407074 -1.03641212 44.11145431 2.625 45.1875 C3.78 45.52910156 4.935 45.87070313 6.125 46.22265625 C9.06758221 47.03717362 12.02410297 47.75132352 15 48.43359375 C28.86362442 51.63002191 43.2946667 55.19405463 52.1875 67.3125 C57.60009224 76.78850459 58.81348792 87.68211091 56.5390625 98.35546875 C53.28029823 108.22924596 47.78416947 115.11982376 38.66015625 120.1015625 C35.21699112 121.78778871 31.8692953 123.23507541 28.1875 124.3125 C27.52234375 124.51746094 26.8571875 124.72242188 26.171875 124.93359375 C9.77925535 129.08906552 -10.85765683 127.23274689 -25.8125 119.3125 C-36.99702297 112.0198273 -44.2067186 102.18638802 -48.1875 89.375 C-48.8125 86.3125 -48.8125 86.3125 -48.8125 81.3125 C-34.2925 81.3125 -19.7725 81.3125 -4.8125 81.3125 C-3.4925 83.9525 -2.1725 86.5925 -0.8125 89.3125 C3.11678456 91.36256151 6.79008139 91.80110207 11.1875 91.3125 C13.06640434 89.93743901 13.06640434 89.93743901 14.1875 88.3125 C13.57767281 85.83103885 13.57767281 85.83103885 12.1875 83.3125 C9.80611091 82.00020692 9.80611091 82.00020692 6.8125 81.3125 C5.65105469 80.99152344 4.48960938 80.67054688 3.29296875 80.33984375 C-0.55239987 79.36156059 -4.41150508 78.43969993 -8.26855469 77.50878906 C-22.2354304 74.11257238 -35.73953521 70.79999952 -44.28515625 58.12890625 C-49.0267719 49.13853105 -49.42472673 36.99530511 -47.05859375 27.1875 C-46.12130305 24.77627373 -45.07985987 22.56558421 -43.8125 20.3125 C-42.94625 18.7346875 -42.94625 18.7346875 -42.0625 17.125 C-31.26518526 3.62835657 -16.62350411 -0.09174843 0 0 Z " fill="#30266D" transform="translate(1576.8125,92.6875)"/>
<path d="M0 0 C15.18 0 30.36 0 46 0 C46 53.46 46 106.92 46 162 C30.82 162 15.64 162 0 162 C0 108.54 0 55.08 0 0 Z " fill="#30266D" transform="translate(542,56)"/>
<path d="M0 0 C15.18 0 30.36 0 46 0 C46 40.92 46 81.84 46 124 C30.82 124 15.64 124 0 124 C0 83.08 0 42.16 0 0 Z " fill="#30266D" transform="translate(476,94)"/>
<path d="M0 0 C2.23157354 1.87394957 4.05456531 3.81138598 6 6 C6.33 3.36 6.66 0.72 7 -2 C11.29 -2 15.58 -2 20 -2 C20.06804447 6.43262927 20.12296991 14.86504154 20.15543652 23.29787254 C20.17102661 27.21447405 20.19214147 31.13087637 20.22631836 35.04736328 C20.25915161 38.8340002 20.27690294 42.62044672 20.28463173 46.40721512 C20.2901326 47.84476336 20.30087329 49.28230236 20.31719017 50.71976852 C20.43234687 61.29481333 20.11142597 71.54316912 13 80 C6.21716945 86.28431516 -0.46331533 88.49155919 -9.63671875 88.25390625 C-18.38711208 87.31378135 -25.64343181 84.13691429 -31.25 77.25 C-34.09573324 73.28683224 -35.14720219 69.77566774 -36 65 C-31.61622413 64.65791344 -27.37232772 64.46228516 -23 65 C-20.4375 67.8125 -20.4375 67.8125 -19 71 C-15.75110767 73.8550872 -13.15703148 74.88656554 -8.8125 75.3125 C-4.27790646 74.94081201 -0.56758086 73.90059835 3 71 C5.97569192 66.4116315 6.38907294 62.45893005 6.1875 57.125 C6.17396484 56.43664062 6.16042969 55.74828125 6.14648438 55.0390625 C6.1114837 53.35902999 6.05768954 51.6794065 6 50 C5.41089844 50.77730469 4.82179688 51.55460937 4.21484375 52.35546875 C0.46153988 56.83692681 -3.2839261 58.66049076 -9.09375 59.38671875 C-17.02828031 59.65552877 -23.55994788 58.75313822 -29.7421875 53.52734375 C-37.29981176 45.57491822 -38.5805865 36.61097859 -38.47485352 26.05102539 C-38.14025122 16.69235673 -35.91035242 8.58894068 -29 2 C-20.43235712 -3.98191282 -9.28502679 -5.41626563 0 0 Z M-21.75 14.5 C-25.45182049 19.32794064 -26.30469841 25.59052985 -25.7734375 31.53515625 C-24.59544508 37.51496523 -22.90835931 41.55899399 -17.9375 45.3125 C-13.43062811 47.65187206 -8.95792237 47.80310147 -4 47 C0.89472807 44.64327908 3.31615602 41.67187656 6 37 C8.06185331 30.81444008 8.09729467 23.46260471 5.3125 17.5 C2.78195161 13.18371002 -0.22891398 10.59036201 -5 9 C-12.19056503 8.52848754 -16.2585384 9.50776218 -21.75 14.5 Z " fill="#FFFFFF" transform="translate(1310,273)"/>
<path d="M0 0 C2.23157354 1.87394957 4.05456531 3.81138598 6 6 C6.33 3.36 6.66 0.72 7 -2 C11.29 -2 15.58 -2 20 -2 C20.06804447 6.43262927 20.12296991 14.86504154 20.15543652 23.29787254 C20.17102661 27.21447405 20.19214147 31.13087637 20.22631836 35.04736328 C20.25915161 38.8340002 20.27690294 42.62044672 20.28463173 46.40721512 C20.2901326 47.84476336 20.30087329 49.28230236 20.31719017 50.71976852 C20.43234687 61.29481333 20.11142597 71.54316912 13 80 C6.21716945 86.28431516 -0.46331533 88.49155919 -9.63671875 88.25390625 C-18.38711208 87.31378135 -25.64343181 84.13691429 -31.25 77.25 C-34.09573324 73.28683224 -35.14720219 69.77566774 -36 65 C-31.61622413 64.65791344 -27.37232772 64.46228516 -23 65 C-20.4375 67.8125 -20.4375 67.8125 -19 71 C-15.75110767 73.8550872 -13.15703148 74.88656554 -8.8125 75.3125 C-4.27790646 74.94081201 -0.56758086 73.90059835 3 71 C5.97569192 66.4116315 6.38907294 62.45893005 6.1875 57.125 C6.17396484 56.43664062 6.16042969 55.74828125 6.14648438 55.0390625 C6.1114837 53.35902999 6.05768954 51.6794065 6 50 C5.41089844 50.77730469 4.82179688 51.55460937 4.21484375 52.35546875 C0.46153988 56.83692681 -3.2839261 58.66049076 -9.09375 59.38671875 C-17.02828031 59.65552877 -23.55994788 58.75313822 -29.7421875 53.52734375 C-37.29981176 45.57491822 -38.5805865 36.61097859 -38.47485352 26.05102539 C-38.14025122 16.69235673 -35.91035242 8.58894068 -29 2 C-20.43235712 -3.98191282 -9.28502679 -5.41626563 0 0 Z M-21.75 14.5 C-25.45182049 19.32794064 -26.30469841 25.59052985 -25.7734375 31.53515625 C-24.59544508 37.51496523 -22.90835931 41.55899399 -17.9375 45.3125 C-13.43062811 47.65187206 -8.95792237 47.80310147 -4 47 C0.89472807 44.64327908 3.31615602 41.67187656 6 37 C8.06185331 30.81444008 8.09729467 23.46260471 5.3125 17.5 C2.78195161 13.18371002 -0.22891398 10.59036201 -5 9 C-12.19056503 8.52848754 -16.2585384 9.50776218 -21.75 14.5 Z " fill="#FFFFFF" transform="translate(762,273)"/>
<path d="M0 0 C4.99354847 4.55932686 7.61294446 10.40581905 8.1796875 17.1328125 C8.18626032 18.75630027 8.10341727 20.37979612 8 22 C4.04 22 0.08 22 -4 22 C-4.42317708 19.75390625 -4.84635417 17.5078125 -5.26953125 15.26171875 C-6.10654263 12.67011667 -6.78109271 11.57340699 -9 10 C-11.28330101 9.63853543 -11.28330101 9.63853543 -13.6875 9.8125 C-14.89986328 9.85310547 -14.89986328 9.85310547 -16.13671875 9.89453125 C-16.75160156 9.92933594 -17.36648438 9.96414063 -18 10 C-19.60037622 14.80112866 -20.01293878 17.95507029 -17.75390625 22.515625 C-14.12894757 28.37583534 -9.92726634 33.6641178 -5.5078125 38.9375 C-1.01097618 44.42896367 3.16739674 50.16126246 7.39892578 55.85791016 C9.06421833 58.08591821 10.74661534 60.30009339 12.43359375 62.51171875 C12.98877686 63.24237549 13.54395996 63.97303223 14.1159668 64.72583008 C15.18808437 66.13593781 16.26365868 67.54342542 17.34301758 68.94799805 C21 73.77546048 21 73.77546048 21 76 C16.49176094 76.68982329 12.48523398 76.9262436 8 76 C4.23787045 72.80724508 1.72674833 69.07831839 -1 65 C-1.96803272 63.96902345 -2.95400779 62.95178794 -4 62 C-4.21914063 62.51949219 -4.43828125 63.03898437 -4.6640625 63.57421875 C-7.02490141 68.76614497 -9.32271109 71.71594609 -14 75 C-19.73443413 76.91147804 -26.74189608 77.20171718 -32.45703125 75.09375 C-38.42208552 71.53524726 -42.84006239 66.67011571 -45 60 C-45.67349788 52.67899055 -46.20879066 44.38011022 -42 38 C-38.02063873 33.50650937 -33.57669613 31.04858225 -28 29 C-28.66 27.906875 -29.32 26.81375 -30 25.6875 C-33.09116078 19.49417787 -33.04262697 13.1278809 -30.875 6.625 C-23.31926179 -3.95303349 -11.23171779 -5.66954779 0 0 Z M-33 46 C-34.76434434 49.52868869 -34.65186995 53.1577281 -34 57 C-31.72239442 61.40065936 -29.20810942 63.61167911 -24.5 65.125 C-20.43904045 64.97996573 -18.35149117 64.28510762 -15 62 C-12.55659809 59.06791771 -12.03340466 57.31177679 -11.625 53.5 C-12.15576638 48.54618049 -13.8191666 46.2483096 -17.1875 42.6875 C-23.59395097 38.84362942 -28.42194043 40.17337873 -33 46 Z " fill="#FFFFFF" transform="translate(336,386)"/>
<path d="M0 0 C5.16330691 4.63260299 8.00654066 10.04771257 10.26171875 16.57421875 C10.26171875 17.56421875 10.26171875 18.55421875 10.26171875 19.57421875 C5.81533153 20.10857686 1.68650319 20.3628466 -2.73828125 19.57421875 C-4.91516613 17.49747057 -6.02242308 15.49879819 -7.40625 12.83984375 C-9.95109412 8.51136988 -14.09682398 7.12137117 -18.73828125 5.57421875 C-25.45455564 4.81470468 -30.55248646 5.09970625 -36.08984375 9.16796875 C-42.20756164 14.38687501 -44.19476277 20.6629072 -45.0625 28.50390625 C-45.38528831 37.07449229 -43.78782872 44.82092955 -38.30078125 51.57421875 C-32.8786577 55.80612006 -28.68849591 57.75503734 -21.73828125 57.57421875 C-15.57446953 56.43690917 -11.09577371 54.03546103 -6.73828125 49.57421875 C-5.74828125 47.59421875 -4.75828125 45.61421875 -3.73828125 43.57421875 C0.88171875 43.57421875 5.50171875 43.57421875 10.26171875 43.57421875 C7.67073449 54.39538832 3.01493233 61.26194642 -6.33203125 67.3828125 C-14.93571316 71.6427524 -25.42010919 71.9570952 -34.71875 69.921875 C-43.21444374 66.85288796 -50.41549984 60.51301502 -54.73828125 52.57421875 C-60.07147204 39.83257883 -60.46533779 25.5647388 -55.73828125 12.57421875 C-50.92144385 2.25450953 -44.36525152 -3.55958826 -33.73828125 -7.42578125 C-21.99468948 -11.0391941 -9.2356195 -7.57528341 0 0 Z " fill="#FFFFFF" transform="translate(635.73828125,391.42578125)"/>
<path d="M0 0 C5.16330691 4.63260299 8.00654066 10.04771257 10.26171875 16.57421875 C10.26171875 17.56421875 10.26171875 18.55421875 10.26171875 19.57421875 C5.81533153 20.10857686 1.68650319 20.3628466 -2.73828125 19.57421875 C-4.91516613 17.49747057 -6.02242308 15.49879819 -7.40625 12.83984375 C-9.95109412 8.51136988 -14.09682398 7.12137117 -18.73828125 5.57421875 C-25.45455564 4.81470468 -30.55248646 5.09970625 -36.08984375 9.16796875 C-42.20756164 14.38687501 -44.19476277 20.6629072 -45.0625 28.50390625 C-45.38528831 37.07449229 -43.78782872 44.82092955 -38.30078125 51.57421875 C-32.8786577 55.80612006 -28.68849591 57.75503734 -21.73828125 57.57421875 C-15.57446953 56.43690917 -11.09577371 54.03546103 -6.73828125 49.57421875 C-5.74828125 47.59421875 -4.75828125 45.61421875 -3.73828125 43.57421875 C0.88171875 43.57421875 5.50171875 43.57421875 10.26171875 43.57421875 C7.67073449 54.39538832 3.01493233 61.26194642 -6.33203125 67.3828125 C-14.93571316 71.6427524 -25.42010919 71.9570952 -34.71875 69.921875 C-43.21444374 66.85288796 -50.41549984 60.51301502 -54.73828125 52.57421875 C-60.07147204 39.83257883 -60.46533779 25.5647388 -55.73828125 12.57421875 C-50.92144385 2.25450953 -44.36525152 -3.55958826 -33.73828125 -7.42578125 C-21.99468948 -11.0391941 -9.2356195 -7.57528341 0 0 Z " fill="#FFFFFF" transform="translate(251.73828125,261.42578125)"/>
<path d="M0 0 C4.29 0 8.58 0 13 0 C13.33 10.56 13.66 21.12 14 32 C21.77829203 22.60443933 29.49672012 13.18776077 36.98828125 3.5625 C39 1 39 1 40 0 C42.53049402 -0.07313567 45.03304837 -0.09247527 47.5625 -0.0625 C48.62887695 -0.05573242 48.62887695 -0.05573242 49.71679688 -0.04882812 C51.47790013 -0.03700864 53.23896036 -0.01907263 55 0 C53.47260916 3.42673696 51.45668829 6.05841282 49.0625 8.9375 C47.85980469 10.38769531 47.85980469 10.38769531 46.6328125 11.8671875 C43.45298371 15.66045726 40.24843987 19.43283978 37.04199219 23.20361328 C32.92660309 28.05545578 28.93716128 33.00239986 25 38 C29.07926591 43.54739408 33.33920971 48.90131856 37.75 54.1875 C42.19219246 59.55233808 46.60078362 64.93747359 50.875 70.4375 C51.67679688 71.46746094 52.47859375 72.49742187 53.3046875 73.55859375 C55 76 55 76 55 78 C49.90811173 79.01415202 44.98093561 79.70751137 40 78 C35.15858264 74.3903076 31.85489559 69.10825349 28.49462891 64.16845703 C26.25677875 60.92171004 23.81146671 57.84844669 21.375 54.75 C18.90080881 51.51135771 16.44538699 48.26051599 14 45 C13.67 55.89 13.34 66.78 13 78 C8.71 78 4.42 78 0 78 C0 52.26 0 26.52 0 0 Z " fill="#FFFFFF" transform="translate(1057,384)"/>
<path d="M0 0 C2.23157354 1.87394957 4.05456531 3.81138598 6 6 C6.33 3.36 6.66 0.72 7 -2 C11.29 -2 15.58 -2 20 -2 C20 18.13 20 38.26 20 59 C15.71 59 11.42 59 7 59 C6.505 54.545 6.505 54.545 6 50 C5.505 50.7425 5.01 51.485 4.5 52.25 C0.5155173 56.63293097 -3.17360381 58.64670048 -9.09375 59.38671875 C-17.02828031 59.65552877 -23.55994788 58.75313822 -29.7421875 53.52734375 C-37.29981176 45.57491822 -38.5805865 36.61097859 -38.47485352 26.05102539 C-38.14025122 16.69235673 -35.91035242 8.58894068 -29 2 C-20.43235712 -3.98191282 -9.28502679 -5.41626563 0 0 Z M-21.75 14.5 C-25.45182049 19.32794064 -26.30469841 25.59052985 -25.7734375 31.53515625 C-24.59544508 37.51496523 -22.90835931 41.55899399 -17.9375 45.3125 C-13.43062811 47.65187206 -8.95792237 47.80310147 -4 47 C0.89472807 44.64327908 3.31615602 41.67187656 6 37 C8.06185331 30.81444008 8.09729467 23.46260471 5.3125 17.5 C2.78195161 13.18371002 -0.22891398 10.59036201 -5 9 C-12.19056503 8.52848754 -16.2585384 9.50776218 -21.75 14.5 Z " fill="#FFFFFF" transform="translate(1352,403)"/>
<path d="M0 0 C2.23157354 1.87394957 4.05456531 3.81138598 6 6 C6.33 3.36 6.66 0.72 7 -2 C11.29 -2 15.58 -2 20 -2 C20 18.13 20 38.26 20 59 C15.71 59 11.42 59 7 59 C6.505 54.545 6.505 54.545 6 50 C5.505 50.7425 5.01 51.485 4.5 52.25 C0.5155173 56.63293097 -3.17360381 58.64670048 -9.09375 59.38671875 C-17.02828031 59.65552877 -23.55994788 58.75313822 -29.7421875 53.52734375 C-37.29981176 45.57491822 -38.5805865 36.61097859 -38.47485352 26.05102539 C-38.14025122 16.69235673 -35.91035242 8.58894068 -29 2 C-20.43235712 -3.98191282 -9.28502679 -5.41626563 0 0 Z M-21.75 14.5 C-25.45182049 19.32794064 -26.30469841 25.59052985 -25.7734375 31.53515625 C-24.59544508 37.51496523 -22.90835931 41.55899399 -17.9375 45.3125 C-13.43062811 47.65187206 -8.95792237 47.80310147 -4 47 C0.89472807 44.64327908 3.31615602 41.67187656 6 37 C8.06185331 30.81444008 8.09729467 23.46260471 5.3125 17.5 C2.78195161 13.18371002 -0.22891398 10.59036201 -5 9 C-12.19056503 8.52848754 -16.2585384 9.50776218 -21.75 14.5 Z " fill="#FFFFFF" transform="translate(1258,403)"/>
<path d="M0 0 C2.23157354 1.87394957 4.05456531 3.81138598 6 6 C6.33 3.36 6.66 0.72 7 -2 C11.29 -2 15.58 -2 20 -2 C20 18.13 20 38.26 20 59 C15.71 59 11.42 59 7 59 C6.505 54.545 6.505 54.545 6 50 C5.505 50.7425 5.01 51.485 4.5 52.25 C0.5155173 56.63293097 -3.17360381 58.64670048 -9.09375 59.38671875 C-17.02828031 59.65552877 -23.55994788 58.75313822 -29.7421875 53.52734375 C-37.29981176 45.57491822 -38.5805865 36.61097859 -38.47485352 26.05102539 C-38.14025122 16.69235673 -35.91035242 8.58894068 -29 2 C-20.43235712 -3.98191282 -9.28502679 -5.41626563 0 0 Z M-21.75 14.5 C-25.45182049 19.32794064 -26.30469841 25.59052985 -25.7734375 31.53515625 C-24.59544508 37.51496523 -22.90835931 41.55899399 -17.9375 45.3125 C-13.43062811 47.65187206 -8.95792237 47.80310147 -4 47 C0.89472807 44.64327908 3.31615602 41.67187656 6 37 C8.06185331 30.81444008 8.09729467 23.46260471 5.3125 17.5 C2.78195161 13.18371002 -0.22891398 10.59036201 -5 9 C-12.19056503 8.52848754 -16.2585384 9.50776218 -21.75 14.5 Z " fill="#FFFFFF" transform="translate(757,403)"/>
<path d="M0 0 C4.29 0 8.58 0 13 0 C13.33 9.57 13.66 19.14 14 29 C15.32 27.35 16.64 25.7 18 24 C23.13417164 19.92766841 28.70603109 19.37538579 35.09765625 19.6171875 C40.9743759 20.39231338 44.5757902 22.63908841 48.8125 26.6875 C53.54863061 33.85935492 54.43925483 40.83781293 54.29296875 49.28515625 C54.28872391 50.22685165 54.28447906 51.16854706 54.28010559 52.13877869 C54.26346216 55.11365718 54.22583772 58.08783014 54.1875 61.0625 C54.1724346 63.0930891 54.15874946 65.12368893 54.14648438 67.15429688 C54.11360578 72.10313181 54.0619244 77.05144675 54 82 C50.04 82 46.08 82 42 82 C41.970271 80.53361084 41.970271 80.53361084 41.93994141 79.03759766 C41.86312629 75.36581239 41.77453493 71.69438486 41.68261719 68.02294922 C41.64463765 66.44229257 41.60973435 64.86155858 41.578125 63.28076172 C41.98771805 48.69265611 41.98771805 48.69265611 37.1875 35.5 C32.72202484 32.43795989 29.49658453 31.50421783 23.99609375 32.3984375 C20.37321303 33.49026457 18.59185447 35.22301307 16 38 C13.83967212 42.97218322 13.66280857 47.57302177 13.5859375 52.8984375 C13.56657135 53.73339752 13.5472052 54.56835754 13.5272522 55.42861938 C13.46780386 58.07731126 13.42121106 60.72604743 13.375 63.375 C13.33678818 65.17840364 13.29773461 66.98178966 13.2578125 68.78515625 C13.16213119 73.18995984 13.07797289 77.5948488 13 82 C8.71 82 4.42 82 0 82 C0 54.94 0 27.88 0 0 Z " fill="#FFFFFF" transform="translate(852,380)"/>
<path d="M0 0 C4.29 0 8.58 0 13 0 C13.33 9.57 13.66 19.14 14 29 C15.32 27.35 16.64 25.7 18 24 C23.13417164 19.92766841 28.70603109 19.37538579 35.09765625 19.6171875 C40.9743759 20.39231338 44.5757902 22.63908841 48.8125 26.6875 C53.54863061 33.85935492 54.43925483 40.83781293 54.29296875 49.28515625 C54.28872391 50.22685165 54.28447906 51.16854706 54.28010559 52.13877869 C54.26346216 55.11365718 54.22583772 58.08783014 54.1875 61.0625 C54.1724346 63.0930891 54.15874946 65.12368893 54.14648438 67.15429688 C54.11360578 72.10313181 54.0619244 77.05144675 54 82 C50.04 82 46.08 82 42 82 C41.970271 80.53361084 41.970271 80.53361084 41.93994141 79.03759766 C41.86312629 75.36581239 41.77453493 71.69438486 41.68261719 68.02294922 C41.64463765 66.44229257 41.60973435 64.86155858 41.578125 63.28076172 C41.98771805 48.69265611 41.98771805 48.69265611 37.1875 35.5 C32.72202484 32.43795989 29.49658453 31.50421783 23.99609375 32.3984375 C20.37321303 33.49026457 18.59185447 35.22301307 16 38 C13.83967212 42.97218322 13.66280857 47.57302177 13.5859375 52.8984375 C13.56657135 53.73339752 13.5472052 54.56835754 13.5272522 55.42861938 C13.46780386 58.07731126 13.42121106 60.72604743 13.375 63.375 C13.33678818 65.17840364 13.29773461 66.98178966 13.2578125 68.78515625 C13.16213119 73.18995984 13.07797289 77.5948488 13 82 C8.71 82 4.42 82 0 82 C0 54.94 0 27.88 0 0 Z " fill="#FFFFFF" transform="translate(1052,250)"/>
<path d="M0 0 C5.8420867 4.04452156 9.6124632 8.93141632 11 16 C11.71008754 23.39189488 11.22434305 29.73428447 7 36 C1.76424298 41.82617217 -3.05358231 44.62953589 -10.953125 45.37109375 C-19.49609001 45.61599669 -27.01383369 45.58082531 -34 40 C-39.49015578 34.60192231 -41.8838501 28.95814885 -42.0625 21.33203125 C-41.68577729 12.79690734 -38.79532543 7.360305 -32.5625 1.625 C-24.13965926 -5.64096864 -9.39271106 -4.95252038 0 0 Z " fill="#30266D" transform="translate(514,40)"/>
<path d="M0 0 C37.24058577 0 37.24058577 0 43.33984375 4.8671875 C49.02332532 12.00975358 51.63340638 18.32409788 50.75390625 27.59375 C49.64666375 34.10002449 47.53592101 38.46407899 42.8125 43.1875 C33.38503811 49.26297544 23.88040557 48.24178679 13 48 C13 57.9 13 67.8 13 78 C8.71 78 4.42 78 0 78 C0 52.26 0 26.52 0 0 Z M13 11 C13 19.58 13 28.16 13 37 C25.34260346 37.77976325 25.34260346 37.77976325 35.875 32.375 C38.208565 27.448585 38.61956541 22.76087012 36.8125 17.625 C34.09258878 13.68581823 31.67789242 11.86482045 27 11 C22.32977236 10.86792343 17.67317059 10.9567299 13 11 Z " fill="#FFFFFF" transform="translate(818,254)"/>
<path d="M0 0 C6.215674 4.4977142 8.8825035 9.71581204 11 17 C11 21.29 11 25.58 11 30 C-3.19 30 -17.38 30 -32 30 C-30.54778656 37.61133732 -30.54778656 37.61133732 -26.125 44.125 C-21.29875074 46.11227911 -17.17299486 46.62783356 -12 46 C-6.50338187 43.35348016 -5.88449385 41.7689877 -3 36 C1.62 36 6.24 36 11 36 C9.06483104 43.84818524 6.93568002 49.49588085 0.1953125 54.28125 C-7.39433926 58.84155578 -15.39416215 58.75366808 -24 58 C-32.19560381 55.68620156 -37.87307371 50.38278025 -42.09375 43.1171875 C-45.81251604 34.33676769 -45.62904106 21.18963294 -42.375 12.3125 C-38.65976638 4.76511981 -33.91021455 -0.02166011 -26 -3 C-17.24008644 -5.69675025 -7.86212856 -4.59191911 0 0 Z M-28.25 12.375 C-30.63651385 15.95477078 -32 18.67013751 -32 23 C-21.77 23 -11.54 23 -1 23 C-3.0941888 13.37527092 -3.0941888 13.37527092 -9.8125 7.6875 C-16.96073859 5.44091073 -23.11828479 6.9581895 -28.25 12.375 Z " fill="#FFFFFF" transform="translate(1161,404)"/>
<path d="M0 0 C6.215674 4.4977142 8.8825035 9.71581204 11 17 C11 21.29 11 25.58 11 30 C-3.19 30 -17.38 30 -32 30 C-30.54778656 37.61133732 -30.54778656 37.61133732 -26.125 44.125 C-21.29875074 46.11227911 -17.17299486 46.62783356 -12 46 C-6.50338187 43.35348016 -5.88449385 41.7689877 -3 36 C1.62 36 6.24 36 11 36 C9.06483104 43.84818524 6.93568002 49.49588085 0.1953125 54.28125 C-7.39433926 58.84155578 -15.39416215 58.75366808 -24 58 C-32.19560381 55.68620156 -37.87307371 50.38278025 -42.09375 43.1171875 C-45.81251604 34.33676769 -45.62904106 21.18963294 -42.375 12.3125 C-38.65976638 4.76511981 -33.91021455 -0.02166011 -26 -3 C-17.24008644 -5.69675025 -7.86212856 -4.59191911 0 0 Z M-28.25 12.375 C-30.63651385 15.95477078 -32 18.67013751 -32 23 C-21.77 23 -11.54 23 -1 23 C-3.0941888 13.37527092 -3.0941888 13.37527092 -9.8125 7.6875 C-16.96073859 5.44091073 -23.11828479 6.9581895 -28.25 12.375 Z " fill="#FFFFFF" transform="translate(535,404)"/>
<path d="M0 0 C6.215674 4.4977142 8.8825035 9.71581204 11 17 C11 21.29 11 25.58 11 30 C-3.19 30 -17.38 30 -32 30 C-30.54778656 37.61133732 -30.54778656 37.61133732 -26.125 44.125 C-21.29875074 46.11227911 -17.17299486 46.62783356 -12 46 C-6.50338187 43.35348016 -5.88449385 41.7689877 -3 36 C1.62 36 6.24 36 11 36 C9.06483104 43.84818524 6.93568002 49.49588085 0.1953125 54.28125 C-7.39433926 58.84155578 -15.39416215 58.75366808 -24 58 C-32.19560381 55.68620156 -37.87307371 50.38278025 -42.09375 43.1171875 C-45.81251604 34.33676769 -45.62904106 21.18963294 -42.375 12.3125 C-38.65976638 4.76511981 -33.91021455 -0.02166011 -26 -3 C-17.24008644 -5.69675025 -7.86212856 -4.59191911 0 0 Z M-28.25 12.375 C-30.63651385 15.95477078 -32 18.67013751 -32 23 C-21.77 23 -11.54 23 -1 23 C-3.0941888 13.37527092 -3.0941888 13.37527092 -9.8125 7.6875 C-16.96073859 5.44091073 -23.11828479 6.9581895 -28.25 12.375 Z " fill="#FFFFFF" transform="translate(563,274)"/>
<path d="M0 0 C2.9375 2.4375 2.9375 2.4375 5 5 C5.70125 5.7425 6.4025 6.485 7.125 7.25 C12.96531751 15.81579901 13.0793831 25.96148788 12 36 C10.49551082 42.68945191 7.23579659 48.51558196 2 53 C-6.32451656 58.18110329 -14.38967645 58.70968543 -24 58 C-30.60277077 56.29126607 -36.63841574 52.57117619 -40.44140625 46.8203125 C-45.98862496 37.17984693 -46.77316391 25.5979614 -44.24609375 14.76953125 C-40.82085145 5.89076591 -35.4937658 1.13563943 -27 -3 C-17.62333984 -5.45055125 -8.62000369 -4.3595421 0 0 Z M-29.3125 14.5625 C-33.29819225 20.31961103 -32.52131939 27.27497982 -32 34 C-30.82245431 38.64633993 -28.80130452 41.80987602 -24.8125 44.5 C-19.99012291 46.8130888 -15.09296958 46.97224977 -10.01171875 45.375 C-5.89492049 43.4003473 -3.4744817 40.71626837 -1.65625 36.546875 C0.00516824 30.09898993 0.20385054 22.93218567 -2.3359375 16.74609375 C-4.76539607 12.73691681 -7.76291581 10.1185421 -12 8 C-19.66667094 7.06466615 -24.05123018 8.73244425 -29.3125 14.5625 Z " fill="#FFFFFF" transform="translate(699,404)"/>
<path d="M0 0 C2.9375 2.4375 2.9375 2.4375 5 5 C5.70125 5.7425 6.4025 6.485 7.125 7.25 C12.96531751 15.81579901 13.0793831 25.96148788 12 36 C10.49551082 42.68945191 7.23579659 48.51558196 2 53 C-6.32451656 58.18110329 -14.38967645 58.70968543 -24 58 C-30.60277077 56.29126607 -36.63841574 52.57117619 -40.44140625 46.8203125 C-45.98862496 37.17984693 -46.77316391 25.5979614 -44.24609375 14.76953125 C-40.82085145 5.89076591 -35.4937658 1.13563943 -27 -3 C-17.62333984 -5.45055125 -8.62000369 -4.3595421 0 0 Z M-29.3125 14.5625 C-33.29819225 20.31961103 -32.52131939 27.27497982 -32 34 C-30.82245431 38.64633993 -28.80130452 41.80987602 -24.8125 44.5 C-19.99012291 46.8130888 -15.09296958 46.97224977 -10.01171875 45.375 C-5.89492049 43.4003473 -3.4744817 40.71626837 -1.65625 36.546875 C0.00516824 30.09898993 0.20385054 22.93218567 -2.3359375 16.74609375 C-4.76539607 12.73691681 -7.76291581 10.1185421 -12 8 C-19.66667094 7.06466615 -24.05123018 8.73244425 -29.3125 14.5625 Z " fill="#FFFFFF" transform="translate(1252,274)"/>
<path d="M0 0 C2.9375 2.4375 2.9375 2.4375 5 5 C5.70125 5.7425 6.4025 6.485 7.125 7.25 C12.96531751 15.81579901 13.0793831 25.96148788 12 36 C10.49551082 42.68945191 7.23579659 48.51558196 2 53 C-6.32451656 58.18110329 -14.38967645 58.70968543 -24 58 C-30.60277077 56.29126607 -36.63841574 52.57117619 -40.44140625 46.8203125 C-45.98862496 37.17984693 -46.77316391 25.5979614 -44.24609375 14.76953125 C-40.82085145 5.89076591 -35.4937658 1.13563943 -27 -3 C-17.62333984 -5.45055125 -8.62000369 -4.3595421 0 0 Z M-29.3125 14.5625 C-33.29819225 20.31961103 -32.52131939 27.27497982 -32 34 C-30.82245431 38.64633993 -28.80130452 41.80987602 -24.8125 44.5 C-19.99012291 46.8130888 -15.09296958 46.97224977 -10.01171875 45.375 C-5.89492049 43.4003473 -3.4744817 40.71626837 -1.65625 36.546875 C0.00516824 30.09898993 0.20385054 22.93218567 -2.3359375 16.74609375 C-4.76539607 12.73691681 -7.76291581 10.1185421 -12 8 C-19.66667094 7.06466615 -24.05123018 8.73244425 -29.3125 14.5625 Z " fill="#FFFFFF" transform="translate(1161,274)"/>
<path d="M0 0 C2.9375 2.4375 2.9375 2.4375 5 5 C5.70125 5.7425 6.4025 6.485 7.125 7.25 C12.96531751 15.81579901 13.0793831 25.96148788 12 36 C10.49551082 42.68945191 7.23579659 48.51558196 2 53 C-6.32451656 58.18110329 -14.38967645 58.70968543 -24 58 C-30.60277077 56.29126607 -36.63841574 52.57117619 -40.44140625 46.8203125 C-45.98862496 37.17984693 -46.77316391 25.5979614 -44.24609375 14.76953125 C-40.82085145 5.89076591 -35.4937658 1.13563943 -27 -3 C-17.62333984 -5.45055125 -8.62000369 -4.3595421 0 0 Z M-29.3125 14.5625 C-33.29819225 20.31961103 -32.52131939 27.27497982 -32 34 C-30.82245431 38.64633993 -28.80130452 41.80987602 -24.8125 44.5 C-19.99012291 46.8130888 -15.09296958 46.97224977 -10.01171875 45.375 C-5.89492049 43.4003473 -3.4744817 40.71626837 -1.65625 36.546875 C0.00516824 30.09898993 0.20385054 22.93218567 -2.3359375 16.74609375 C-4.76539607 12.73691681 -7.76291581 10.1185421 -12 8 C-19.66667094 7.06466615 -24.05123018 8.73244425 -29.3125 14.5625 Z " fill="#FFFFFF" transform="translate(315,274)"/>
<path d="M0 0 C4.62 0 9.24 0 14 0 C17.73169935 8.8687553 21.30961292 17.78874756 24.8125 26.75 C25.31954365 28.04431699 25.82670453 29.33858806 26.33398438 30.6328125 C27.55713605 33.75476154 28.77912025 36.87716195 30 40 C33.33269357 31.92729285 36.27926501 23.73359335 39.1875 15.5 C40.07527196 12.98902744 40.96495185 10.47875265 41.85546875 7.96875 C42.24371826 6.86982422 42.63196777 5.77089844 43.03198242 4.63867188 C44 2 44 2 45 0 C49.62 0 54.24 0 59 0 C56.95018505 7.10487386 54.5900396 13.9942862 51.9375 20.89453125 C51.35510307 22.42247063 51.35510307 22.42247063 50.76094055 23.98127747 C49.51055107 27.25960602 48.25531311 30.53605402 47 33.8125 C46.14050978 36.06350214 45.28138027 38.31464204 44.42260742 40.56591797 C42.72905508 45.00464993 41.03390708 49.44276675 39.33740234 53.88037109 C36.54969516 61.17496347 33.77801081 68.47558388 31.01196289 75.77841187 C29.9214972 78.6572508 28.82979267 81.53561993 27.73828125 84.4140625 C27.16464844 85.92742187 26.59101562 87.44078125 26 89 C21.38 89 16.76 89 12 89 C12.74890076 84.50659542 13.3294986 81.8104502 15.1015625 77.84765625 C15.50890625 76.90599609 15.91625 75.96433594 16.3359375 74.99414062 C17.19514611 73.04009195 18.06234515 71.08953721 18.9375 69.14257812 C19.34226562 68.19962891 19.74703125 67.25667969 20.1640625 66.28515625 C20.53998535 65.43832275 20.9159082 64.59148926 21.30322266 63.71899414 C23.25217325 56.11371635 19.17088218 48.91260766 16.30859375 42.01171875 C15.84389175 40.87217239 15.37918976 39.73262604 14.90040588 38.55854797 C13.4202148 34.93176664 11.92950716 31.30943455 10.4375 27.6875 C8.94259462 24.04747493 7.45173208 20.40580908 5.96388245 16.76289368 C5.03858394 14.49873203 4.1094309 12.23614118 3.1761322 9.9752655 C2.7589241 8.9569313 2.341716 7.93859711 1.91186523 6.8894043 C1.5418187 5.99118454 1.17177216 5.09296478 0.79051208 4.16752625 C0 2 0 2 0 0 Z " fill="#FFFFFF" transform="translate(925,271)"/>
<path d="M0 0 C4.29 0 8.58 0 13 0 C13.01401855 1.76259155 13.01401855 1.76259155 13.02832031 3.56079102 C13.06835335 7.94267949 13.13414874 12.32387568 13.20751953 16.70532227 C13.23565216 18.59748404 13.25690488 20.48976164 13.27099609 22.38208008 C13.29253286 25.1107887 13.33923669 27.83811591 13.390625 30.56640625 C13.39185364 31.40522842 13.39308228 32.2440506 13.39434814 33.10829163 C13.53581287 38.84978696 14.68462099 42.27785204 18 47 C21.85583619 49.39687115 25.53767958 49.39143162 30 49 C34.15741746 47.69571217 36.15696423 46.23236537 38.13769531 42.44335938 C40.29821729 37.89610418 40.60163297 33.88373762 40.609375 28.90625 C40.62591125 28.07411987 40.64244751 27.24198975 40.65948486 26.38464355 C40.70763046 23.75635148 40.7292603 21.12863646 40.75 18.5 C40.7781878 16.70570065 40.80811912 14.9114278 40.83984375 13.1171875 C40.91337973 8.74483926 40.96315766 4.3728051 41 0 C45.29 0 49.58 0 54 0 C54 20.13 54 40.26 54 61 C49.71 61 45.42 61 41 61 C40.505 57.04 40.505 57.04 40 53 C39.45730469 53.49371094 38.91460937 53.98742187 38.35546875 54.49609375 C37.64003906 55.13675781 36.92460937 55.77742188 36.1875 56.4375 C35.47980469 57.07558594 34.77210938 57.71367187 34.04296875 58.37109375 C28.80575225 62.54684763 21.33051649 61.50787194 15 61 C9.7960043 59.45382131 5.71142324 55.65464455 3 51 C0.34700604 44.35753125 -0.42296955 38.15099784 -0.29296875 31.0546875 C-0.28872391 30.15879913 -0.28447906 29.26291077 -0.28010559 28.33987427 C-0.26350154 25.51792521 -0.22588593 22.69672801 -0.1875 19.875 C-0.17242946 17.94532292 -0.15874524 16.01563448 -0.14648438 14.0859375 C-0.1136583 9.39034153 -0.06200616 4.69529759 0 0 Z " fill="#FFFFFF" transform="translate(335,271)"/>
<path d="M0 0 C6.02026629 3.58468138 8.8755597 8.35485815 10.9515686 14.85055542 C11.98509361 19.12120942 11.93118894 23.28766646 11.85546875 27.66015625 C11.85122391 28.60185165 11.84697906 29.54354706 11.84260559 30.51377869 C11.82596216 33.48865718 11.78833772 36.46283014 11.75 39.4375 C11.7349346 41.4680891 11.72124946 43.49868893 11.70898438 45.52929688 C11.67610578 50.47813181 11.6244244 55.42644675 11.5625 60.375 C7.6025 60.375 3.6425 60.375 -0.4375 60.375 C-0.467229 58.90861084 -0.467229 58.90861084 -0.49755859 57.41259766 C-0.57437371 53.74081239 -0.66296507 50.06938486 -0.75488281 46.39794922 C-0.79286235 44.81729257 -0.82776565 43.23655858 -0.859375 41.65576172 C-0.44978195 27.06765611 -0.44978195 27.06765611 -5.25 13.875 C-9.71547516 10.81295989 -12.94091547 9.87921783 -18.44140625 10.7734375 C-22.06428697 11.86526457 -23.84564553 13.59801307 -26.4375 16.375 C-28.59782788 21.34718322 -28.77469143 25.94802177 -28.8515625 31.2734375 C-28.87092865 32.10839752 -28.8902948 32.94335754 -28.9102478 33.80361938 C-28.96969614 36.45231126 -29.01628894 39.10104743 -29.0625 41.75 C-29.10071182 43.55340364 -29.13976539 45.35678966 -29.1796875 47.16015625 C-29.27536881 51.56495984 -29.35952711 55.9698488 -29.4375 60.375 C-33.7275 60.375 -38.0175 60.375 -42.4375 60.375 C-42.4375 40.245 -42.4375 20.115 -42.4375 -0.625 C-38.1475 -0.625 -33.8575 -0.625 -29.4375 -0.625 C-29.1075 2.015 -28.7775 4.655 -28.4375 7.375 C-27.9425 6.6325 -27.4475 5.89 -26.9375 5.125 C-20.02223714 -2.48178914 -9.43860818 -4.24648156 0 0 Z " fill="#FFFFFF" transform="translate(1009.4375,401.625)"/>
<path d="M0 0 C6.02026629 3.58468138 8.8755597 8.35485815 10.9515686 14.85055542 C11.98509361 19.12120942 11.93118894 23.28766646 11.85546875 27.66015625 C11.85122391 28.60185165 11.84697906 29.54354706 11.84260559 30.51377869 C11.82596216 33.48865718 11.78833772 36.46283014 11.75 39.4375 C11.7349346 41.4680891 11.72124946 43.49868893 11.70898438 45.52929688 C11.67610578 50.47813181 11.6244244 55.42644675 11.5625 60.375 C7.6025 60.375 3.6425 60.375 -0.4375 60.375 C-0.467229 58.90861084 -0.467229 58.90861084 -0.49755859 57.41259766 C-0.57437371 53.74081239 -0.66296507 50.06938486 -0.75488281 46.39794922 C-0.79286235 44.81729257 -0.82776565 43.23655858 -0.859375 41.65576172 C-0.44978195 27.06765611 -0.44978195 27.06765611 -5.25 13.875 C-9.71547516 10.81295989 -12.94091547 9.87921783 -18.44140625 10.7734375 C-22.06428697 11.86526457 -23.84564553 13.59801307 -26.4375 16.375 C-28.59782788 21.34718322 -28.77469143 25.94802177 -28.8515625 31.2734375 C-28.87092865 32.10839752 -28.8902948 32.94335754 -28.9102478 33.80361938 C-28.96969614 36.45231126 -29.01628894 39.10104743 -29.0625 41.75 C-29.10071182 43.55340364 -29.13976539 45.35678966 -29.1796875 47.16015625 C-29.27536881 51.56495984 -29.35952711 55.9698488 -29.4375 60.375 C-33.7275 60.375 -38.0175 60.375 -42.4375 60.375 C-42.4375 40.245 -42.4375 20.115 -42.4375 -0.625 C-38.1475 -0.625 -33.8575 -0.625 -29.4375 -0.625 C-29.1075 2.015 -28.7775 4.655 -28.4375 7.375 C-27.9425 6.6325 -27.4475 5.89 -26.9375 5.125 C-20.02223714 -2.48178914 -9.43860818 -4.24648156 0 0 Z " fill="#FFFFFF" transform="translate(702.4375,271.625)"/>
<path d="M0 0 C6.02026629 3.58468138 8.8755597 8.35485815 10.9515686 14.85055542 C11.98509361 19.12120942 11.93118894 23.28766646 11.85546875 27.66015625 C11.85122391 28.60185165 11.84697906 29.54354706 11.84260559 30.51377869 C11.82596216 33.48865718 11.78833772 36.46283014 11.75 39.4375 C11.7349346 41.4680891 11.72124946 43.49868893 11.70898438 45.52929688 C11.67610578 50.47813181 11.6244244 55.42644675 11.5625 60.375 C7.6025 60.375 3.6425 60.375 -0.4375 60.375 C-0.467229 58.90861084 -0.467229 58.90861084 -0.49755859 57.41259766 C-0.57437371 53.74081239 -0.66296507 50.06938486 -0.75488281 46.39794922 C-0.79286235 44.81729257 -0.82776565 43.23655858 -0.859375 41.65576172 C-0.44978195 27.06765611 -0.44978195 27.06765611 -5.25 13.875 C-9.71547516 10.81295989 -12.94091547 9.87921783 -18.44140625 10.7734375 C-22.06428697 11.86526457 -23.84564553 13.59801307 -26.4375 16.375 C-28.59782788 21.34718322 -28.77469143 25.94802177 -28.8515625 31.2734375 C-28.87092865 32.10839752 -28.8902948 32.94335754 -28.9102478 33.80361938 C-28.96969614 36.45231126 -29.01628894 39.10104743 -29.0625 41.75 C-29.10071182 43.55340364 -29.13976539 45.35678966 -29.1796875 47.16015625 C-29.27536881 51.56495984 -29.35952711 55.9698488 -29.4375 60.375 C-33.7275 60.375 -38.0175 60.375 -42.4375 60.375 C-42.4375 40.245 -42.4375 20.115 -42.4375 -0.625 C-38.1475 -0.625 -33.8575 -0.625 -29.4375 -0.625 C-29.1075 2.015 -28.7775 4.655 -28.4375 7.375 C-27.9425 6.6325 -27.4475 5.89 -26.9375 5.125 C-20.02223714 -2.48178914 -9.43860818 -4.24648156 0 0 Z " fill="#FFFFFF" transform="translate(444.4375,271.625)"/>
<path d="M0 0 C5.22732305 4.18185844 9.84006788 10.23406382 10.8125 17 C10.874375 17.99 10.93625 18.98 11 20 C6.57756357 20.4662012 2.40322702 20.71331205 -2 20 C-4.00656095 18.1327231 -4.87871799 16.44318783 -6.046875 13.98046875 C-7.47342149 11.01629224 -8.93685028 10.11387263 -12 9 C-16.71477401 8.30896633 -20.04966901 8.54243323 -24.375 10.625 C-29.0699503 14.87281217 -30.50851282 19.41458731 -30.99609375 25.56640625 C-31.00519115 31.23408354 -30.25133056 36.81191939 -26.875 41.5 C-23.3226726 44.58898035 -20.7044109 45.84851629 -16 46 C-12.56832165 45.64480124 -9.90321226 44.88763991 -7 43 C-4.79159331 40.0931205 -3.51281275 37.36722838 -2 34 C2.29 34 6.58 34 11 34 C10.70827329 40.70971441 8.15839404 45.7545569 4 51 C-3.60452925 57.525686 -10.30519213 58.56454899 -20.1640625 58.3359375 C-27.63962201 57.6812551 -32.79189135 54.59886554 -37.9375 49.25 C-45.0941692 40.10161626 -45.1459201 29.18926143 -44 18 C-42.52437612 11.29716612 -39.23271232 5.49200875 -34 1 C-23.45320343 -5.67828045 -10.9582006 -6.1665151 0 0 Z " fill="#FFFFFF" transform="translate(831,404)"/>
<path d="M0 0 C5.22732305 4.18185844 9.84006788 10.23406382 10.8125 17 C10.874375 17.99 10.93625 18.98 11 20 C6.57756357 20.4662012 2.40322702 20.71331205 -2 20 C-4.00656095 18.1327231 -4.87871799 16.44318783 -6.046875 13.98046875 C-7.47342149 11.01629224 -8.93685028 10.11387263 -12 9 C-16.71477401 8.30896633 -20.04966901 8.54243323 -24.375 10.625 C-29.0699503 14.87281217 -30.50851282 19.41458731 -30.99609375 25.56640625 C-31.00519115 31.23408354 -30.25133056 36.81191939 -26.875 41.5 C-23.3226726 44.58898035 -20.7044109 45.84851629 -16 46 C-12.56832165 45.64480124 -9.90321226 44.88763991 -7 43 C-4.79159331 40.0931205 -3.51281275 37.36722838 -2 34 C2.29 34 6.58 34 11 34 C10.70827329 40.70971441 8.15839404 45.7545569 4 51 C-3.60452925 57.525686 -10.30519213 58.56454899 -20.1640625 58.3359375 C-27.63962201 57.6812551 -32.79189135 54.59886554 -37.9375 49.25 C-45.0941692 40.10161626 -45.1459201 29.18926143 -44 18 C-42.52437612 11.29716612 -39.23271232 5.49200875 -34 1 C-23.45320343 -5.67828045 -10.9582006 -6.1665151 0 0 Z " fill="#FFFFFF" transform="translate(1032,274)"/>
<path d="M0 0 C2.8125 2.4375 2.8125 2.4375 5 5 C5.556875 5.5775 6.11375 6.155 6.6875 6.75 C8.75214719 10.28939518 9.23301846 13.98809657 10 18 C6.04 18 2.08 18 -2 18 C-2.5878125 16.63875 -2.5878125 16.63875 -3.1875 15.25 C-5.15145191 11.72843107 -6.53828749 10.04555739 -10 8 C-13.87902498 7.65973465 -17.28383968 7.8108287 -21 9 C-22.16448126 13.70241687 -22.16448126 13.70241687 -20.80957031 18.12744141 C-18.70076949 20.30964625 -17.25958915 20.88238635 -14.359375 21.7109375 C-13.45316406 21.98679687 -12.54695313 22.26265625 -11.61328125 22.546875 C-9.72092864 23.09418571 -7.82770988 23.63851146 -5.93359375 24.1796875 C0.05762686 26.01010285 4.87575035 28.12720387 9 33 C11.0077921 39.02337631 11.04953453 45.73946409 8.375 51.5 C2.79181469 57.37703717 -2.11624151 59.16482429 -10.0625 59.375 C-18.3486224 59.43395107 -24.39855177 57.41675858 -30.4375 51.6875 C-32.65741037 47.86925416 -35 43.50340384 -35 39 C-30.71 39 -26.42 39 -22 39 C-21.0234375 41.63671875 -21.0234375 41.63671875 -20.046875 44.2734375 C-18.66731103 46.54868853 -17.48508423 47.09876658 -15 48 C-12.7422059 48.31321939 -12.7422059 48.31321939 -10.4375 48.25 C-9.29087891 48.25773437 -9.29087891 48.25773437 -8.12109375 48.265625 C-5.70017238 48.1229561 -5.70017238 48.1229561 -3 46 C-1.89208479 43.07193839 -1.82469412 41.5284461 -2.8125 38.55078125 C-6.28246678 34.50455213 -10.84484436 33.85302771 -15.875 32.5 C-24.21066023 30.2403982 -29.04477166 28.43284251 -34 21 C-34.67396854 15.63959904 -34.92957636 9.91997909 -32.4375 5 C-24.81327861 -4.3836571 -10.35750036 -5.94553551 0 0 Z " fill="#FFFFFF" transform="translate(1400,273)"/>
<path d="M0 0 C2.8125 2.4375 2.8125 2.4375 5 5 C5.556875 5.5775 6.11375 6.155 6.6875 6.75 C8.75214719 10.28939518 9.23301846 13.98809657 10 18 C6.04 18 2.08 18 -2 18 C-2.5878125 16.63875 -2.5878125 16.63875 -3.1875 15.25 C-5.15145191 11.72843107 -6.53828749 10.04555739 -10 8 C-13.87902498 7.65973465 -17.28383968 7.8108287 -21 9 C-22.16448126 13.70241687 -22.16448126 13.70241687 -20.80957031 18.12744141 C-18.70076949 20.30964625 -17.25958915 20.88238635 -14.359375 21.7109375 C-13.45316406 21.98679687 -12.54695312 22.26265625 -11.61328125 22.546875 C-9.72092864 23.09418571 -7.82770988 23.63851146 -5.93359375 24.1796875 C0.05762686 26.01010285 4.87575035 28.12720387 9 33 C11.0077921 39.02337631 11.04953453 45.73946409 8.375 51.5 C2.79181469 57.37703717 -2.11624151 59.16482429 -10.0625 59.375 C-18.3486224 59.43395107 -24.39855177 57.41675858 -30.4375 51.6875 C-32.65741037 47.86925416 -35 43.50340384 -35 39 C-30.71 39 -26.42 39 -22 39 C-21.0234375 41.63671875 -21.0234375 41.63671875 -20.046875 44.2734375 C-18.66731103 46.54868853 -17.48508423 47.09876658 -15 48 C-12.7422059 48.31321939 -12.7422059 48.31321939 -10.4375 48.25 C-9.29087891 48.25773437 -9.29087891 48.25773437 -8.12109375 48.265625 C-5.70017238 48.1229561 -5.70017238 48.1229561 -3 46 C-1.89208479 43.07193839 -1.82469412 41.5284461 -2.8125 38.55078125 C-6.28246678 34.50455213 -10.84484436 33.85302771 -15.875 32.5 C-24.21066023 30.2403982 -29.04477166 28.43284251 -34 21 C-34.67396854 15.63959904 -34.92957636 9.91997909 -32.4375 5 C-24.81327861 -4.3836571 -10.35750036 -5.94553551 0 0 Z " fill="#FFFFFF" transform="translate(910,273)"/>
<path d="M0 0 C2.8125 2.4375 2.8125 2.4375 5 5 C5.556875 5.5775 6.11375 6.155 6.6875 6.75 C8.75214719 10.28939518 9.23301846 13.98809657 10 18 C6.04 18 2.08 18 -2 18 C-2.5878125 16.63875 -2.5878125 16.63875 -3.1875 15.25 C-5.15145191 11.72843107 -6.53828749 10.04555739 -10 8 C-13.87902498 7.65973465 -17.28383968 7.8108287 -21 9 C-22.16448126 13.70241687 -22.16448126 13.70241687 -20.80957031 18.12744141 C-18.70076949 20.30964625 -17.25958915 20.88238635 -14.359375 21.7109375 C-13.45316406 21.98679687 -12.54695313 22.26265625 -11.61328125 22.546875 C-9.72092864 23.09418571 -7.82770988 23.63851146 -5.93359375 24.1796875 C0.05762686 26.01010285 4.87575035 28.12720387 9 33 C11.0077921 39.02337631 11.04953453 45.73946409 8.375 51.5 C2.79181469 57.37703717 -2.11624151 59.16482429 -10.0625 59.375 C-18.3486224 59.43395107 -24.39855177 57.41675858 -30.4375 51.6875 C-32.65741037 47.86925416 -35 43.50340384 -35 39 C-30.71 39 -26.42 39 -22 39 C-21.0234375 41.63671875 -21.0234375 41.63671875 -20.046875 44.2734375 C-18.66731103 46.54868853 -17.48508423 47.09876658 -15 48 C-12.7422059 48.31321939 -12.7422059 48.31321939 -10.4375 48.25 C-9.29087891 48.25773437 -9.29087891 48.25773437 -8.12109375 48.265625 C-5.70017238 48.1229561 -5.70017238 48.1229561 -3 46 C-1.89208479 43.07193839 -1.82469412 41.5284461 -2.8125 38.55078125 C-6.28246678 34.50455213 -10.84484436 33.85302771 -15.875 32.5 C-24.21066023 30.2403982 -29.04477166 28.43284251 -34 21 C-34.67396854 15.63959904 -34.92957636 9.91997909 -32.4375 5 C-24.81327861 -4.3836571 -10.35750036 -5.94553551 0 0 Z " fill="#FFFFFF" transform="translate(501,273)"/>
<path d="M0 0 C0 3.63 0 7.26 0 11 C-2.1346875 11.4640625 -2.1346875 11.4640625 -4.3125 11.9375 C-7.36671138 12.91715271 -8.64763454 13.38662309 -10.265625 16.203125 C-11.19478029 18.96297362 -11.19478029 18.96297362 -12 23 C-8.04 23 -4.08 23 0 23 C0 26.63 0 30.26 0 34 C-3.96 34 -7.92 34 -12 34 C-12 50.5 -12 67 -12 84 C-15.96 84 -19.92 84 -24 84 C-24 67.5 -24 51 -24 34 C-26.64 34 -29.28 34 -32 34 C-32 30.37 -32 26.74 -32 23 C-29.36 23 -26.72 23 -24 23 C-24.03480469 22.34773438 -24.06960938 21.69546875 -24.10546875 21.0234375 C-24.27474902 15.55810297 -24.25485092 11.6197884 -21 7 C-14.19742004 0.16525654 -9.50944202 -0.11187579 0 0 Z " fill="#FFFFFF" transform="translate(484,378)"/>
<path d="M0 0 C4.29 0 8.58 0 13 0 C13 4.95 13 9.9 13 15 C17.29 15 21.58 15 26 15 C26 18.63 26 22.26 26 26 C21.71 26 17.42 26 13 26 C13.11828208 30.64494858 13.24253274 35.28968465 13.37231445 39.93432617 C13.41562305 41.51436015 13.45730106 43.09443969 13.49731445 44.67456055 C13.55511583 46.94594048 13.6187816 49.21709189 13.68359375 51.48828125 C13.70030624 52.19463211 13.71701874 52.90098297 13.73423767 53.6287384 C13.8259747 56.6664824 14.03207686 59.09623058 15 62 C18.63 62.66 22.26 63.32 26 64 C26 67.96 26 71.92 26 76 C18.56537911 76.27034985 12.09000928 75.888339 5.625 71.9375 C-1.7297609 63.70717233 -0.35745944 52.75799311 -0.1875 42.4375 C-0.17242639 40.84050741 -0.15874272 39.24350106 -0.14648438 37.64648438 C-0.11368925 33.76397876 -0.06205574 29.88214367 0 26 C-2.64 26 -5.28 26 -8 26 C-8 22.37 -8 18.74 -8 15 C-5.36 15 -2.72 15 0 15 C0 10.05 0 5.1 0 0 Z " fill="#FFFFFF" transform="translate(1424,256)"/>
<path d="M0 0 C4.29 0 8.58 0 13 0 C13 22.11 13 44.22 13 67 C21.25 67 29.5 67 38 67 C38 70.63 38 74.26 38 78 C25.46 78 12.92 78 0 78 C0 52.26 0 26.52 0 0 Z " fill="#FFFFFF" transform="translate(387,384)"/>
<path d="M0 0 C0 4.62 0 9.24 0 14 C-1.711875 14.268125 -3.42375 14.53625 -5.1875 14.8125 C-11.06642742 15.83958225 -11.06642742 15.83958225 -16 19 C-18.75623497 24.32618646 -19.46115268 28.61303646 -19.51171875 34.55859375 C-19.52966995 35.34774673 -19.54762115 36.13689972 -19.56611633 36.94996643 C-19.61986528 39.4457582 -19.65399965 41.94136272 -19.6875 44.4375 C-19.7207045 46.13999982 -19.75519702 47.84247504 -19.79101562 49.54492188 C-19.87557066 53.69647864 -19.94254912 57.8479833 -20 62 C-24.29 62 -28.58 62 -33 62 C-33 41.87 -33 21.74 -33 1 C-28.71 1 -24.42 1 -20 1 C-19.67 3.31 -19.34 5.62 -19 8 C-18.56429688 7.59007812 -18.12859375 7.18015625 -17.6796875 6.7578125 C-11.84845339 1.48193402 -8.07074386 0 0 0 Z " fill="#FFFFFF" transform="translate(1215,400)"/>
<path d="M0 0 C4.29 0 8.58 0 13 0 C13 27.06 13 54.12 13 82 C8.71 82 4.42 82 0 82 C0 54.94 0 27.88 0 0 Z " fill="#FFFFFF" transform="translate(1290,380)"/>
<path d="M0 0 C4.29 0 8.58 0 13 0 C13 27.06 13 54.12 13 82 C8.71 82 4.42 82 0 82 C0 54.94 0 27.88 0 0 Z " fill="#FFFFFF" transform="translate(1183,250)"/>
<path d="M0 0 C4.29 0 8.58 0 13 0 C13 27.06 13 54.12 13 82 C8.71 82 4.42 82 0 82 C0 54.94 0 27.88 0 0 Z " fill="#FFFFFF" transform="translate(609,250)"/>
<path d="M0 0 C4.29 0 8.58 0 13 0 C13 27.06 13 54.12 13 82 C8.71 82 4.42 82 0 82 C0 54.94 0 27.88 0 0 Z " fill="#FFFFFF" transform="translate(584,250)"/>
<path d="M0 0 C4.29 0 8.58 0 13 0 C13 20.13 13 40.26 13 61 C8.71 61 4.42 61 0 61 C0 40.87 0 20.74 0 0 Z " fill="#FFFFFF" transform="translate(941,401)"/>
<path d="M0 0 C4.29 0 8.58 0 13 0 C13 20.13 13 40.26 13 61 C8.71 61 4.42 61 0 61 C0 40.87 0 20.74 0 0 Z " fill="#FFFFFF" transform="translate(432,401)"/>
<path d="M0 0 C4.29 0 8.58 0 13 0 C13 20.13 13 40.26 13 61 C8.71 61 4.42 61 0 61 C0 40.87 0 20.74 0 0 Z " fill="#FFFFFF" transform="translate(1342,271)"/>
<path d="M0 0 C4.29 0 8.58 0 13 0 C13 20.13 13 40.26 13 61 C8.71 61 4.42 61 0 61 C0 40.87 0 20.74 0 0 Z " fill="#FFFFFF" transform="translate(635,271)"/>
<path d="M0 0 C1.80859375 0.66796875 1.80859375 0.66796875 3.87109375 2.79296875 C5.11566781 6.60966254 5.01453296 8.83733833 3.80859375 12.66796875 C1.18359375 14.73046875 1.18359375 14.73046875 -2.19140625 15.66796875 C-6.06345657 14.95809286 -8.39017182 14.46920318 -11.19140625 11.66796875 C-11.98048595 4.67897712 -11.98048595 4.67897712 -9.19140625 1.10546875 C-5.7197844 -0.55801672 -3.72910327 -0.7119838 0 0 Z " fill="#FFFFFF" transform="translate(951.19140625,376.33203125)"/>
<path d="M0 0 C1.80859375 0.66796875 1.80859375 0.66796875 3.87109375 2.79296875 C5.11566781 6.60966254 5.01453296 8.83733833 3.80859375 12.66796875 C1.18359375 14.73046875 1.18359375 14.73046875 -2.19140625 15.66796875 C-6.06345657 14.95809286 -8.39017182 14.46920318 -11.19140625 11.66796875 C-11.98048595 4.67897712 -11.98048595 4.67897712 -9.19140625 1.10546875 C-5.7197844 -0.55801672 -3.72910327 -0.7119838 0 0 Z " fill="#FFFFFF" transform="translate(442.19140625,376.33203125)"/>
<path d="M0 0 C1.80859375 0.66796875 1.80859375 0.66796875 3.87109375 2.79296875 C5.11566781 6.60966254 5.01453296 8.83733833 3.80859375 12.66796875 C1.18359375 14.73046875 1.18359375 14.73046875 -2.19140625 15.66796875 C-6.06345657 14.95809286 -8.39017182 14.46920318 -11.19140625 11.66796875 C-11.98048595 4.67897712 -11.98048595 4.67897712 -9.19140625 1.10546875 C-5.7197844 -0.55801672 -3.72910327 -0.7119838 0 0 Z " fill="#FFFFFF" transform="translate(1352.19140625,246.33203125)"/>
<path d="M0 0 C1.80859375 0.66796875 1.80859375 0.66796875 3.87109375 2.79296875 C5.11566781 6.60966254 5.01453296 8.83733833 3.80859375 12.66796875 C1.18359375 14.73046875 1.18359375 14.73046875 -2.19140625 15.66796875 C-6.06345657 14.95809286 -8.39017182 14.46920318 -11.19140625 11.66796875 C-11.98048595 4.67897712 -11.98048595 4.67897712 -9.19140625 1.10546875 C-5.7197844 -0.55801672 -3.72910327 -0.7119838 0 0 Z " fill="#FFFFFF" transform="translate(645.19140625,246.33203125)"/>
</svg>
