<?xml version="1.0" standalone="no"?>
<!DOCTYPE svg PUBLIC "-//W3C//DTD SVG 20010904//EN"
 "http://www.w3.org/TR/2001/REC-SVG-20010904/DTD/svg10.dtd">
<svg version="1.0" xmlns="http://www.w3.org/2000/svg"
 width="1667.000000pt" height="500.000000pt" viewBox="0 0 1667.000000 500.000000"
 preserveAspectRatio="xMidYMid meet">
<metadata>
Created by potrace 1.16, written by Peter Selinger 2001-2019
</metadata>
<g transform="translate(0.000000,500.000000) scale(0.100000,-0.100000)"
fill="#000000" stroke="none">
<path d="M8745 4598 c-77 -11 -159 -21 -183 -24 -76 -9 -69 -57 13 -83 29 -10
56 -27 69 -44 20 -28 21 -42 28 -530 7 -542 2 -818 -16 -843 -7 -8 -36 -23
-66 -33 -43 -14 -56 -23 -58 -41 -2 -12 0 -26 5 -31 10 -10 538 -14 553 -4 6
4 10 17 10 30 0 21 -8 27 -54 40 -86 25 -87 29 -96 222 -4 92 -7 168 -6 169 0
0 18 13 39 29 l37 28 54 -36 c71 -47 107 -119 137 -274 12 -62 33 -134 48
-163 l26 -51 198 0 c108 0 204 1 212 1 10 0 15 10 15 30 0 26 -4 30 -37 35
-68 10 -116 30 -134 55 -10 14 -37 90 -60 170 -58 204 -102 291 -184 368 l-65
61 96 100 c98 103 147 135 221 147 50 8 78 34 68 63 -6 21 -11 21 -258 19
-237 -3 -252 -4 -255 -22 -5 -24 10 -33 74 -46 92 -19 101 -51 41 -140 -34
-50 -194 -212 -244 -248 l-33 -23 0 545 0 546 -27 -2 c-16 0 -91 -10 -168 -20z"/>
<path d="M9810 4611 c-18 -5 -26 -15 -28 -34 -3 -24 2 -30 40 -47 66 -29 96
-66 109 -136 14 -72 5 -1095 -10 -1218 -13 -98 -27 -121 -88 -138 -43 -12 -48
-17 -51 -46 -3 -25 0 -32 15 -32 253 -3 529 2 536 9 12 12 5 42 -13 52 -8 5
-31 15 -52 23 -33 13 -37 19 -48 73 -18 85 -8 478 14 558 37 132 118 225 197
225 90 0 115 -47 130 -247 12 -152 5 -506 -12 -566 -10 -36 -48 -67 -83 -67
-19 0 -37 -32 -27 -48 11 -19 511 -18 523 0 19 30 5 51 -45 67 -71 24 -71 25
-78 401 -6 371 -11 402 -72 482 -49 64 -113 92 -217 96 -115 5 -179 -19 -265
-99 l-63 -59 -7 207 c-4 115 -5 286 -2 381 l7 172 -193 -1 c-105 -1 -203 -4
-217 -8z"/>
<path d="M12075 4604 c-33 -7 -123 -20 -200 -29 -77 -9 -146 -18 -152 -20 -7
-2 -13 -16 -13 -29 0 -21 7 -27 43 -36 79 -20 110 -35 131 -63 21 -28 21 -33
21 -687 0 -759 10 -689 -105 -712 -60 -12 -65 -15 -68 -40 -3 -25 0 -28 25
-28 288 -2 596 1 604 5 5 4 9 17 9 30 0 26 -9 30 -82 40 -73 11 -88 34 -98
152 -5 54 -9 398 -10 766 l0 667 -22 -1 c-13 -1 -50 -7 -83 -15z"/>
<path d="M7487 4318 c-114 -304 -213 -579 -309 -858 -62 -183 -119 -305 -165
-354 -14 -16 -55 -42 -90 -57 -52 -24 -63 -33 -63 -54 0 -13 4 -27 10 -30 16
-10 513 -6 523 4 5 5 7 21 3 35 -5 21 -14 27 -45 32 -60 10 -114 44 -135 88
-18 37 -18 41 -1 120 9 44 33 132 53 194 l36 112 223 0 222 0 15 -29 c31 -58
108 -308 113 -363 5 -53 4 -59 -24 -87 -17 -16 -43 -33 -59 -36 -60 -12 -79
-21 -82 -39 -2 -10 0 -22 5 -27 12 -12 724 -12 736 0 22 22 1 45 -57 62 -32
10 -72 30 -89 46 -45 43 -102 172 -257 588 -78 209 -191 505 -252 658 l-110
277 -47 0 -48 0 -106 -282z m218 -641 l7 -27 -187 0 c-174 0 -187 1 -180 18 6
15 141 392 168 465 9 26 17 10 98 -200 48 -126 91 -241 94 -256z"/>
<path d="M11226 4580 c-49 -31 -76 -86 -76 -153 0 -65 14 -98 58 -141 51 -47
142 -52 201 -9 36 26 71 99 71 148 0 54 -37 124 -79 152 -45 30 -133 32 -175
3z"/>
<path d="M2333 4534 c-10 -28 11 -48 77 -70 121 -42 147 -78 162 -226 14 -150
1 -1016 -17 -1076 -23 -76 -57 -102 -172 -132 -36 -9 -43 -15 -43 -35 0 -13 4
-26 10 -30 16 -10 543 -6 553 4 5 5 6 18 3 28 -4 14 -25 23 -78 36 -80 18
-112 43 -130 96 -8 25 -13 197 -15 566 l-4 530 177 -360 c97 -198 232 -477
301 -620 68 -143 131 -266 140 -272 27 -21 47 8 88 125 94 269 137 383 288
762 l162 405 3 -215 c1 -118 -1 -370 -6 -560 -9 -420 -7 -412 -116 -448 -39
-12 -73 -27 -77 -33 -9 -15 1 -49 15 -49 6 0 170 0 365 0 370 0 385 2 379 44
-3 20 -7 22 -105 42 -41 8 -92 63 -110 117 -14 45 -17 109 -21 446 -4 414 7
661 33 748 18 61 58 99 113 108 81 14 91 17 97 34 3 10 3 26 -1 35 -5 14 -36
16 -294 16 l-287 0 -43 -117 c-79 -216 -355 -900 -377 -937 -8 -13 -161 285
-355 692 l-173 362 -268 0 c-239 0 -268 -2 -274 -16z"/>
<path d="M4618 4011 c-73 -4 -132 -11 -138 -17 -7 -7 -10 -22 -8 -35 2 -18 13
-25 56 -35 64 -14 80 -28 93 -80 12 -51 24 -587 15 -686 -4 -42 -13 -84 -20
-93 -6 -9 -36 -22 -65 -28 -61 -14 -85 -38 -60 -62 13 -14 55 -16 294 -16 155
0 282 4 288 10 5 5 7 19 5 32 -3 21 -11 25 -66 35 -35 6 -68 16 -74 22 -20 20
-30 170 -25 372 7 252 24 324 93 393 41 41 62 32 116 -50 30 -46 56 -74 70
-78 68 -14 94 -9 136 29 37 34 37 35 37 114 0 71 -3 82 -29 116 -36 48 -79 66
-159 66 -109 0 -181 -47 -251 -164 l-36 -60 0 112 0 112 -72 -2 c-40 -1 -130
-4 -200 -7z"/>
<path d="M5720 4011 c-51 -16 -110 -52 -146 -88 -56 -56 -78 -114 -78 -208 -1
-149 50 -209 293 -346 166 -94 206 -128 217 -183 22 -119 -124 -188 -256 -121
-62 31 -102 80 -165 197 -42 77 -54 94 -76 96 -34 4 -35 -2 -29 -211 4 -132 8
-170 19 -177 21 -12 46 4 61 40 7 16 14 30 15 30 2 0 40 -19 85 -42 l82 -43
126 0 c120 0 130 2 180 28 182 96 253 321 152 480 -38 60 -74 85 -268 186
-182 95 -232 134 -232 185 0 56 59 96 142 96 108 0 193 -65 256 -194 36 -74
62 -95 86 -70 9 9 16 32 16 54 0 48 -19 239 -26 263 -8 26 -49 21 -62 -8 -6
-14 -16 -25 -21 -25 -5 0 -40 15 -77 33 -62 29 -79 32 -169 34 -55 1 -111 -1
-125 -6z"/>
<path d="M11210 4010 c-136 -9 -152 -14 -148 -48 3 -23 10 -28 53 -38 71 -16
82 -23 89 -47 13 -42 28 -473 22 -626 -6 -168 -14 -196 -64 -207 -96 -22 -102
-24 -102 -49 0 -13 4 -26 10 -30 12 -7 568 -7 580 0 6 4 10 17 10 30 0 20 -7
26 -42 35 -24 6 -51 13 -60 16 -10 3 -27 17 -38 31 -19 25 -20 39 -20 484 l0
459 -92 -2 c-51 0 -140 -4 -198 -8z"/>
<path d="M12472 3993 c-51 -10 -35 -58 23 -69 70 -13 69 -7 76 -393 4 -235 10
-359 19 -386 46 -149 125 -201 292 -193 82 3 100 8 155 37 34 19 85 55 113 82
l50 48 0 -80 c0 -68 2 -79 18 -79 164 -3 347 1 354 8 6 6 8 20 6 33 -2 17 -14
26 -53 38 -37 12 -51 22 -56 41 -4 14 -7 227 -8 474 l-1 449 -196 -5 c-127 -4
-200 -10 -207 -17 -21 -21 7 -45 62 -56 85 -16 83 -7 78 -340 -2 -178 -8 -304
-15 -325 -33 -102 -128 -190 -204 -190 -50 0 -84 23 -111 74 -21 39 -22 57
-28 446 -4 223 -7 406 -8 408 -2 4 -335 0 -359 -5z"/>
<path d="M6501 3258 c-101 -68 -101 -218 0 -286 29 -20 44 -23 96 -20 52 3 68
9 93 33 72 69 77 172 11 246 -36 41 -41 43 -102 47 -55 3 -69 0 -98 -20z"/>
<path d="M5970 2681 c-18 -5 -26 -15 -28 -34 -3 -24 2 -30 40 -47 66 -29 96
-66 109 -136 14 -72 5 -1095 -10 -1218 -13 -98 -27 -121 -88 -138 -43 -12 -48
-17 -51 -46 -3 -25 0 -32 15 -32 253 -3 529 2 536 9 12 12 5 42 -13 52 -8 5
-31 15 -52 23 -33 13 -37 19 -48 73 -18 85 -8 478 14 558 37 132 118 225 197
225 90 0 115 -47 130 -247 12 -152 5 -506 -12 -566 -10 -36 -48 -67 -83 -67
-19 0 -37 -32 -27 -48 11 -19 511 -18 523 0 19 30 5 51 -45 67 -71 24 -71 25
-78 401 -6 371 -11 402 -72 482 -49 64 -113 92 -217 96 -115 5 -179 -19 -265
-99 l-63 -59 -7 207 c-4 115 -5 286 -2 381 l7 172 -193 -1 c-105 -1 -203 -4
-217 -8z"/>
<path d="M4256 2573 c-12 -86 -36 -317 -36 -351 0 -25 5 -35 23 -41 35 -13 44
-4 88 80 56 107 115 171 195 210 61 30 74 33 193 37 l128 5 6 -24 c27 -111 34
-1178 8 -1262 -26 -81 -79 -118 -193 -132 -47 -6 -63 -21 -52 -50 4 -8 11 -16
18 -16 6 -1 191 -1 411 0 220 1 410 1 423 1 20 0 23 4 20 27 -3 30 1 28 -132
52 -105 19 -120 48 -137 262 -14 175 -18 1019 -6 1092 l8 47 93 0 c229 0 343
-64 439 -248 21 -39 45 -75 54 -80 22 -13 50 -4 56 17 2 10 -4 105 -14 212
-10 107 -18 197 -19 202 0 4 -353 7 -784 7 l-783 0 -7 -47z"/>
<path d="M7641 2075 c-84 -24 -163 -71 -229 -137 -106 -106 -152 -224 -152
-390 0 -107 13 -175 51 -254 55 -118 168 -214 297 -254 77 -24 240 -27 318 -6
170 45 319 197 377 381 30 99 30 244 -1 340 -44 135 -149 247 -281 301 -58 24
-82 28 -196 31 -94 2 -145 -1 -184 -12z m197 -89 c82 -43 141 -182 163 -382
24 -228 -30 -427 -132 -479 -36 -19 -102 -19 -137 -1 -91 47 -149 200 -159
416 -12 280 63 460 194 460 24 0 56 -6 71 -14z"/>
<path d="M8563 2081 c-51 -3 -97 -11 -104 -18 -22 -22 -5 -48 36 -56 62 -13
89 -30 108 -67 17 -32 18 -64 14 -395 -4 -392 -8 -421 -55 -431 -84 -17 -87
-19 -90 -52 -3 -25 0 -32 15 -32 338 -4 518 1 531 14 16 16 8 56 -11 56 -7 0
-29 5 -50 11 -61 17 -69 48 -69 269 1 217 20 367 58 449 44 97 100 141 178
141 109 0 134 -119 118 -555 -10 -271 -15 -286 -90 -308 -36 -11 -48 -19 -50
-37 -2 -12 0 -26 6 -32 5 -5 123 -9 267 -9 275 0 295 4 281 48 -5 14 -22 23
-61 32 -89 20 -90 25 -89 281 1 232 17 418 39 459 43 79 127 141 191 141 34 0
48 -6 72 -30 55 -54 57 -74 57 -445 0 -383 -1 -390 -62 -401 -21 -4 -46 -11
-55 -16 -19 -9 -25 -53 -8 -63 12 -8 508 -8 520 0 6 3 10 17 10 31 0 25 -17
37 -72 48 -59 13 -61 23 -62 404 -1 385 -5 410 -69 488 -49 59 -115 84 -223
84 -128 0 -230 -38 -316 -118 l-27 -25 -44 46 c-74 75 -115 92 -232 92 -89 0
-106 -3 -155 -27 -30 -15 -81 -50 -112 -78 l-57 -51 -5 33 c-3 18 -7 53 -8 78
l-3 45 -115 1 c-63 1 -156 -2 -207 -5z"/>
<path d="M10658 2075 c-67 -17 -133 -48 -166 -79 -37 -33 -52 -70 -52 -126 0
-44 5 -56 29 -81 18 -17 41 -29 58 -30 112 -5 141 21 178 153 9 35 24 63 37
73 34 23 110 20 143 -7 77 -61 72 -215 -11 -291 -16 -15 -85 -49 -154 -77
-167 -67 -223 -101 -264 -158 -46 -62 -60 -116 -54 -206 6 -90 38 -153 100
-194 34 -22 55 -28 119 -31 97 -4 157 15 238 74 l58 43 12 -38 c19 -65 49 -80
155 -80 141 0 280 34 291 71 10 30 -3 39 -59 39 -66 0 -83 17 -96 96 -6 33
-10 186 -10 341 0 168 -4 303 -11 334 -15 67 -61 118 -141 155 -58 26 -73 28
-203 31 -97 2 -158 -2 -197 -12z m280 -612 c-4 -99 -10 -149 -22 -178 -31 -72
-86 -115 -149 -115 -122 0 -148 238 -34 318 101 72 193 127 201 121 5 -4 6
-70 4 -146z"/>
<path d="M11750 2081 c-51 -16 -110 -52 -146 -88 -56 -56 -78 -114 -78 -208
-1 -149 50 -209 293 -346 166 -94 206 -128 217 -183 22 -119 -124 -188 -256
-121 -62 31 -102 80 -165 197 -42 77 -54 94 -76 96 -34 4 -35 -2 -29 -211 4
-132 8 -170 19 -177 21 -12 46 4 61 40 7 16 14 30 15 30 2 0 40 -19 85 -42
l82 -43 126 0 c120 0 130 2 180 28 182 96 253 321 152 480 -38 60 -74 85 -268
186 -182 95 -232 134 -232 185 0 56 59 96 142 96 108 0 193 -65 256 -194 36
-74 62 -95 86 -70 9 9 16 32 16 54 0 48 -19 239 -26 263 -8 26 -49 21 -62 -8
-6 -14 -16 -25 -21 -25 -5 0 -40 15 -77 33 -62 29 -79 32 -169 34 -55 1 -111
-1 -125 -6z"/>
<path d="M10275 786 c-54 -23 -83 -68 -90 -140 -6 -56 -10 -65 -29 -68 -17 -2
-22 -11 -24 -44 -3 -39 -1 -42 27 -47 l31 -6 0 -161 0 -160 50 0 50 0 0 166 0
166 45 -6 45 -7 0 50 0 51 -45 0 -45 0 0 41 c0 57 13 76 60 84 40 7 41 7 34
43 -4 21 -9 40 -11 45 -7 11 -65 7 -98 -7z"/>
<path d="M465 771 c-167 -76 -221 -357 -100 -522 87 -120 278 -135 383 -30 17
18 32 36 32 40 0 4 -13 22 -29 41 l-28 34 -34 -28 c-126 -107 -254 -43 -275
135 -14 117 48 229 134 244 46 7 91 -8 141 -50 l34 -29 18 23 c37 46 36 72 -4
106 -20 18 -54 37 -75 43 -58 18 -151 14 -197 -7z"/>
<path d="M4558 783 l-128 -4 0 -309 0 -310 55 0 54 0 3 78 3 77 115 5 c121 6
139 11 182 57 41 43 58 94 58 173 0 80 -14 121 -59 173 -50 56 -90 64 -283 60z
m161 -111 c82 -41 94 -172 22 -236 -24 -22 -108 -33 -166 -22 l-35 7 0 129 0
129 43 4 c88 8 103 7 136 -11z"/>
<path d="M5927 783 c-10 -3 -16 -11 -13 -18 2 -7 8 -147 12 -309 l7 -296 49 0
48 0 0 138 c0 131 1 140 23 159 25 23 60 43 77 43 6 0 22 -11 35 -25 24 -23
25 -28 25 -170 l0 -145 50 0 50 0 0 171 c0 187 -9 226 -56 248 -43 19 -117 14
-155 -12 -19 -13 -39 -26 -45 -30 -8 -4 -9 32 -6 123 l5 130 -44 -1 c-24 -1
-52 -3 -62 -6z"/>
<path d="M8934 771 c-57 -35 -78 -137 -49 -236 5 -16 -3 -27 -33 -50 -62 -47
-86 -88 -90 -160 -7 -111 44 -175 140 -175 59 0 87 11 131 50 l36 31 47 -36
c44 -34 50 -36 113 -33 l66 3 0 40 0 40 -51 8 c-35 5 -61 17 -84 38 l-33 30
29 30 c15 16 46 34 69 40 47 12 65 32 65 71 0 27 -2 28 -45 28 -57 0 -94 -19
-134 -67 l-32 -38 -18 24 c-11 14 -26 37 -35 52 -16 27 -16 28 16 47 114 71
148 180 77 248 -39 38 -137 46 -185 15z m42 -408 l47 -66 -28 -23 c-43 -34
-74 -39 -104 -16 -27 19 -37 57 -27 97 6 25 43 75 56 75 4 0 30 -30 56 -67z"/>
<path d="M11175 771 c-167 -76 -221 -357 -100 -522 87 -120 278 -135 383 -30
17 18 32 36 32 40 0 4 -13 22 -29 41 l-28 34 -34 -28 c-126 -107 -254 -43
-275 135 -14 117 48 229 134 244 46 7 91 -8 141 -50 l34 -29 18 23 c37 46 36
72 -4 106 -20 18 -54 37 -75 43 -58 18 -151 14 -197 -7z"/>
<path d="M12747 783 c-10 -3 -16 -11 -13 -18 2 -7 8 -147 12 -309 l7 -296 49
0 48 0 0 138 c0 131 1 140 23 159 25 23 60 43 77 43 6 0 22 -11 35 -25 24 -23
25 -28 25 -170 l0 -145 50 0 50 0 0 171 c0 187 -9 226 -56 248 -43 19 -117 14
-155 -12 -19 -13 -39 -26 -45 -30 -8 -4 -9 32 -6 123 l5 130 -44 -1 c-24 -1
-52 -3 -62 -6z"/>
<path d="M2790 470 l0 -310 57 0 56 0 -6 188 c-4 103 -7 242 -7 310 l0 122
-50 0 -50 0 0 -310z"/>
<path d="M2980 470 l0 -310 57 0 56 0 -6 188 c-4 103 -7 242 -7 310 l0 122
-50 0 -50 0 0 -310z"/>
<path d="M6800 470 l0 -310 57 0 56 0 -6 188 c-4 103 -7 242 -7 310 l0 122
-50 0 -50 0 0 -310z"/>
<path d="M9566 474 c-4 -169 -5 -308 -4 -309 2 -2 89 -4 193 -6 l190 -4 3 53
3 52 -138 -2 -138 -3 -3 263 -2 262 -49 0 -48 0 -7 -306z"/>
<path d="M14230 470 l0 -310 60 0 59 0 -6 129 -6 130 26 6 c50 13 60 3 117
-106 85 -164 80 -159 150 -159 76 0 76 7 9 106 -27 41 -64 105 -80 141 l-29
65 29 34 c43 48 76 110 100 183 30 91 30 91 -32 91 l-54 0 -34 -92 c-39 -106
-69 -142 -128 -158 -70 -19 -71 -17 -71 125 l0 125 -55 0 -55 0 0 -310z"/>
<path d="M15870 470 l0 -310 57 0 56 0 -6 188 c-4 103 -7 242 -7 310 l0 122
-50 0 -50 0 0 -310z"/>
<path d="M8290 656 c0 -70 -1 -75 -22 -78 -19 -2 -24 -10 -26 -45 -3 -40 -1
-43 22 -43 l26 0 0 -135 c0 -196 9 -209 145 -203 l70 3 3 49 3 49 -45 -6 c-69
-10 -76 2 -76 133 l0 108 60 -5 60 -6 0 51 0 51 -57 3 -58 3 3 66 c3 73 -2 79
-75 79 l-33 0 0 -74z"/>
<path d="M905 576 c-68 -30 -125 -122 -125 -201 0 -89 61 -187 133 -214 39
-15 111 -14 150 3 51 21 104 90 118 152 24 106 -29 223 -118 261 -41 16 -119
16 -158 -1z m113 -87 c93 -32 96 -191 5 -234 -69 -33 -143 25 -143 113 0 56
24 100 63 117 39 17 37 17 75 4z"/>
<path d="M1865 574 c-16 -9 -38 -23 -47 -31 -15 -14 -18 -13 -24 12 -7 26 -8
27 -58 20 -28 -3 -52 -8 -53 -9 -2 -2 1 -27 7 -56 5 -29 10 -120 10 -201 l0
-149 50 0 50 0 0 134 c0 74 3 142 6 151 7 17 74 55 99 55 8 0 24 -9 35 -20 18
-18 20 -33 20 -170 l0 -150 55 0 55 0 0 153 c-1 235 -15 268 -117 274 -40 2
-67 -2 -88 -13z"/>
<path d="M2195 580 c-57 -23 -92 -99 -74 -162 8 -31 20 -45 60 -69 27 -17 54
-39 59 -49 15 -28 -10 -51 -64 -57 -47 -6 -48 -6 -42 -36 3 -16 6 -36 6 -43 0
-19 82 -18 120 1 62 32 92 104 70 170 -8 25 -29 48 -66 76 -66 49 -68 70 -5
82 l43 9 -7 36 c-4 20 -9 40 -11 44 -7 10 -63 9 -89 -2z"/>
<path d="M2475 572 c-87 -54 -129 -155 -107 -259 22 -105 94 -162 205 -163 66
0 112 16 145 53 23 24 23 26 8 56 -9 17 -19 31 -21 31 -2 0 -22 -9 -44 -20
-57 -30 -100 -34 -140 -13 -33 17 -60 47 -51 57 3 2 57 9 120 16 63 7 123 16
133 21 12 7 17 22 17 55 0 69 -42 139 -102 170 -39 20 -127 18 -163 -4z"/>
<path d="M3505 574 c-16 -9 -38 -23 -47 -31 -15 -14 -18 -13 -24 12 -7 26 -8
27 -58 20 -28 -3 -52 -8 -53 -9 -2 -2 1 -27 7 -56 5 -29 10 -120 10 -201 l0
-149 50 0 50 0 0 134 c0 74 3 142 6 151 7 17 74 55 99 55 8 0 24 -9 35 -20 18
-18 20 -33 20 -170 l0 -150 55 0 55 0 0 153 c-1 235 -15 268 -117 274 -40 2
-67 -2 -88 -13z"/>
<path d="M3844 571 c-91 -55 -122 -212 -61 -303 52 -76 152 -102 225 -58 27
17 32 17 32 4 0 -69 -93 -91 -188 -46 -29 14 -34 14 -42 2 -6 -8 -10 -30 -10
-48 0 -30 5 -35 46 -54 63 -27 189 -23 231 8 59 43 67 79 71 300 l4 201 -23 6
c-13 4 -39 7 -56 7 -28 0 -33 -3 -33 -25 l0 -24 -36 24 c-46 31 -115 34 -160
6z m163 -106 c33 -33 35 -39 30 -82 -4 -37 -12 -54 -36 -75 -36 -32 -50 -34
-91 -13 -38 20 -50 43 -50 97 0 99 81 139 147 73z"/>
<path d="M5005 580 c-57 -23 -92 -99 -74 -162 8 -31 20 -45 60 -69 27 -17 54
-39 59 -49 15 -28 -10 -51 -64 -57 -47 -6 -48 -6 -42 -36 3 -16 6 -36 6 -43 0
-19 82 -18 120 1 62 32 92 104 70 170 -8 25 -29 48 -66 76 -66 49 -68 70 -5
82 l43 9 -7 36 c-4 20 -9 40 -11 44 -7 10 -63 9 -89 -2z"/>
<path d="M5177 584 c-4 -4 -7 -51 -7 -104 l0 -96 46 -70 c26 -38 55 -80 65
-93 38 -48 11 -99 -59 -108 -45 -6 -48 -12 -31 -62 10 -29 14 -31 63 -31 29 0
61 6 73 15 19 13 169 247 207 322 18 36 23 217 7 228 -6 3 -28 3 -50 -1 l-41
-7 0 -79 c0 -67 -4 -87 -29 -136 -54 -105 -51 -105 -104 -21 -46 71 -47 74
-47 156 0 64 -3 83 -14 83 -7 0 -26 3 -42 6 -16 3 -32 2 -37 -2z"/>
<path d="M5683 569 c-119 -59 -148 -241 -56 -349 20 -23 52 -49 70 -56 43 -18
115 -18 159 1 33 14 35 17 29 47 -10 47 -17 51 -62 38 -34 -11 -46 -10 -77 5
-131 62 -61 276 77 235 45 -13 54 -8 63 38 6 30 4 33 -29 47 -52 21 -124 19
-174 -6z"/>
<path d="M6465 576 c-68 -30 -125 -122 -125 -201 0 -89 61 -187 133 -214 39
-15 111 -14 150 3 51 21 104 90 118 152 24 106 -29 223 -118 261 -41 16 -119
16 -158 -1z m113 -87 c93 -32 96 -191 5 -234 -69 -33 -143 25 -143 113 0 56
24 100 63 117 39 17 37 17 75 4z"/>
<path d="M7075 576 c-68 -30 -125 -122 -125 -201 0 -89 61 -187 133 -214 39
-15 111 -14 150 3 51 21 104 90 118 152 24 106 -29 223 -118 261 -41 16 -119
16 -158 -1z m113 -87 c93 -32 96 -191 5 -234 -69 -33 -143 25 -143 113 0 56
24 100 63 117 39 17 37 17 75 4z"/>
<path d="M7474 571 c-91 -55 -122 -212 -61 -303 52 -76 152 -102 225 -58 27
17 32 17 32 4 0 -69 -93 -91 -188 -46 -29 14 -34 14 -42 2 -6 -8 -10 -30 -10
-48 0 -30 5 -35 46 -54 63 -27 189 -23 231 8 59 43 67 79 71 300 l4 201 -23 6
c-13 4 -39 7 -56 7 -28 0 -33 -3 -33 -25 l0 -24 -36 24 c-46 31 -115 34 -160
6z m163 -106 c33 -33 35 -39 30 -82 -4 -37 -12 -54 -36 -75 -36 -32 -50 -34
-91 -13 -38 20 -50 43 -50 97 0 99 81 139 147 73z"/>
<path d="M8085 580 c-57 -23 -92 -99 -74 -162 8 -31 20 -45 60 -69 27 -17 54
-39 59 -49 15 -28 -10 -51 -64 -57 -47 -6 -48 -6 -42 -36 3 -16 6 -36 6 -43 0
-19 82 -18 120 1 62 32 92 104 70 170 -8 25 -29 48 -66 76 -66 49 -68 70 -5
82 l43 9 -7 36 c-4 20 -9 40 -11 44 -7 10 -63 9 -89 -2z"/>
<path d="M10505 572 c-87 -54 -129 -155 -107 -259 22 -105 94 -162 205 -163
66 0 112 16 145 53 23 24 23 26 8 56 -9 17 -19 31 -21 31 -2 0 -22 -9 -44 -20
-57 -30 -100 -34 -140 -13 -33 17 -60 47 -51 57 3 2 57 9 120 16 63 7 123 16
133 21 12 7 17 22 17 55 0 69 -42 139 -102 170 -39 20 -127 18 -163 -4z"/>
<path d="M11625 576 c-68 -30 -125 -122 -125 -201 0 -89 61 -187 133 -214 39
-15 111 -14 150 3 51 21 104 90 118 152 24 106 -29 223 -118 261 -41 16 -119
16 -158 -1z m113 -87 c93 -32 96 -191 5 -234 -69 -33 -143 25 -143 113 0 56
24 100 63 117 39 17 37 17 75 4z"/>
<path d="M12027 569 c-76 -40 -120 -155 -98 -255 15 -65 57 -125 104 -147 63
-30 149 -17 186 27 19 23 31 20 31 -10 0 -24 2 -25 47 -22 l47 3 1 190 c0 105
3 197 5 205 4 12 -6 16 -42 18 -46 3 -48 2 -48 -23 l0 -25 -42 30 c-34 25 -50
30 -97 30 -36 -1 -70 -8 -94 -21z m178 -110 c27 -26 30 -36 30 -88 0 -49 -4
-64 -25 -86 -35 -38 -66 -48 -106 -35 -93 31 -100 190 -10 235 39 19 73 11
111 -26z"/>
<path d="M12503 569 c-119 -59 -148 -241 -56 -349 20 -23 52 -49 70 -56 43
-18 115 -18 159 1 33 14 35 17 29 47 -10 47 -17 51 -62 38 -34 -11 -46 -10
-77 5 -131 62 -61 276 77 235 45 -13 54 -8 63 38 6 30 4 33 -29 47 -52 21
-124 19 -174 -6z"/>
<path d="M13745 574 c-16 -9 -38 -23 -47 -31 -15 -14 -18 -13 -24 12 -7 26 -8
27 -58 20 -28 -3 -52 -8 -53 -9 -2 -2 1 -27 7 -56 5 -29 10 -120 10 -201 l0
-149 50 0 50 0 0 134 c0 74 3 142 6 151 7 17 74 55 99 55 8 0 24 -9 35 -20 18
-18 20 -33 20 -170 l0 -150 55 0 55 0 0 153 c-1 235 -15 268 -117 274 -40 2
-67 -2 -88 -13z"/>
<path d="M14815 572 c-87 -54 -129 -155 -107 -259 22 -105 94 -162 205 -163
66 0 112 16 145 53 23 24 23 26 8 56 -9 17 -19 31 -21 31 -2 0 -22 -9 -44 -20
-57 -30 -100 -34 -140 -13 -33 17 -60 47 -51 57 3 2 57 9 120 16 63 7 123 16
133 21 12 7 17 22 17 55 0 69 -42 139 -102 170 -39 20 -127 18 -163 -4z"/>
<path d="M15127 583 c-14 -4 -17 -10 -12 -26 4 -12 10 -106 12 -209 l5 -188
48 0 49 0 3 145 c2 101 7 148 16 157 7 7 34 13 60 13 26 -1 50 4 54 10 4 5 8
29 8 53 l0 42 -44 0 c-28 0 -52 -7 -69 -20 -32 -25 -35 -25 -39 3 -2 18 -10
22 -38 24 -19 0 -43 -1 -53 -4z"/>
<path d="M15487 569 c-76 -40 -120 -155 -98 -255 15 -65 57 -125 104 -147 63
-30 149 -17 186 27 19 23 31 20 31 -10 0 -24 2 -25 47 -22 l47 3 1 190 c0 105
3 197 5 205 4 12 -6 16 -42 18 -46 3 -48 2 -48 -23 l0 -25 -42 30 c-34 25 -50
30 -97 30 -36 -1 -70 -8 -94 -21z m178 -110 c27 -26 30 -36 30 -88 0 -49 -4
-64 -25 -86 -35 -38 -66 -48 -106 -35 -93 31 -100 190 -10 235 39 19 73 11
111 -26z"/>
<path d="M16137 569 c-76 -40 -120 -155 -98 -255 15 -65 57 -125 104 -147 63
-30 149 -17 186 27 19 23 31 20 31 -10 0 -24 2 -25 47 -22 l47 3 1 190 c0 105
3 197 5 205 4 12 -6 16 -42 18 -46 3 -48 2 -48 -23 l0 -25 -42 30 c-34 25 -50
30 -97 30 -36 -1 -70 -8 -94 -21z m178 -110 c27 -26 30 -36 30 -88 0 -49 -4
-64 -25 -86 -35 -38 -66 -48 -106 -35 -93 31 -100 190 -10 235 39 19 73 11
111 -26z"/>
<path d="M1245 536 c-4 -25 -5 -102 -3 -173 4 -139 14 -169 64 -191 55 -26
149 -9 183 32 20 24 31 19 31 -15 0 -30 0 -30 51 -27 l51 3 2 208 2 207 -53 0
-53 0 0 -129 0 -129 -30 -31 c-38 -38 -64 -46 -100 -31 -44 18 -54 62 -47 202
l7 118 -49 0 -50 0 -6 -44z"/>
<path d="M3160 370 l0 -210 57 0 56 0 -6 97 c-4 54 -7 149 -7 211 l0 112 -50
0 -50 0 0 -210z"/>
<path d="M7840 370 l0 -210 57 0 56 0 -6 97 c-4 54 -7 149 -7 211 l0 112 -50
0 -50 0 0 -210z"/>
<path d="M9990 370 l0 -210 57 0 56 0 -6 97 c-4 54 -7 149 -7 211 l0 112 -50
0 -50 0 0 -210z"/>
<path d="M13400 370 l0 -210 57 0 56 0 -6 97 c-4 54 -7 149 -7 211 l0 112 -50
0 -50 0 0 -210z"/>
</g>
</svg>
