<?xml version="1.0" standalone="no"?>
<!DOCTYPE svg PUBLIC "-//W3C//DTD SVG 20010904//EN"
 "http://www.w3.org/TR/2001/REC-SVG-20010904/DTD/svg10.dtd">
<svg version="1.0" xmlns="http://www.w3.org/2000/svg"
 width="1667.000000pt" height="500.000000pt" viewBox="0 0 1667.000000 500.000000"
 preserveAspectRatio="xMidYMid meet">
<metadata>
Created by potrace 1.16, written by Peter Selinger 2001-2019
</metadata>
<g transform="translate(0.000000,500.000000) scale(0.100000,-0.100000)"
fill="#000000" stroke="none">
<path d="M10275 786 c-54 -23 -83 -68 -90 -140 -6 -56 -10 -65 -29 -68 -17 -2
-22 -11 -24 -44 -3 -39 -1 -42 27 -47 l31 -6 0 -161 0 -160 50 0 50 0 0 166 0
166 45 -6 45 -7 0 50 0 51 -45 0 -45 0 0 41 c0 57 13 76 60 84 40 7 41 7 34
43 -4 21 -9 40 -11 45 -7 11 -65 7 -98 -7z"/>
<path d="M465 771 c-167 -76 -221 -357 -100 -522 87 -120 278 -135 383 -30 17
18 32 36 32 40 0 4 -13 22 -29 41 l-28 34 -34 -28 c-126 -107 -254 -43 -275
135 -14 117 48 229 134 244 46 7 91 -8 141 -50 l34 -29 18 23 c37 46 36 72 -4
106 -20 18 -54 37 -75 43 -58 18 -151 14 -197 -7z"/>
<path d="M4558 783 l-128 -4 0 -309 0 -310 55 0 54 0 3 78 3 77 115 5 c121 6
139 11 182 57 41 43 58 94 58 173 0 80 -14 121 -59 173 -50 56 -90 64 -283 60z
m161 -111 c82 -41 94 -172 22 -236 -24 -22 -108 -33 -166 -22 l-35 7 0 129 0
129 43 4 c88 8 103 7 136 -11z"/>
<path d="M5927 783 c-10 -3 -16 -11 -13 -18 2 -7 8 -147 12 -309 l7 -296 49 0
48 0 0 138 c0 131 1 140 23 159 25 23 60 43 77 43 6 0 22 -11 35 -25 24 -23
25 -28 25 -170 l0 -145 50 0 50 0 0 171 c0 187 -9 226 -56 248 -43 19 -117 14
-155 -12 -19 -13 -39 -26 -45 -30 -8 -4 -9 32 -6 123 l5 130 -44 -1 c-24 -1
-52 -3 -62 -6z"/>
<path d="M8934 771 c-57 -35 -78 -137 -49 -236 5 -16 -3 -27 -33 -50 -62 -47
-86 -88 -90 -160 -7 -111 44 -175 140 -175 59 0 87 11 131 50 l36 31 47 -36
c44 -34 50 -36 113 -33 l66 3 0 40 0 40 -51 8 c-35 5 -61 17 -84 38 l-33 30
29 30 c15 16 46 34 69 40 47 12 65 32 65 71 0 27 -2 28 -45 28 -57 0 -94 -19
-134 -67 l-32 -38 -18 24 c-11 14 -26 37 -35 52 -16 27 -16 28 16 47 114 71
148 180 77 248 -39 38 -137 46 -185 15z m42 -408 l47 -66 -28 -23 c-43 -34
-74 -39 -104 -16 -27 19 -37 57 -27 97 6 25 43 75 56 75 4 0 30 -30 56 -67z"/>
<path d="M11175 771 c-167 -76 -221 -357 -100 -522 87 -120 278 -135 383 -30
17 18 32 36 32 40 0 4 -13 22 -29 41 l-28 34 -34 -28 c-126 -107 -254 -43
-275 135 -14 117 48 229 134 244 46 7 91 -8 141 -50 l34 -29 18 23 c37 46 36
72 -4 106 -20 18 -54 37 -75 43 -58 18 -151 14 -197 -7z"/>
<path d="M12747 783 c-10 -3 -16 -11 -13 -18 2 -7 8 -147 12 -309 l7 -296 49
0 48 0 0 138 c0 131 1 140 23 159 25 23 60 43 77 43 6 0 22 -11 35 -25 24 -23
25 -28 25 -170 l0 -145 50 0 50 0 0 171 c0 187 -9 226 -56 248 -43 19 -117 14
-155 -12 -19 -13 -39 -26 -45 -30 -8 -4 -9 32 -6 123 l5 130 -44 -1 c-24 -1
-52 -3 -62 -6z"/>
<path d="M2790 470 l0 -310 57 0 56 0 -6 188 c-4 103 -7 242 -7 310 l0 122
-50 0 -50 0 0 -310z"/>
<path d="M2980 470 l0 -310 57 0 56 0 -6 188 c-4 103 -7 242 -7 310 l0 122
-50 0 -50 0 0 -310z"/>
<path d="M6800 470 l0 -310 57 0 56 0 -6 188 c-4 103 -7 242 -7 310 l0 122
-50 0 -50 0 0 -310z"/>
<path d="M9566 474 c-4 -169 -5 -308 -4 -309 2 -2 89 -4 193 -6 l190 -4 3 53
3 52 -138 -2 -138 -3 -3 263 -2 262 -49 0 -48 0 -7 -306z"/>
<path d="M14230 470 l0 -310 60 0 59 0 -6 129 -6 130 26 6 c50 13 60 3 117
-106 85 -164 80 -159 150 -159 76 0 76 7 9 106 -27 41 -64 105 -80 141 l-29
65 29 34 c43 48 76 110 100 183 30 91 30 91 -32 91 l-54 0 -34 -92 c-39 -106
-69 -142 -128 -158 -70 -19 -71 -17 -71 125 l0 125 -55 0 -55 0 0 -310z"/>
<path d="M15870 470 l0 -310 57 0 56 0 -6 188 c-4 103 -7 242 -7 310 l0 122
-50 0 -50 0 0 -310z"/>
<path d="M8290 656 c0 -70 -1 -75 -22 -78 -19 -2 -24 -10 -26 -45 -3 -40 -1
-43 22 -43 l26 0 0 -135 c0 -196 9 -209 145 -203 l70 3 3 49 3 49 -45 -6 c-69
-10 -76 2 -76 133 l0 108 60 -5 60 -6 0 51 0 51 -57 3 -58 3 3 66 c3 73 -2 79
-75 79 l-33 0 0 -74z"/>
<path d="M905 576 c-68 -30 -125 -122 -125 -201 0 -89 61 -187 133 -214 39
-15 111 -14 150 3 51 21 104 90 118 152 24 106 -29 223 -118 261 -41 16 -119
16 -158 -1z m113 -87 c93 -32 96 -191 5 -234 -69 -33 -143 25 -143 113 0 56
24 100 63 117 39 17 37 17 75 4z"/>
<path d="M1865 574 c-16 -9 -38 -23 -47 -31 -15 -14 -18 -13 -24 12 -7 26 -8
27 -58 20 -28 -3 -52 -8 -53 -9 -2 -2 1 -27 7 -56 5 -29 10 -120 10 -201 l0
-149 50 0 50 0 0 134 c0 74 3 142 6 151 7 17 74 55 99 55 8 0 24 -9 35 -20 18
-18 20 -33 20 -170 l0 -150 55 0 55 0 0 153 c-1 235 -15 268 -117 274 -40 2
-67 -2 -88 -13z"/>
<path d="M2195 580 c-57 -23 -92 -99 -74 -162 8 -31 20 -45 60 -69 27 -17 54
-39 59 -49 15 -28 -10 -51 -64 -57 -47 -6 -48 -6 -42 -36 3 -16 6 -36 6 -43 0
-19 82 -18 120 1 62 32 92 104 70 170 -8 25 -29 48 -66 76 -66 49 -68 70 -5
82 l43 9 -7 36 c-4 20 -9 40 -11 44 -7 10 -63 9 -89 -2z"/>
<path d="M2475 572 c-87 -54 -129 -155 -107 -259 22 -105 94 -162 205 -163 66
0 112 16 145 53 23 24 23 26 8 56 -9 17 -19 31 -21 31 -2 0 -22 -9 -44 -20
-57 -30 -100 -34 -140 -13 -33 17 -60 47 -51 57 3 2 57 9 120 16 63 7 123 16
133 21 12 7 17 22 17 55 0 69 -42 139 -102 170 -39 20 -127 18 -163 -4z"/>
<path d="M3505 574 c-16 -9 -38 -23 -47 -31 -15 -14 -18 -13 -24 12 -7 26 -8
27 -58 20 -28 -3 -52 -8 -53 -9 -2 -2 1 -27 7 -56 5 -29 10 -120 10 -201 l0
-149 50 0 50 0 0 134 c0 74 3 142 6 151 7 17 74 55 99 55 8 0 24 -9 35 -20 18
-18 20 -33 20 -170 l0 -150 55 0 55 0 0 153 c-1 235 -15 268 -117 274 -40 2
-67 -2 -88 -13z"/>
<path d="M3844 571 c-91 -55 -122 -212 -61 -303 52 -76 152 -102 225 -58 27
17 32 17 32 4 0 -69 -93 -91 -188 -46 -29 14 -34 14 -42 2 -6 -8 -10 -30 -10
-48 0 -30 5 -35 46 -54 63 -27 189 -23 231 8 59 43 67 79 71 300 l4 201 -23 6
c-13 4 -39 7 -56 7 -28 0 -33 -3 -33 -25 l0 -24 -36 24 c-46 31 -115 34 -160
6z m163 -106 c33 -33 35 -39 30 -82 -4 -37 -12 -54 -36 -75 -36 -32 -50 -34
-91 -13 -38 20 -50 43 -50 97 0 99 81 139 147 73z"/>
<path d="M5005 580 c-57 -23 -92 -99 -74 -162 8 -31 20 -45 60 -69 27 -17 54
-39 59 -49 15 -28 -10 -51 -64 -57 -47 -6 -48 -6 -42 -36 3 -16 6 -36 6 -43 0
-19 82 -18 120 1 62 32 92 104 70 170 -8 25 -29 48 -66 76 -66 49 -68 70 -5
82 l43 9 -7 36 c-4 20 -9 40 -11 44 -7 10 -63 9 -89 -2z"/>
<path d="M5177 584 c-4 -4 -7 -51 -7 -104 l0 -96 46 -70 c26 -38 55 -80 65
-93 38 -48 11 -99 -59 -108 -45 -6 -48 -12 -31 -62 10 -29 14 -31 63 -31 29 0
61 6 73 15 19 13 169 247 207 322 18 36 23 217 7 228 -6 3 -28 3 -50 -1 l-41
-7 0 -79 c0 -67 -4 -87 -29 -136 -54 -105 -51 -105 -104 -21 -46 71 -47 74
-47 156 0 64 -3 83 -14 83 -7 0 -26 3 -42 6 -16 3 -32 2 -37 -2z"/>
<path d="M5683 569 c-119 -59 -148 -241 -56 -349 20 -23 52 -49 70 -56 43 -18
115 -18 159 1 33 14 35 17 29 47 -10 47 -17 51 -62 38 -34 -11 -46 -10 -77 5
-131 62 -61 276 77 235 45 -13 54 -8 63 38 6 30 4 33 -29 47 -52 21 -124 19
-174 -6z"/>
<path d="M6465 576 c-68 -30 -125 -122 -125 -201 0 -89 61 -187 133 -214 39
-15 111 -14 150 3 51 21 104 90 118 152 24 106 -29 223 -118 261 -41 16 -119
16 -158 -1z m113 -87 c93 -32 96 -191 5 -234 -69 -33 -143 25 -143 113 0 56
24 100 63 117 39 17 37 17 75 4z"/>
<path d="M7075 576 c-68 -30 -125 -122 -125 -201 0 -89 61 -187 133 -214 39
-15 111 -14 150 3 51 21 104 90 118 152 24 106 -29 223 -118 261 -41 16 -119
16 -158 -1z m113 -87 c93 -32 96 -191 5 -234 -69 -33 -143 25 -143 113 0 56
24 100 63 117 39 17 37 17 75 4z"/>
<path d="M7474 571 c-91 -55 -122 -212 -61 -303 52 -76 152 -102 225 -58 27
17 32 17 32 4 0 -69 -93 -91 -188 -46 -29 14 -34 14 -42 2 -6 -8 -10 -30 -10
-48 0 -30 5 -35 46 -54 63 -27 189 -23 231 8 59 43 67 79 71 300 l4 201 -23 6
c-13 4 -39 7 -56 7 -28 0 -33 -3 -33 -25 l0 -24 -36 24 c-46 31 -115 34 -160
6z m163 -106 c33 -33 35 -39 30 -82 -4 -37 -12 -54 -36 -75 -36 -32 -50 -34
-91 -13 -38 20 -50 43 -50 97 0 99 81 139 147 73z"/>
<path d="M8085 580 c-57 -23 -92 -99 -74 -162 8 -31 20 -45 60 -69 27 -17 54
-39 59 -49 15 -28 -10 -51 -64 -57 -47 -6 -48 -6 -42 -36 3 -16 6 -36 6 -43 0
-19 82 -18 120 1 62 32 92 104 70 170 -8 25 -29 48 -66 76 -66 49 -68 70 -5
82 l43 9 -7 36 c-4 20 -9 40 -11 44 -7 10 -63 9 -89 -2z"/>
<path d="M10505 572 c-87 -54 -129 -155 -107 -259 22 -105 94 -162 205 -163
66 0 112 16 145 53 23 24 23 26 8 56 -9 17 -19 31 -21 31 -2 0 -22 -9 -44 -20
-57 -30 -100 -34 -140 -13 -33 17 -60 47 -51 57 3 2 57 9 120 16 63 7 123 16
133 21 12 7 17 22 17 55 0 69 -42 139 -102 170 -39 20 -127 18 -163 -4z"/>
<path d="M11625 576 c-68 -30 -125 -122 -125 -201 0 -89 61 -187 133 -214 39
-15 111 -14 150 3 51 21 104 90 118 152 24 106 -29 223 -118 261 -41 16 -119
16 -158 -1z m113 -87 c93 -32 96 -191 5 -234 -69 -33 -143 25 -143 113 0 56
24 100 63 117 39 17 37 17 75 4z"/>
<path d="M12027 569 c-76 -40 -120 -155 -98 -255 15 -65 57 -125 104 -147 63
-30 149 -17 186 27 19 23 31 20 31 -10 0 -24 2 -25 47 -22 l47 3 1 190 c0 105
3 197 5 205 4 12 -6 16 -42 18 -46 3 -48 2 -48 -23 l0 -25 -42 30 c-34 25 -50
30 -97 30 -36 -1 -70 -8 -94 -21z m178 -110 c27 -26 30 -36 30 -88 0 -49 -4
-64 -25 -86 -35 -38 -66 -48 -106 -35 -93 31 -100 190 -10 235 39 19 73 11
111 -26z"/>
<path d="M12503 569 c-119 -59 -148 -241 -56 -349 20 -23 52 -49 70 -56 43
-18 115 -18 159 1 33 14 35 17 29 47 -10 47 -17 51 -62 38 -34 -11 -46 -10
-77 5 -131 62 -61 276 77 235 45 -13 54 -8 63 38 6 30 4 33 -29 47 -52 21
-124 19 -174 -6z"/>
<path d="M13745 574 c-16 -9 -38 -23 -47 -31 -15 -14 -18 -13 -24 12 -7 26 -8
27 -58 20 -28 -3 -52 -8 -53 -9 -2 -2 1 -27 7 -56 5 -29 10 -120 10 -201 l0
-149 50 0 50 0 0 134 c0 74 3 142 6 151 7 17 74 55 99 55 8 0 24 -9 35 -20 18
-18 20 -33 20 -170 l0 -150 55 0 55 0 0 153 c-1 235 -15 268 -117 274 -40 2
-67 -2 -88 -13z"/>
<path d="M14815 572 c-87 -54 -129 -155 -107 -259 22 -105 94 -162 205 -163
66 0 112 16 145 53 23 24 23 26 8 56 -9 17 -19 31 -21 31 -2 0 -22 -9 -44 -20
-57 -30 -100 -34 -140 -13 -33 17 -60 47 -51 57 3 2 57 9 120 16 63 7 123 16
133 21 12 7 17 22 17 55 0 69 -42 139 -102 170 -39 20 -127 18 -163 -4z"/>
<path d="M15127 583 c-14 -4 -17 -10 -12 -26 4 -12 10 -106 12 -209 l5 -188
48 0 49 0 3 145 c2 101 7 148 16 157 7 7 34 13 60 13 26 -1 50 4 54 10 4 5 8
29 8 53 l0 42 -44 0 c-28 0 -52 -7 -69 -20 -32 -25 -35 -25 -39 3 -2 18 -10
22 -38 24 -19 0 -43 -1 -53 -4z"/>
<path d="M15487 569 c-76 -40 -120 -155 -98 -255 15 -65 57 -125 104 -147 63
-30 149 -17 186 27 19 23 31 20 31 -10 0 -24 2 -25 47 -22 l47 3 1 190 c0 105
3 197 5 205 4 12 -6 16 -42 18 -46 3 -48 2 -48 -23 l0 -25 -42 30 c-34 25 -50
30 -97 30 -36 -1 -70 -8 -94 -21z m178 -110 c27 -26 30 -36 30 -88 0 -49 -4
-64 -25 -86 -35 -38 -66 -48 -106 -35 -93 31 -100 190 -10 235 39 19 73 11
111 -26z"/>
<path d="M16137 569 c-76 -40 -120 -155 -98 -255 15 -65 57 -125 104 -147 63
-30 149 -17 186 27 19 23 31 20 31 -10 0 -24 2 -25 47 -22 l47 3 1 190 c0 105
3 197 5 205 4 12 -6 16 -42 18 -46 3 -48 2 -48 -23 l0 -25 -42 30 c-34 25 -50
30 -97 30 -36 -1 -70 -8 -94 -21z m178 -110 c27 -26 30 -36 30 -88 0 -49 -4
-64 -25 -86 -35 -38 -66 -48 -106 -35 -93 31 -100 190 -10 235 39 19 73 11
111 -26z"/>
<path d="M1245 536 c-4 -25 -5 -102 -3 -173 4 -139 14 -169 64 -191 55 -26
149 -9 183 32 20 24 31 19 31 -15 0 -30 0 -30 51 -27 l51 3 2 208 2 207 -53 0
-53 0 0 -129 0 -129 -30 -31 c-38 -38 -64 -46 -100 -31 -44 18 -54 62 -47 202
l7 118 -49 0 -50 0 -6 -44z"/>
<path d="M3160 370 l0 -210 57 0 56 0 -6 97 c-4 54 -7 149 -7 211 l0 112 -50
0 -50 0 0 -210z"/>
<path d="M7840 370 l0 -210 57 0 56 0 -6 97 c-4 54 -7 149 -7 211 l0 112 -50
0 -50 0 0 -210z"/>
<path d="M9990 370 l0 -210 57 0 56 0 -6 97 c-4 54 -7 149 -7 211 l0 112 -50
0 -50 0 0 -210z"/>
<path d="M13400 370 l0 -210 57 0 56 0 -6 97 c-4 54 -7 149 -7 211 l0 112 -50
0 -50 0 0 -210z"/>
</g>
</svg>
