<?xml version="1.0" encoding="UTF-8"?>
<svg version="1.1" xmlns="http://www.w3.org/2000/svg" width="500" height="88">
<path d="M0 0 C4.62 0 9.24 0 14 0 C19.22321429 12.05357143 19.22321429 12.05357143 20 18 C20.66 18 21.32 18 22 18 C22.09796875 17.45472656 22.1959375 16.90945312 22.296875 16.34765625 C23.46804835 10.4413079 25.41167776 5.43547671 28 0 C32.62 0 37.24 0 42 0 C42 11.22 42 22.44 42 34 C38.04 34 34.08 34 30 34 C29.67 31.36 29.34 28.72 29 26 C28.01 28.64 27.02 31.28 26 34 C22.7 34 19.4 34 16 34 C13.125 26.375 13.125 26.375 12 23 C11.67 26.63 11.34 30.26 11 34 C7.37 34 3.74 34 0 34 C0 22.78 0 11.56 0 0 Z " fill="#031B4E" transform="translate(5,10)"/>
<path d="M0 0 C3.63 0 7.26 0 11 0 C11.33 0.66 11.66 1.32 12 2 C12.804375 1.505 12.804375 1.505 13.625 1 C16.65665399 -0.27648589 18.73102046 -0.33356934 22 0 C22.86625 0.53625 23.7325 1.0725 24.625 1.625 C25.40875 2.07875 26.1925 2.5325 27 3 C28.35358863 2.37548416 29.685 1.70213761 31 1 C35.23184576 -0.00686134 38.78078526 -0.47708403 42.875 1.125 C45.92408136 3.81536591 47.80151265 6.10829407 48.23925781 10.28027344 C48.29505717 12.96371512 48.26144706 15.62954892 48.1875 18.3125 C48.16719727 19.70952148 48.16719727 19.70952148 48.14648438 21.13476562 C48.1112742 23.42342712 48.05747134 25.71178929 48 28 C44.37 28 40.74 28 37 28 C36.67 22.39 36.34 16.78 36 11 C34.35 11.33 32.7 11.66 31 12 C30.67 17.28 30.34 22.56 30 28 C26.04 28 22.08 28 18 28 C18 22.39 18 16.78 18 11 C16.02 11 14.04 11 12 11 C11.67 16.61 11.34 22.22 11 28 C7.37 28 3.74 28 0 28 C0 18.76 0 9.52 0 0 Z " fill="#031B4E" transform="translate(385,16)"/>
<path d="M0 0 C4.62 0 9.24 0 14 0 C17.96 11.22 21.92 22.44 26 34 C21.71 34 17.42 34 13 34 C12.505 31.525 12.505 31.525 12 29 C8.37 29 4.74 29 1 29 C0.505 31.475 0.505 31.475 0 34 C-3.96 34 -7.92 34 -12 34 C-11.17752548 29.88762742 -10.1521913 26.34778878 -8.75 22.421875 C-8.3065625 21.17921875 -7.863125 19.9365625 -7.40625 18.65625 C-7.17550781 18.01558594 -6.94476563 17.37492187 -6.70703125 16.71484375 C-5.99779515 14.74387271 -5.29541484 12.77055237 -4.59375 10.796875 C-1.12966721 1.12966721 -1.12966721 1.12966721 0 0 Z M6 13 C5.34 15.31 4.68 17.62 4 20 C5.65 20 7.3 20 9 20 C8.34 17.69 7.68 15.38 7 13 C6.67 13 6.34 13 6 13 Z " fill="#031B4E" transform="translate(125,10)"/>
<path d="M0 0 C3.63 0 7.26 0 11 0 C11.33 3.63 11.66 7.26 12 11 C12.66 10.484375 13.32 9.96875 14 9.4375 C17.94322448 7.54803827 20.87593269 7.56779252 25 9 C28.08070061 12.00170829 29.87450162 14.69541787 30.11352539 19.0847168 C30.10828857 19.86500244 30.10305176 20.64528809 30.09765625 21.44921875 C30.09443359 22.29677734 30.09121094 23.14433594 30.08789062 24.01757812 C30.07951172 24.89865234 30.07113281 25.77972656 30.0625 26.6875 C30.05798828 27.58017578 30.05347656 28.47285156 30.04882812 29.39257812 C30.03705004 31.59508073 30.01911481 33.79754885 30 36 C26.04 36 22.08 36 18 36 C17.67 30.39 17.34 24.78 17 19 C15.68 19 14.36 19 13 19 C11.47893366 22.04213267 11.62570662 25.28047572 11.4375 28.625 C11.39431641 29.33140625 11.35113281 30.0378125 11.30664062 30.765625 C11.20055249 32.51018537 11.09977111 34.25506697 11 36 C7.37 36 3.74 36 0 36 C0 24.12 0 12.24 0 0 Z " fill="#031B4E" transform="translate(320,8)"/>
<path d="M0 0 C3.63 0 7.26 0 11 0 C11.33 3.63 11.66 7.26 12 11 C12.66 10.484375 13.32 9.96875 14 9.4375 C17.94322448 7.54803827 20.87593269 7.56779252 25 9 C28.08070061 12.00170829 29.87450162 14.69541787 30.11352539 19.0847168 C30.10828857 19.86500244 30.10305176 20.64528809 30.09765625 21.44921875 C30.09443359 22.29677734 30.09121094 23.14433594 30.08789062 24.01757812 C30.07951172 24.89865234 30.07113281 25.77972656 30.0625 26.6875 C30.05798828 27.58017578 30.05347656 28.47285156 30.04882812 29.39257812 C30.03705004 31.59508073 30.01911481 33.79754885 30 36 C26.04 36 22.08 36 18 36 C17.67 30.39 17.34 24.78 17 19 C15.68 19 14.36 19 13 19 C11.47893366 22.04213267 11.62570662 25.28047572 11.4375 28.625 C11.39431641 29.33140625 11.35113281 30.0378125 11.30664062 30.765625 C11.20055249 32.51018537 11.09977111 34.25506697 11 36 C7.37 36 3.74 36 0 36 C0 24.12 0 12.24 0 0 Z " fill="#031B4E" transform="translate(184,8)"/>
<path d="M0 0 C3.63 0 7.26 0 11 0 C11.33 5.28 11.66 10.56 12 16 C12.53625 14.68 13.0725 13.36 13.625 12 C14.95703125 9.78125 14.95703125 9.78125 17 8 C21.73070169 7.2713755 26.24920084 7.53713459 31 8 C28.28316728 12.93054827 25.33342102 17.46284362 22 22 C24.61556568 26.84364014 27.42221305 30.82591522 31 35 C31 35.33 31 35.66 31 36 C26.24920084 36.46286541 21.73070169 36.7286245 17 36 C14.35863152 33.69700951 13.13052691 31.28880556 12 28 C11.67 30.64 11.34 33.28 11 36 C7.37 36 3.74 36 0 36 C0 24.12 0 12.24 0 0 Z " fill="#031B4E" transform="translate(152,8)"/>
<path d="M0 0 C1.43246523 0.22272373 2.86993113 0.41912094 4.3125 0.5625 C4.6425 0.2325 4.9725 -0.0975 5.3125 -0.4375 C9.2725 -0.4375 13.2325 -0.4375 17.3125 -0.4375 C17.3125 8.8025 17.3125 18.0425 17.3125 27.5625 C12.6925 27.5625 8.0725 27.5625 3.3125 27.5625 C1.9925 27.789375 0.6725 28.01625 -0.6875 28.25 C-4.62934789 28.66060916 -6.43920081 27.77724945 -9.6875 25.5625 C-13.82425016 19.9911524 -13.45032908 14.23515875 -12.6875 7.5625 C-11.50345735 4.28361267 -9.824325 2.28353065 -6.83984375 0.390625 C-4.25684694 -0.60319592 -2.71395847 -0.43513053 0 0 Z M1.3125 9.5625 C-0.35371425 10.7270201 -0.35371425 10.7270201 -1.6875 12.5625 C-1.45706136 15.21716049 -1.45706136 15.21716049 -0.6875 17.5625 C0.3025 17.8925 1.2925 18.2225 2.3125 18.5625 C3.3025 17.9025 4.2925 17.2425 5.3125 16.5625 C5.56280977 13.97869823 5.56280977 13.97869823 5.3125 11.5625 C3.9925 10.9025 2.6725 10.2425 1.3125 9.5625 Z " fill="#031B4E" transform="translate(447.6875,16.4375)"/>
<path d="M0 0 C3.63 0 7.26 0 11 0 C11.33 5.61 11.66 11.22 12 17 C13.32 17.33 14.64 17.66 16 18 C18.11925604 15.88074396 17.41831017 11.3803907 17.5625 8.4375 C17.60568359 7.63119141 17.64886719 6.82488281 17.69335938 5.99414062 C17.79975262 3.99631195 17.90040888 1.9981793 18 0 C21.96 0 25.92 0 30 0 C30 9.24 30 18.48 30 28 C25 28 20 28 15 28 C13.88625 28.226875 12.7725 28.45375 11.625 28.6875 C7.46244595 29.04634087 6.20250805 28.57979815 3 26 C0.18802717 22.90069391 -0.36546923 20.95356898 -0.29296875 16.796875 C-0.28330078 15.8171875 -0.27363281 14.8375 -0.26367188 13.828125 C-0.2259668 12.30445313 -0.2259668 12.30445313 -0.1875 10.75 C-0.17396484 9.71875 -0.16042969 8.6875 -0.14648438 7.625 C-0.11118034 5.08310951 -0.05737473 2.5414881 0 0 Z " fill="#031B4E" transform="translate(249,16)"/>
<path d="M0 0 C3.80668955 2.14640452 5.39678008 4.09949028 6.6875 8.375 C7.2187845 12.67081465 7.19556784 16.17168143 5.5 20.1875 C2.00590053 24.40451661 -0.65435143 26.53594347 -6.125 27.375 C-11.39122376 27.70512149 -15.09472366 26.52063176 -19.3125 23.375 C-22.39687658 20.19423665 -22.55884148 17.21249968 -22.75 12.9375 C-22.5967571 7.98708793 -21.81912851 5.06618791 -18.3125 1.375 C-12.36893234 -2.6774325 -6.42619858 -2.81809442 0 0 Z M-9.3125 8.375 C-11.64641203 11.15614056 -11.64641203 11.15614056 -10.9375 14.0625 C-10.73125 14.825625 -10.525 15.58875 -10.3125 16.375 C-8.9925 16.375 -7.6725 16.375 -6.3125 16.375 C-4.95631501 15.24965895 -4.95631501 15.24965895 -5.25 12.3125 C-5.270625 11.343125 -5.29125 10.37375 -5.3125 9.375 C-6.6325 9.045 -7.9525 8.715 -9.3125 8.375 Z " fill="#031B4E" transform="translate(375.3125,17.625)"/>
<path d="M0 0 C2.67686585 1.74307544 4.16446907 2.95777663 5.6875 5.75 C5.6875 7.07 5.6875 8.39 5.6875 9.75 C4.3675 10.08 3.0475 10.41 1.6875 10.75 C2.925 11.801875 2.925 11.801875 4.1875 12.875 C6.6875 15.75 6.6875 15.75 7.3125 18.75 C6.47681708 22.76127801 4.85824734 24.22781462 1.6875 26.75 C-2.83327164 28.70900104 -7.98110668 28.24600928 -12.5 26.5625 C-15.54995272 24.59697492 -17.33931852 22.78566381 -19.3125 19.75 C-19.3125 18.76 -19.3125 17.77 -19.3125 16.75 C-17.6625 16.42 -16.0125 16.09 -14.3125 15.75 C-15.2715625 15.2240625 -15.2715625 15.2240625 -16.25 14.6875 C-18.3125 12.75 -18.3125 12.75 -19.25 9.375 C-19.32003007 5.31325613 -18.93547329 3.81013551 -16.3125 0.75 C-11.15446834 -2.344819 -5.43854611 -2.05228155 0 0 Z M-8.3125 6.75 C-8.3125 7.41 -8.3125 8.07 -8.3125 8.75 C-7.3225 8.42 -6.3325 8.09 -5.3125 7.75 C-6.3025 7.42 -7.2925 7.09 -8.3125 6.75 Z M-8.3125 16.75 C-7.3225 18.235 -7.3225 18.235 -6.3125 19.75 C-5.6525 19.75 -4.9925 19.75 -4.3125 19.75 C-4.3125 19.09 -4.3125 18.43 -4.3125 17.75 C-5.6325 17.42 -6.9525 17.09 -8.3125 16.75 Z " fill="#031B4E" transform="translate(487.3125,17.25)"/>
<path d="M0 0 C2.67686585 1.74307544 4.16446907 2.95777663 5.6875 5.75 C5.6875 7.07 5.6875 8.39 5.6875 9.75 C4.3675 10.08 3.0475 10.41 1.6875 10.75 C2.925 11.801875 2.925 11.801875 4.1875 12.875 C6.6875 15.75 6.6875 15.75 7.3125 18.75 C6.47681708 22.76127801 4.85824734 24.22781462 1.6875 26.75 C-2.83327164 28.70900104 -7.98110668 28.24600928 -12.5 26.5625 C-15.54995272 24.59697492 -17.33931852 22.78566381 -19.3125 19.75 C-19.3125 18.76 -19.3125 17.77 -19.3125 16.75 C-17.6625 16.42 -16.0125 16.09 -14.3125 15.75 C-15.2715625 15.2240625 -15.2715625 15.2240625 -16.25 14.6875 C-18.3125 12.75 -18.3125 12.75 -19.25 9.375 C-19.32003007 5.31325613 -18.93547329 3.81013551 -16.3125 0.75 C-11.15446834 -2.344819 -5.43854611 -2.05228155 0 0 Z M-8.3125 6.75 C-8.3125 7.41 -8.3125 8.07 -8.3125 8.75 C-7.3225 8.42 -6.3325 8.09 -5.3125 7.75 C-6.3025 7.42 -7.2925 7.09 -8.3125 6.75 Z M-8.3125 16.75 C-7.3225 18.235 -7.3225 18.235 -6.3125 19.75 C-5.6525 19.75 -4.9925 19.75 -4.3125 19.75 C-4.3125 19.09 -4.3125 18.43 -4.3125 17.75 C-5.6325 17.42 -6.9525 17.09 -8.3125 16.75 Z " fill="#031B4E" transform="translate(91.3125,17.25)"/>
<path d="M0 0 C9.9 0 19.8 0 30 0 C30 2.97 30 5.94 30 9 C27.03 9 24.06 9 21 9 C21 17.25 21 25.5 21 34 C17.04 34 13.08 34 9 34 C9 25.75 9 17.5 9 9 C6.03 9 3.06 9 0 9 C0 6.03 0 3.06 0 0 Z " fill="#031B4E" transform="translate(289,10)"/>
<path d="M0 0 C3.63 0 7.26 0 11 0 C11.33 0.99 11.66 1.98 12 3 C12.94875 2.505 13.8975 2.01 14.875 1.5 C18 0 18 0 20 0 C20 3.96 20 7.92 20 12 C18.2984375 12.4021875 18.2984375 12.4021875 16.5625 12.8125 C15.386875 13.204375 14.21125 13.59625 13 14 C11.99740493 17.00778521 11.69685358 19.53820647 11.4375 22.6875 C11.293125 24.440625 11.14875 26.19375 11 28 C7.37 28 3.74 28 0 28 C0 18.76 0 9.52 0 0 Z " fill="#031B4E" transform="translate(51,16)"/>
<path d="M0 0 C3.63 0 7.26 0 11 0 C11 11.88 11 23.76 11 36 C7.37 36 3.74 36 0 36 C0 24.12 0 12.24 0 0 Z " fill="#031B4E" transform="translate(233,8)"/>
<path d="M0 0 C1.65 0 3.3 0 5 0 C5 1.32 5 2.64 5 4 C6.98 4 8.96 4 11 4 C11.33 4.99 11.66 5.98 12 7 C12.66 7 13.32 7 14 7 C14.33 6.01 14.66 5.02 15 4 C21.0546875 3.8046875 21.0546875 3.8046875 23 4 C25 6 25 6 25.4375 9.4375 C25 13 25 13 22.875 15.0625 C19.21280236 16.25669488 17.46011373 15.52888746 14 14 C13.67 14.33 13.34 14.66 13 15 C11.33382885 15.04063832 9.66611905 15.042721 8 15 C7.67 13.02 7.34 11.04 7 9 C6.67 9 6.34 9 6 9 C5.67 10.98 5.34 12.96 5 15 C2.66666667 15 0.33333333 15 -2 15 C-2.78375 15.20625 -3.5675 15.4125 -4.375 15.625 C-7 16 -7 16 -9.25 15.5 C-11 14 -11 14 -11.875 10.5625 C-12 7 -12 7 -10 4 C-3.875 3.5625 -3.875 3.5625 -1 5 C-0.67 3.35 -0.34 1.7 0 0 Z M-7 8 C-6.67 8.99 -6.34 9.98 -6 11 C-4.02 10.67 -2.04 10.34 0 10 C0 9.67 0 9.34 0 9 C-2.31 8.67 -4.62 8.34 -7 8 Z M19 8 C18.67 8.99 18.34 9.98 18 11 C18.66 11 19.32 11 20 11 C19.67 10.01 19.34 9.02 19 8 Z " fill="#0AD8C1" transform="translate(187,53)"/>
<path d="M0 0 C8.3984375 -0.1953125 8.3984375 -0.1953125 11 0 C11.66 0.66 12.32 1.32 13 2 C13.66 1.34 14.32 0.68 15 0 C18.625 -0.125 18.625 -0.125 22 0 C22.33 0.99 22.66 1.98 23 3 C23.66 3 24.32 3 25 3 C25 2.34 25 1.68 25 1 C28.01324195 -0.50662097 30.68286377 -0.17770373 34 0 C36 2 36 2 36.4375 5.4375 C36 9 36 9 33.9375 11.0625 C30.03874387 12.30678387 27.86879154 11.15385011 24 10 C21.98848259 10.63106429 19.98636298 11.29373761 18 12 C15.625 11.125 15.625 11.125 14 10 C13.67 10.33 13.34 10.66 13 11 C11.33382885 11.04063832 9.66611905 11.042721 8 11 C7.67 9.02 7.34 7.04 7 5 C6.67 5 6.34 5 6 5 C5.67 6.98 5.34 8.96 5 11 C3.35 11 1.7 11 0 11 C0 7.37 0 3.74 0 0 Z M22 4 C22.66 4.66 23.32 5.32 24 6 C24 5.34 24 4.68 24 4 C23.34 4 22.68 4 22 4 Z M13 5 C13 5.66 13 6.32 13 7 C13.66 6.67 14.32 6.34 15 6 C14.34 5.67 13.68 5.34 13 5 Z " fill="#0AD8C1" transform="translate(54,57)"/>
<path d="M0 0 C3.63 0 7.26 0 11 0 C11 9.24 11 18.48 11 28 C7.37 28 3.74 28 0 28 C0 18.76 0 9.52 0 0 Z " fill="#031B4E" transform="translate(218,16)"/>
<path d="M0 0 C3.5625 0.25 3.5625 0.25 6.5625 2.25 C7.2225 1.59 7.8825 0.93 8.5625 0.25 C10.9453125 0.0546875 10.9453125 0.0546875 13.6875 0.125 C14.59757812 0.14304688 15.50765625 0.16109375 16.4453125 0.1796875 C17.14398438 0.20289063 17.84265625 0.22609375 18.5625 0.25 C18.64347324 2.52024968 18.70167704 4.79132075 18.75 7.0625 C18.80220703 8.95935547 18.80220703 8.95935547 18.85546875 10.89453125 C18.5625 14.25 18.5625 14.25 17.2734375 16.2109375 C14.33498977 17.99547425 11.76290526 17.00645943 8.5625 16.25 C6.5625 14.25 6.5625 14.25 6.4375 11.625 C6.47875 10.84125 6.52 10.0575 6.5625 9.25 C5.510625 9.806875 4.45875 10.36375 3.375 10.9375 C0.42758173 12.1895537 -0.15557552 12.3339775 -3.375 11.375 C-5.4375 9.25 -5.4375 9.25 -5.875 5.6875 C-5.28300045 1.03607493 -4.6962812 0.34154772 0 0 Z M-0.4375 4.25 C-0.1075 5.24 0.2225 6.23 0.5625 7.25 C0.5625 6.26 0.5625 5.27 0.5625 4.25 C0.2325 4.25 -0.0975 4.25 -0.4375 4.25 Z M11.5625 4.25 C11.5625 5.24 11.5625 6.23 11.5625 7.25 C12.2225 7.25 12.8825 7.25 13.5625 7.25 C13.5625 6.26 13.5625 5.27 13.5625 4.25 C12.9025 4.25 12.2425 4.25 11.5625 4.25 Z " fill="#0AD8C1" transform="translate(224.4375,56.75)"/>
<path d="M0 0 C1.67542976 0.28604898 3.34385343 0.61781233 5 1 C5.33 2.32 5.66 3.64 6 5 C6.226875 4.360625 6.45375 3.72125 6.6875 3.0625 C8 1 8 1 10.625 0.25 C11.40875 0.1675 12.1925 0.085 13 0 C13.33 1.98 13.66 3.96 14 6 C14.33 5.67 14.66 5.34 15 5 C18.375 4.6875 18.375 4.6875 22 5 C24 6.6875 24 6.6875 25 9 C25 11.5625 25 11.5625 24 14 C21.75 15.9375 21.75 15.9375 19 17 C16.56971928 16.33719617 14.7989028 15.7989028 13 14 C12.95936168 12.33382885 12.957279 10.66611905 13 9 C12.34 9 11.68 9 11 9 C11 11.31 11 13.62 11 16 C7.37 16 3.74 16 0 16 C0.03255208 13.265625 0.06510417 10.53125 0.09765625 7.796875 C0.01180181 5.33800393 -0.3986897 3.36190351 -1 1 C-0.67 0.67 -0.34 0.34 0 0 Z " fill="#0AD8C1" transform="translate(300,52)"/>
<path d="M0 0 C2.9375 2 2.9375 2 5 4 C5.33 3.67 5.66 3.34 6 3 C11.73611111 2.72685185 11.73611111 2.72685185 14 3 C16 5 16 5 16.4375 8.4375 C16 12 16 12 13.875 14.0625 C10.17476788 15.26909743 8.46440996 14.65346839 5 13 C4.67 12.34 4.34 11.68 4 11 C3.67 11.495 3.34 11.99 3 12.5 C0.27610766 14.54291926 -1.79046837 14.4328085 -5.125 14.2734375 C-7 14 -7 14 -9 13 C-10.62932095 9.7413581 -10.52673518 6.56102656 -10 3 C-7.82815916 -1.08817098 -4.1986431 -0.50673279 0 0 Z M-5 5 C-4.67 6.65 -4.34 8.3 -4 10 C-1.36 9.34 1.28 8.68 4 8 C4 7.34 4 6.68 4 6 C1.03 5.67 -1.94 5.34 -5 5 Z M10 7 C9.67 7.99 9.34 8.98 9 10 C9.66 10 10.32 10 11 10 C10.67 9.01 10.34 8.02 10 7 Z " fill="#0AD8C1" transform="translate(24,54)"/>
<path d="M0 0 C2.875 2.5 2.875 2.5 5 5 C5.66 4.34 6.32 3.68 7 3 C10.5 2.75 10.5 2.75 14 3 C16 5 16 5 16.4375 8.4375 C16 12 16 12 13.875 14.0625 C10.21280236 15.25669488 8.46011373 14.52888746 5 13 C5 12.34 5 11.68 5 11 C4.505 11.495 4.01 11.99 3.5 12.5 C-0.22645843 14.73587506 -2.67911757 14.41151261 -7 14 C-9 12.9375 -9 12.9375 -10 11 C-10.50030235 7.06905293 -10.5996142 4.8994213 -8.375 1.5625 C-5.24316508 -0.49791771 -3.68455227 -0.6767545 0 0 Z M-4 5 C-4.33 6.32 -4.66 7.64 -5 9 C-1.72724974 9 0.846632 8.70074844 4 8 C4 7.34 4 6.68 4 6 C1.36 5.67 -1.28 5.34 -4 5 Z M10 7 C10 10 10 10 10 10 Z " fill="#0AD8C1" transform="translate(338,54)"/>
<path d="M0 0 C8.63304348 -0.38086957 8.63304348 -0.38086957 13 3 C15.71863401 3.26922395 18.25846729 3.13707664 21 3 C23.24948336 7.2177813 22.9777007 9.3559217 22 14 C18.75691762 15.01925446 17.37302767 15.15750057 14.1875 13.8125 C13.465625 13.214375 12.74375 12.61625 12 12 C12 10.68 12 9.36 12 8 C11.01 8.66 10.02 9.32 9 10 C7.68 10 6.36 10 5 10 C5 11.32 5 12.64 5 14 C3.35 14 1.7 14 0 14 C0 9.38 0 4.76 0 0 Z M5 4 C6 6 6 6 6 6 Z " fill="#0AD8C1" transform="translate(139,54)"/>
<path d="M0 0 C1.65 0 3.3 0 5 0 C5.33 1.65 5.66 3.3 6 5 C6.33 4.67 6.66 4.34 7 4 C10.6691577 3.85689713 14.32715441 3.95778338 18 4 C18 7.63 18 11.26 18 15 C16.576875 15.20625 15.15375 15.4125 13.6875 15.625 C12.88699219 15.74101563 12.08648437 15.85703125 11.26171875 15.9765625 C9 16 9 16 6 14 C5.67 14.33 5.34 14.66 5 15 C3.35 15 1.7 15 0 15 C0 10.05 0 5.1 0 0 Z M11 8 C11 8.99 11 9.98 11 11 C11.66 10.34 12.32 9.68 13 9 C12.34 8.67 11.68 8.34 11 8 Z " fill="#0AD8C1" transform="translate(468,53)"/>
<path d="M0 0 C6.66666667 0 13.33333333 0 20 0 C20 3.63 20 7.26 20 11 C12.70886076 12.33670886 12.70886076 12.33670886 9.5 10.8125 C8 9 8 9 8 5 C7.01 5 6.02 5 5 5 C5 6.98 5 8.96 5 11 C3.35 11 1.7 11 0 11 C0 7.37 0 3.74 0 0 Z M14 4 C13.67 4.99 13.34 5.98 13 7 C13.66 7 14.32 7 15 7 C14.67 6.01 14.34 5.02 14 4 Z " fill="#0AD8C1" transform="translate(446,57)"/>
<path d="M0 0 C1.65 0 3.3 0 5 0 C5 0.99 5 1.98 5 3 C5.66 3 6.32 3 7 3 C7 4.32 7 5.64 7 7 C6.34 7 5.68 7 5 7 C5 7.99 5 8.98 5 10 C5.66 10 6.32 10 7 10 C7 11.32 7 12.64 7 14 C4.625 14.125 4.625 14.125 2 14 C0 12 0 12 -0.125 9.375 C-0.08375 8.59125 -0.0425 7.8075 0 7 C-0.99 7.495 -0.99 7.495 -2 8 C-1.67 9.65 -1.34 11.3 -1 13 C-3.6875 14.1875 -3.6875 14.1875 -7 15 C-9.875 13.875 -9.875 13.875 -12 12 C-12 5 -12 5 -10 3 C-7.66705225 2.95758277 -5.33297433 2.95907063 -3 3 C-2.34 3 -1.68 3 -1 3 C-0.67 2.01 -0.34 1.02 0 0 Z " fill="#0AD8C1" transform="translate(262,54)"/>
<path d="M0 0 C0.90492187 0.02320313 1.80984375 0.04640625 2.7421875 0.0703125 C4.10730469 0.09738281 4.10730469 0.09738281 5.5 0.125 C6.19867188 0.14820313 6.89734375 0.17140625 7.6171875 0.1953125 C7.69795713 2.65429905 7.75755893 5.11064992 7.8046875 7.5703125 C7.84239258 8.61832031 7.84239258 8.61832031 7.88085938 9.6875 C7.91015625 11.71875 7.91015625 11.71875 7.6171875 15.1953125 C3.766877 17.76218617 2.03148987 17.02819974 -2.3828125 16.1953125 C-4.3828125 11.4453125 -4.3828125 11.4453125 -4.3828125 9.1953125 C-4.4240625 8.0403125 -4.4653125 6.8853125 -4.5078125 5.6953125 C-4.3667004 1.74417359 -4.11235604 0.33707836 0 0 Z M1.6171875 4.1953125 C1.2871875 5.1853125 0.9571875 6.1753125 0.6171875 7.1953125 C1.2771875 7.1953125 1.9371875 7.1953125 2.6171875 7.1953125 C2.2871875 6.2053125 1.9571875 5.2153125 1.6171875 4.1953125 Z " fill="#0AD8C1" transform="translate(126.3828125,56.8046875)"/>
<path d="M0 0 C1.65 0 3.3 0 5 0 C5.33 0.99 5.66 1.98 6 3 C6.66 2.01 7.32 1.02 8 0 C11.125 -0.1875 11.125 -0.1875 14 0 C13.690625 0.763125 13.38125 1.52625 13.0625 2.3125 C12.32106407 4.18789677 11.63771783 6.08684652 11 8 C11.95298777 9.36733028 12.95374591 10.70264493 14 12 C14 12.66 14 13.32 14 14 C11.125 14.1875 11.125 14.1875 8 14 C7.34 13.01 6.68 12.02 6 11 C5.67 11.99 5.34 12.98 5 14 C3.35 14 1.7 14 0 14 C0 9.38 0 4.76 0 0 Z " fill="#0AD8C1" transform="translate(419,54)"/>
<path d="M0 0 C1.65 0 3.3 0 5 0 C5 1.32 5 2.64 5 4 C6.98 4 8.96 4 11 4 C12.20272819 6.40545638 12.10071472 7.94996953 12.0625 10.625 C12.05347656 11.44226563 12.04445313 12.25953125 12.03515625 13.1015625 C12.02355469 13.72804688 12.01195312 14.35453125 12 15 C10.35 15 8.7 15 7 15 C7 12.69 7 10.38 7 8 C6.34 8 5.68 8 5 8 C5 10.31 5 12.62 5 15 C3.35 15 1.7 15 0 15 C0 10.05 0 5.1 0 0 Z " fill="#0AD8C1" transform="translate(380,53)"/>
<path d="M0 0 C2.375 -0.125 2.375 -0.125 5 0 C5.66 0.66 6.32 1.32 7 2 C7.33 1.34 7.66 0.68 8 0 C9.65 0 11.3 0 13 0 C12.34496718 4.05819183 11.05440879 7.53971282 9.4375 11.3125 C8.98246094 12.38113281 8.52742187 13.44976562 8.05859375 14.55078125 C7.53458984 15.76314453 7.53458984 15.76314453 7 17 C5.02 17 3.04 17 1 17 C1.391875 15.989375 1.78375 14.97875 2.1875 13.9375 C3.46633156 9.58947268 1.99742658 6.99485315 0 3 C0 2.01 0 1.02 0 0 Z " fill="#0AD8C1" transform="translate(162,57)"/>
<path d="M0 0 C1.4540625 0.0309375 1.4540625 0.0309375 2.9375 0.0625 C3.5975 1.7125 4.2575 3.3625 4.9375 5.0625 C3.6175 5.0625 2.2975 5.0625 0.9375 5.0625 C1.47890625 5.78566406 1.47890625 5.78566406 2.03125 6.5234375 C2.4953125 7.15507813 2.959375 7.78671875 3.4375 8.4375 C3.9015625 9.06398438 4.365625 9.69046875 4.84375 10.3359375 C5.9375 12.0625 5.9375 12.0625 5.9375 14.0625 C4.52316794 14.2861337 3.10582382 14.49076476 1.6875 14.6875 C0.89859375 14.80351563 0.1096875 14.91953125 -0.703125 15.0390625 C-3.38402459 15.06569395 -4.78944089 14.42842084 -7.0625 13.0625 C-7.41087335 8.18527312 -6.51344389 5.27812348 -4.0625 1.0625 C-3.0625 0.0625 -3.0625 0.0625 0 0 Z " fill="#0AD8C1" transform="translate(280.0625,53.9375)"/>
<path d="M0 0 C3.63 0 7.26 0 11 0 C11 3.63 11 7.26 11 11 C2.42857143 12.42857143 2.42857143 12.42857143 -1 10 C-1.125 2.25 -1.125 2.25 0 0 Z M4 4 C4 4.99 4 5.98 4 7 C4.66 7 5.32 7 6 7 C5.67 6.01 5.34 5.02 5 4 C4.67 4 4.34 4 4 4 Z " fill="#0AD8C1" transform="translate(356,57)"/>
<path d="M0 0 C0.70125 0.00515625 1.4025 0.0103125 2.125 0.015625 C2.82625 0.01046875 3.5275 0.0053125 4.25 0 C6.125 0.265625 6.125 0.265625 8.125 2.265625 C8.4375 5.765625 8.4375 5.765625 8.125 9.265625 C4.42084707 11.73506029 2.50355495 11.73475589 -1.875 11.265625 C-3.875 9.578125 -3.875 9.578125 -4.875 7.265625 C-4.6174389 3.65976957 -4.07825189 0.57775235 0 0 Z " fill="#031B4E" transform="translate(221.875,3.734375)"/>
<path d="M0 0 C3.63 0 7.26 0 11 0 C11 3.63 11 7.26 11 11 C7.37 11 3.74 11 0 11 C0 7.37 0 3.74 0 0 Z " fill="#031B4E" transform="translate(100,33)"/>
<path d="M0 0 C2 2 2 2 2.4375 5.4375 C2 9 2 9 -0.125 11.0625 C-3.78719764 12.25669488 -5.53988627 11.52888746 -9 10 C-10.32296047 3.62573591 -10.32296047 3.62573591 -9 1.0625 C-5.94226576 -0.56192132 -3.39237275 -0.30839752 0 0 Z " fill="#0AD8C1" transform="translate(443,57)"/>
<path d="M0 0 C8.49609375 -0.09765625 8.49609375 -0.09765625 11 0 C12 1 12 1 12.09765625 3.28515625 C12.08605469 4.20167969 12.07445313 5.11820313 12.0625 6.0625 C12.05347656 6.98160156 12.04445313 7.90070313 12.03515625 8.84765625 C12.02355469 9.55792969 12.01195313 10.26820312 12 11 C10.35 11 8.7 11 7 11 C7 8.69 7 6.38 7 4 C6.34 4 5.68 4 5 4 C5 6.31 5 8.62 5 11 C3.35 11 1.7 11 0 11 C0 7.37 0 3.74 0 0 Z " fill="#0AD8C1" transform="translate(109,57)"/>
<path d="M0 0 C1.65 0 3.3 0 5 0 C5 2.31 5 4.62 5 7 C5.66 7 6.32 7 7 7 C7 4.69 7 2.38 7 0 C8.65 0 10.3 0 12 0 C12 3.63 12 7.26 12 11 C3.50390625 11.09765625 3.50390625 11.09765625 1 11 C0 10 0 10 -0.09765625 7.71484375 C-0.08605469 6.79832031 -0.07445312 5.88179687 -0.0625 4.9375 C-0.05347656 4.01839844 -0.04445312 3.09929688 -0.03515625 2.15234375 C-0.02355469 1.44207031 -0.01195312 0.73179688 0 0 Z " fill="#0AD8C1" transform="translate(41,57)"/>
<path d="M0 0 C1.60875 -0.04125 3.2175 -0.0825 4.875 -0.125 C5.77992188 -0.14820313 6.68484375 -0.17140625 7.6171875 -0.1953125 C10 0 10 0 12 2 C12.1953125 4.1640625 12.1953125 4.1640625 12.125 6.625 C12.10695313 7.44226563 12.08890625 8.25953125 12.0703125 9.1015625 C12.03550781 10.04128906 12.03550781 10.04128906 12 11 C10.35 11 8.7 11 7 11 C7 8.69 7 6.38 7 4 C6.34 4 5.68 4 5 4 C5 6.31 5 8.62 5 11 C3.35 11 1.7 11 0 11 C0 7.37 0 3.74 0 0 Z " fill="#0AD8C1" transform="translate(403,57)"/>
<path d="M0 0 C3.5 0.25 3.5 0.25 5.5 2.25 C5.5 3.24 5.5 4.23 5.5 5.25 C3.85 5.25 2.2 5.25 0.5 5.25 C0.5 5.58 0.5 5.91 0.5 6.25 C2.15 6.25 3.8 6.25 5.5 6.25 C5.3125 8.125 5.3125 8.125 4.5 10.25 C2.25 11.6875 2.25 11.6875 -0.5 12.25 C-3.3125 11.3125 -3.3125 11.3125 -5.5 9.25 C-5.9375 5.6875 -5.9375 5.6875 -5.5 2.25 C-3.5 0.25 -3.5 0.25 0 0 Z " fill="#0AD8C1" transform="translate(373.5,56.75)"/>
<path d="M0 0 C1.65 0 3.3 0 5 0 C5 3.3 5 6.6 5 10 C6.32 10 7.64 10 9 10 C9 11.32 9 12.64 9 14 C6.03 14 3.06 14 0 14 C0 9.38 0 4.76 0 0 Z " fill="#0AD8C1" transform="translate(290,54)"/>
<path d="M0 0 C1.65 0.33 3.3 0.66 5 1 C5 5.95 5 10.9 5 16 C3.35 16 1.7 16 0 16 C0.01160156 15.25234375 0.02320313 14.5046875 0.03515625 13.734375 C0.04417969 12.74953125 0.05320312 11.7646875 0.0625 10.75 C0.07410156 9.77546875 0.08570313 8.8009375 0.09765625 7.796875 C0.01180181 5.33800393 -0.3986897 3.36190351 -1 1 C-0.67 0.67 -0.34 0.34 0 0 Z " fill="#0AD8C1" transform="translate(397,52)"/>
<path d="M0 0 C1.67542976 0.28604898 3.34385343 0.61781233 5 1 C4.83628906 1.54140625 4.67257813 2.0828125 4.50390625 2.640625 C3.91409413 5.40222593 3.90390692 7.92818139 3.9375 10.75 C3.95103516 12.22726563 3.95103516 12.22726563 3.96484375 13.734375 C3.97644531 14.48203125 3.98804688 15.2296875 4 16 C2.35 16 0.7 16 -1 16 C-1.02685095 13.52076199 -1.04676547 11.0418116 -1.0625 8.5625 C-1.07506836 7.50192383 -1.07506836 7.50192383 -1.08789062 6.41992188 C-1.09653588 4.61306441 -1.05220011 2.80612397 -1 1 C-0.67 0.67 -0.34 0.34 0 0 Z " fill="#0AD8C1" transform="translate(245,52)"/>
<path d="M0 0 C1.65 0 3.3 0 5 0 C5 5.28 5 10.56 5 16 C3.35 16 1.7 16 0 16 C0 10.72 0 5.44 0 0 Z " fill="#0AD8C1" transform="translate(103,52)"/>
<path d="M0 0 C1.65 0 3.3 0 5 0 C5 4.95 5 9.9 5 15 C3.35 15 1.7 15 0 15 C0 10.05 0 5.1 0 0 Z " fill="#0AD8C1" transform="translate(213,53)"/>
<path d="M0 0 C1.65 0 3.3 0 5 0 C5 4.95 5 9.9 5 15 C3.35 15 1.7 15 0 15 C0 10.05 0 5.1 0 0 Z " fill="#0AD8C1" transform="translate(97,53)"/>
<path d="M0 0 C1.65 0 3.3 0 5 0 C5 4.95 5 9.9 5 15 C3.35 15 1.7 15 0 15 C0 10.05 0 5.1 0 0 Z " fill="#0AD8C1" transform="translate(91,53)"/>
</svg>
