<?xml version="1.0" encoding="UTF-8"?>
<svg version="1.1" xmlns="http://www.w3.org/2000/svg" width="1000" height="184">
<path d="M0 0 C8.25 0 16.5 0 25 0 C29.82438477 11.15638979 33.90335399 22.56053972 38 34 C41.37534741 26.80352655 44.09694551 19.42568149 46.75 11.9375 C47.36681641 10.20983398 47.36681641 10.20983398 47.99609375 8.44726562 C49.00049243 5.63261351 50.0006801 2.8164593 51 0 C59.25 0 67.5 0 76 0 C76 20.79 76 41.58 76 63 C69.4 63 62.8 63 56 63 C55.67 55.08 55.34 47.16 55 39 C52.73785022 46.52324789 52.73785022 46.52324789 50.48266602 54.04858398 C50.20092529 54.98001221 49.91918457 55.91144043 49.62890625 56.87109375 C49.34088135 57.82943115 49.05285645 58.78776855 48.75610352 59.77514648 C48 62 48 62 47 63 C45.65732587 63.08631874 44.31025678 63.10706473 42.96484375 63.09765625 C41.87224243 63.09390991 41.87224243 63.09390991 40.75756836 63.09008789 C39.8269458 63.08098389 38.89632324 63.07187988 37.9375 63.0625 C33.5134375 63.0315625 33.5134375 63.0315625 29 63 C26.69 55.74 24.38 48.48 22 41 C21.67 48.26 21.34 55.52 21 63 C14.07 63 7.14 63 0 63 C0 42.21 0 21.42 0 0 Z " fill="#FFFFFF" transform="translate(43,32)"/>
<path d="M0 0 C1.02744407 0.97178119 2.03621913 1.96504762 3 3 C5.53446685 1.83024607 7.68691721 0.52774442 10 -1.0625 C15.3471758 -4.51588437 20.87715762 -4.84155397 27.0859375 -3.57421875 C32.47633531 -1.89101024 36.15334658 1.10448138 39 6 C40.7433942 11.11702191 41.27353854 15.75894669 41.1953125 21.12109375 C41.1924826 21.86585464 41.18965271 22.61061554 41.18673706 23.37794495 C41.17563917 25.73130101 41.1505551 28.08426109 41.125 30.4375 C41.11495672 32.04361425 41.10583324 33.64973454 41.09765625 35.25585938 C41.07744466 39.17084417 41.03827826 43.08498455 41 47 C34.07 47 27.14 47 20 47 C19.94392578 43.78636719 19.94392578 43.78636719 19.88671875 40.5078125 C19.84052437 38.43593048 19.78928353 36.36423066 19.73754883 34.29248047 C19.70426822 32.85118658 19.67624596 31.40976137 19.65356445 29.96826172 C19.6200738 27.89754203 19.567767 25.82802907 19.51171875 23.7578125 C19.48553467 22.5114502 19.45935059 21.26508789 19.43237305 19.98095703 C19.21834839 18.5053833 19.21834839 18.5053833 19 17 C16.09561011 14.62272768 16.09561011 14.62272768 12.375 15.25 C11.26125 15.4975 10.1475 15.745 9 16 C7.57732138 18.84535725 7.78028131 21.36218552 7.68359375 24.5390625 C7.62075195 26.49199219 7.62075195 26.49199219 7.55664062 28.484375 C7.51682701 29.86458045 7.47711478 31.24478883 7.4375 32.625 C7.39430593 34.01303415 7.35069135 35.40105528 7.30664062 36.7890625 C7.20028066 40.19258129 7.09961082 43.596277 7 47 C0.4 47 -6.2 47 -13 47 C-13.06058594 45.02515625 -13.12117187 43.0503125 -13.18359375 41.015625 C-13.26800296 38.42707595 -13.35265077 35.83853467 -13.4375 33.25 C-13.47681641 31.94804688 -13.51613281 30.64609375 -13.55664062 29.3046875 C-13.59853516 28.05429688 -13.64042969 26.80390625 -13.68359375 25.515625 C-13.73858032 23.78747559 -13.73858032 23.78747559 -13.79467773 22.02441406 C-13.96452174 19.52259776 -14.27968475 17.38908832 -15 15 C-19.0100934 14.82135369 -19.0100934 14.82135369 -23 15 C-25.82879286 17.82879286 -25.3142666 19.79924198 -25.4140625 23.7578125 C-25.43342865 24.42086395 -25.4527948 25.08391541 -25.4727478 25.76705933 C-25.53255954 27.88624177 -25.57893388 30.0054785 -25.625 32.125 C-25.66317845 33.56122169 -25.70223011 34.99742045 -25.7421875 36.43359375 C-25.83990819 39.95561029 -25.91945876 43.47738072 -26 47 C-32.93 47 -39.86 47 -47 47 C-47 30.5 -47 14 -47 -3 C-40.07 -3 -33.14 -3 -26 -3 C-25.67 -2.01 -25.34 -1.02 -25 0 C-24.2575 -0.474375 -23.515 -0.94875 -22.75 -1.4375 C-14.99348545 -5.84461054 -7.25138431 -4.80745878 0 0 Z " fill="#FFFFFF" transform="translate(805,48)"/>
<path d="M0 0 C7.92 0 15.84 0 24 0 C27.33011281 7.88008468 30.48147297 15.78891551 33.42578125 23.8203125 C33.81823532 24.88619598 34.21068939 25.95207947 34.61503601 27.05026245 C35.43386464 29.27652079 36.25138388 31.50326114 37.06762695 33.73046875 C38.3226421 37.15265557 39.58394763 40.57248091 40.84570312 43.9921875 C41.64360611 46.16392405 42.44114562 48.33579418 43.23828125 50.5078125 C43.61632401 51.53166046 43.99436676 52.55550842 44.38386536 53.61038208 C44.72810043 54.55251556 45.07233551 55.49464905 45.42700195 56.46533203 C45.731689 57.29517609 46.03637604 58.12502014 46.35029602 58.98001099 C47 61 47 61 47 63 C39.74 63 32.48 63 25 63 C24.34 60.03 23.68 57.06 23 54 C16.07 54 9.14 54 2 54 C1.01 56.97 0.02 59.94 -1 63 C-7.93 63 -14.86 63 -22 63 C-20.87501936 56.25011615 -20.87501936 56.25011615 -19.71240234 53.13208008 C-19.45478119 52.43307083 -19.19716003 51.73406158 -18.93173218 51.01387024 C-18.65261993 50.27323837 -18.37350769 49.53260651 -18.0859375 48.76953125 C-17.79320953 47.97963303 -17.50048157 47.1897348 -17.19888306 46.37590027 C-16.26260732 43.85286706 -15.31899874 41.33265245 -14.375 38.8125 C-13.76382436 37.17010731 -13.15314324 35.52753052 -12.54296875 33.88476562 C-11.32236986 30.60018063 -10.09909559 27.3166104 -8.87402344 24.03369141 C-5.89091813 16.03172096 -2.94825642 8.01486162 0 0 Z M12 23 C10.35 27.95 8.7 32.9 7 38 C10.3 38 13.6 38 17 38 C16.54705135 36.24859857 16.08741252 34.49892656 15.625 32.75 C15.36976563 31.77546875 15.11453125 30.8009375 14.8515625 29.796875 C14.00081692 26.72279197 14.00081692 26.72279197 12 23 Z " fill="#FFFFFF" transform="translate(278,32)"/>
<path d="M0 0 C6.93 0 13.86 0 21 0 C21.33 6.6 21.66 13.2 22 20 C23.98 18.68 25.96 17.36 28 16 C32.42245255 14.23101898 37.59599157 14.26507293 42.12109375 15.6484375 C47.23070698 17.90864449 50.45429257 21.01784297 53 26 C54.1947224 30.07752777 54.12603168 34.04989357 54.09765625 38.265625 C54.0962413 39.05902283 54.09482635 39.85242065 54.09336853 40.66986084 C54.08778415 43.19661272 54.07523454 45.72327504 54.0625 48.25 C54.05748298 49.96614455 54.05292043 51.68229049 54.04882812 53.3984375 C54.03867198 57.59902035 54.01909359 61.79941027 54 66 C47.4 66 40.8 66 34 66 C33.97421875 63.95296875 33.9484375 61.9059375 33.921875 59.796875 C33.88014511 57.80775005 33.83827597 55.81862535 33.79248047 53.82958984 C33.76430901 52.45048349 33.74307528 51.07121682 33.72900391 49.69189453 C33.70752455 47.70577051 33.65876868 45.72000091 33.609375 43.734375 C33.58842773 42.54038086 33.56748047 41.34638672 33.54589844 40.11621094 C32.90053564 36.43221688 32.00334761 35.17820737 29 33 C25.15782185 33.09227566 25.15782185 33.09227566 22 35 C21.84111908 37.28988781 21.74861927 39.58443441 21.68359375 41.87890625 C21.66281265 42.5655687 21.64203156 43.25223114 21.62062073 43.95970154 C21.55505857 46.16052935 21.49620985 48.36147975 21.4375 50.5625 C21.39432108 52.05144514 21.350707 53.54037773 21.30664062 55.02929688 C21.1985485 58.68607392 21.09952626 62.34293947 21 66 C14.07 66 7.14 66 0 66 C0 44.22 0 22.44 0 0 Z " fill="#FFFFFF" transform="translate(639,29)"/>
<path d="M0 0 C6.93 0 13.86 0 21 0 C21.33 6.6 21.66 13.2 22 20 C23.98 18.68 25.96 17.36 28 16 C32.42245255 14.23101898 37.59599157 14.26507293 42.12109375 15.6484375 C47.23070698 17.90864449 50.45429257 21.01784297 53 26 C54.1947224 30.07752777 54.12603168 34.04989357 54.09765625 38.265625 C54.0962413 39.05902283 54.09482635 39.85242065 54.09336853 40.66986084 C54.08778415 43.19661272 54.07523454 45.72327504 54.0625 48.25 C54.05748298 49.96614455 54.05292043 51.68229049 54.04882812 53.3984375 C54.03867198 57.59902035 54.01909359 61.79941027 54 66 C47.4 66 40.8 66 34 66 C33.97421875 63.95296875 33.9484375 61.9059375 33.921875 59.796875 C33.88014511 57.80775005 33.83827597 55.81862535 33.79248047 53.82958984 C33.76430901 52.45048349 33.74307528 51.07121682 33.72900391 49.69189453 C33.70752455 47.70577051 33.65876868 45.72000091 33.609375 43.734375 C33.58842773 42.54038086 33.56748047 41.34638672 33.54589844 40.11621094 C32.90053564 36.43221688 32.00334761 35.17820737 29 33 C25.15782185 33.09227566 25.15782185 33.09227566 22 35 C21.84111908 37.28988781 21.74861927 39.58443441 21.68359375 41.87890625 C21.66281265 42.5655687 21.64203156 43.25223114 21.62062073 43.95970154 C21.55505857 46.16052935 21.49620985 48.36147975 21.4375 50.5625 C21.39432108 52.05144514 21.350707 53.54037773 21.30664062 55.02929688 C21.1985485 58.68607392 21.09952626 62.34293947 21 66 C14.07 66 7.14 66 0 66 C0 44.22 0 22.44 0 0 Z " fill="#FFFFFF" transform="translate(389,29)"/>
<path d="M0 0 C6.93 0 13.86 0 21 0 C21.33 9.9 21.66 19.8 22 30 C23.155 27.69 24.31 25.38 25.5 23 C27.29472156 20.03004457 29.07200098 17.89935206 32 16 C39.79859073 14.17216324 48.10842679 15.14242517 56 16 C53.11700481 20.43950589 50.20747435 24.81834275 46.9375 28.984375 C46.45152344 29.60957031 45.96554687 30.23476563 45.46484375 30.87890625 C44.46877932 32.15121255 43.46043309 33.41397833 42.44140625 34.66796875 C40.79299369 36.73303007 40.79299369 36.73303007 39 40 C40.01859053 43.69852843 41.84003712 46.35576957 44.22265625 49.3203125 C44.84333984 50.10277344 45.46402344 50.88523438 46.10351562 51.69140625 C46.74998047 52.49449219 47.39644531 53.29757813 48.0625 54.125 C49.34881962 55.72875628 50.63154372 57.33540494 51.91015625 58.9453125 C52.76299194 60.00516357 52.76299194 60.00516357 53.63305664 61.08642578 C55 63 55 63 56 66 C34.43081671 67.63612664 34.43081671 67.63612664 28.953125 63.94921875 C27.20269571 61.3351927 26.07976809 58.94677747 25 56 C23.515 53.525 23.515 53.525 22 51 C21.67 55.95 21.34 60.9 21 66 C14.07 66 7.14 66 0 66 C0 44.22 0 22.44 0 0 Z " fill="#FFFFFF" transform="translate(329,29)"/>
<path d="M0 0 C1.91015625 1.10546875 1.91015625 1.10546875 4.72265625 3.10546875 C5.05265625 2.11546875 5.38265625 1.12546875 5.72265625 0.10546875 C12.32265625 0.10546875 18.92265625 0.10546875 25.72265625 0.10546875 C25.72265625 16.60546875 25.72265625 33.10546875 25.72265625 50.10546875 C19.12265625 50.10546875 12.52265625 50.10546875 5.72265625 50.10546875 C5.39265625 49.11546875 5.06265625 48.12546875 4.72265625 47.10546875 C3.58828125 47.76546875 2.45390625 48.42546875 1.28515625 49.10546875 C-4.65537095 52.05474109 -9.59997119 51.84405428 -15.90234375 50.10546875 C-21.82532227 46.59555556 -26.14937025 41.70512849 -28.27734375 35.10546875 C-29.98098596 24.62257356 -29.83767746 14.77518824 -23.70703125 5.796875 C-18.00305733 -0.95126901 -8.23123959 -3.23319703 0 0 Z M-6.65234375 19.23046875 C-8.58019528 22.641283 -8.99957012 24.25359477 -8.27734375 28.10546875 C-5.96182184 31.14872612 -4.46798783 32.81506775 -0.71484375 33.73046875 C1.920875 33.25923271 1.920875 33.25923271 4.03515625 30.98046875 C6.02854877 27.58431853 6.36807297 25.97796905 5.72265625 22.10546875 C4.24648951 19.13508185 4.24648951 19.13508185 1.72265625 17.10546875 C-2.26187956 16.27535712 -3.60177999 16.50101696 -6.65234375 19.23046875 Z " fill="#FFFFFF" transform="translate(879.27734375,44.89453125)"/>
<path d="M0 0 C6.6 0 13.2 0 20 0 C20.02578125 2.04703125 20.0515625 4.0940625 20.078125 6.203125 C20.11985489 8.19224995 20.16172403 10.18137465 20.20751953 12.17041016 C20.23569099 13.54951651 20.25692472 14.92878318 20.27099609 16.30810547 C20.29247545 18.29422949 20.34123132 20.27999909 20.390625 22.265625 C20.41157227 23.45961914 20.43251953 24.65361328 20.45410156 25.88378906 C21.09961048 29.56861724 21.99911832 30.81815697 25 33 C28.17037671 33.01370127 28.17037671 33.01370127 31 32 C32.44962183 29.10075634 32.22126481 26.47699645 32.31640625 23.2421875 C32.33718735 22.57913605 32.35796844 21.91608459 32.37937927 21.23294067 C32.44479231 19.11373306 32.50372105 16.994401 32.5625 14.875 C32.60569309 13.43878919 32.64930764 12.00259098 32.69335938 10.56640625 C32.80125909 7.04439656 32.90039243 3.52229312 33 0 C39.93 0 46.86 0 54 0 C54 16.5 54 33 54 50 C47.07 50 40.14 50 33 50 C32.505 48.02 32.505 48.02 32 46 C31.0925 46.639375 30.185 47.27875 29.25 47.9375 C24.34232257 51.0519876 20.82627631 51.38841842 15 51 C8.79990282 49.60910368 5.55442286 47.22709244 2 42 C-0.30580398 37.55768527 -0.259762 33.30993732 -0.1953125 28.41796875 C-0.1924826 27.60378983 -0.18965271 26.7896109 -0.18673706 25.95075989 C-0.17558584 23.362854 -0.15049083 20.77530042 -0.125 18.1875 C-0.11496365 16.42773939 -0.10583894 14.66797333 -0.09765625 12.90820312 C-0.07736875 8.60522543 -0.03821119 4.30300482 0 0 Z " fill="#FFFFFF" transform="translate(508,45)"/>
<path d="M0 0 C6.02509455 5.14809591 9.44216641 10.96555186 10.3125 18.8203125 C10.63900176 26.79919916 9.50052007 33.81201888 4.26953125 40.0703125 C-1.98034875 46.03327186 -8.4126863 48.08821186 -16.9375 48.4375 C-24.1340047 48.24473648 -29.70604639 45.97637217 -35.8125 42.3125 C-42.28875005 35.46617852 -44.21698443 28.33033046 -44 19 C-43.33833493 12.27887584 -40.27466793 6.08709745 -35.36328125 1.45703125 C-25.49075819 -6.10820552 -10.53853326 -6.59352872 0 0 Z M-22 17 C-23.68570955 20.3714191 -23.31285148 23.71383279 -22.4375 27.3125 C-20.96171965 29.39480335 -20.96171965 29.39480335 -17.375 29.75 C-16.26125 29.8325 -15.1475 29.915 -14 30 C-11.45743345 27.45743345 -10.74271329 25.50524005 -10.625 22 C-10.73946893 19.33237636 -11.01984926 17.95821209 -12.1875 15.5 C-13.93963041 13.7979026 -13.93963041 13.7979026 -16.5 13.5625 C-19.38895853 14.06806774 -20.2374154 14.70864002 -22 17 Z " fill="#FFFFFF" transform="translate(742,48)"/>
<path d="M0 0 C4.61609855 2.93751726 6.69820316 6.14065111 9 11 C9 12.65 9 14.3 9 16 C4.05 16.33 -0.9 16.66 -6 17 C-4.2675 17.556875 -2.535 18.11375 -0.75 18.6875 C4.74199271 20.67111176 7.37283797 22.74567593 10 28 C10.41593526 32.51929654 10.55848834 36.64787033 8.8125 40.875 C3.99145968 46.52725417 -0.70432476 48.62498073 -7.953125 49.2578125 C-16.25808908 49.55301264 -24.22983009 48.78356851 -30.9453125 43.45703125 C-34.85263374 39.33263661 -35.76869697 35.46993605 -37 30 C-33.75030231 29.88361964 -30.5011417 29.81269419 -27.25 29.75 C-26.32960938 29.71648437 -25.40921875 29.68296875 -24.4609375 29.6484375 C-17.54977299 29.5482757 -17.54977299 29.5482757 -14.546875 32.015625 C-14.03640625 32.67046875 -13.5259375 33.3253125 -13 34 C-12.01 34 -11.02 34 -10 34 C-9.67 33.01 -9.34 32.02 -9 31 C-9.99 30.82984375 -10.98 30.6596875 -12 30.484375 C-29.49163664 27.33145214 -29.49163664 27.33145214 -35 21 C-36.44932983 16.65201052 -36.51669065 12.54404655 -36 8 C-33.4176116 2.92745136 -30.57211643 0.00728837 -25.296875 -2.05859375 C-16.90271097 -4.45550552 -7.77321855 -3.9572749 0 0 Z M-16 11 C-16.99 12.485 -16.99 12.485 -18 14 C-14.91190305 15.76462683 -13.76687864 16 -10 16 C-10.71563266 13.9837767 -10.71563266 13.9837767 -12 12 C-14.05000871 11.19471111 -14.05000871 11.19471111 -16 11 Z " fill="#FFFFFF" transform="translate(948,47)"/>
<path d="M0 0 C4.61609855 2.93751726 6.69820316 6.14065111 9 11 C9 12.65 9 14.3 9 16 C4.05 16.33 -0.9 16.66 -6 17 C-4.2675 17.556875 -2.535 18.11375 -0.75 18.6875 C4.74199271 20.67111176 7.37283797 22.74567593 10 28 C10.41593526 32.51929654 10.55848834 36.64787033 8.8125 40.875 C3.99145968 46.52725417 -0.70432476 48.62498073 -7.953125 49.2578125 C-16.25808908 49.55301264 -24.22983009 48.78356851 -30.9453125 43.45703125 C-34.85263374 39.33263661 -35.76869697 35.46993605 -37 30 C-33.75030231 29.88361964 -30.5011417 29.81269419 -27.25 29.75 C-26.32960937 29.71648437 -25.40921875 29.68296875 -24.4609375 29.6484375 C-17.54977299 29.5482757 -17.54977299 29.5482757 -14.546875 32.015625 C-14.03640625 32.67046875 -13.5259375 33.3253125 -13 34 C-12.01 34 -11.02 34 -10 34 C-9.67 33.01 -9.34 32.02 -9 31 C-9.99 30.82984375 -10.98 30.6596875 -12 30.484375 C-29.49163664 27.33145214 -29.49163664 27.33145214 -35 21 C-36.44932983 16.65201052 -36.51669065 12.54404655 -36 8 C-33.4176116 2.92745136 -30.57211643 0.00728837 -25.296875 -2.05859375 C-16.90271097 -4.45550552 -7.77321855 -3.9572749 0 0 Z M-16 11 C-16.99 12.485 -16.99 12.485 -18 14 C-14.91190305 15.76462683 -13.76687864 16 -10 16 C-10.71563266 13.9837767 -10.71563266 13.9837767 -12 12 C-14.05000871 11.19471111 -14.05000871 11.19471111 -16 11 Z " fill="#FFFFFF" transform="translate(204,47)"/>
<path d="M0 0 C17.49 0 34.98 0 53 0 C53 5.28 53 10.56 53 16 C47.39 16 41.78 16 36 16 C36 31.51 36 47.02 36 63 C29.4 63 22.8 63 16 63 C16 47.49 16 31.98 16 16 C10.72 16 5.44 16 0 16 C0 10.72 0 5.44 0 0 Z " fill="#FFFFFF" transform="translate(582,32)"/>
<path d="M0 0 C6.93 0 13.86 0 21 0 C21 21.78 21 43.56 21 66 C14.07 66 7.14 66 0 66 C0 44.22 0 22.44 0 0 Z " fill="#FFFFFF" transform="translate(479,29)"/>
<path d="M0 0 C0 7.26 0 14.52 0 22 C-2.59875 22.1546875 -2.59875 22.1546875 -5.25 22.3125 C-9.49034981 22.56490177 -11.92724323 22.98521977 -15 26 C-15.64249463 28.69732889 -15.64249463 28.69732889 -15.609375 31.76171875 C-15.64160156 32.87998047 -15.67382812 33.99824219 -15.70703125 35.15039062 C-15.72830078 36.90125977 -15.72830078 36.90125977 -15.75 38.6875 C-15.79447266 40.45577148 -15.79447266 40.45577148 -15.83984375 42.25976562 C-15.91060588 45.17280683 -15.95755876 48.08640856 -16 51 C-22.93 51 -29.86 51 -37 51 C-37 34.5 -37 18 -37 1 C-30.07 1 -23.14 1 -16 1 C-15.67 2.65 -15.34 4.3 -15 6 C-14.45730469 5.65066406 -13.91460937 5.30132812 -13.35546875 4.94140625 C-12.64003906 4.48636719 -11.92460937 4.03132813 -11.1875 3.5625 C-10.47980469 3.11003906 -9.77210938 2.65757813 -9.04296875 2.19140625 C-5.80372288 0.30236229 -3.80139296 0 0 0 Z " fill="#FFFFFF" transform="translate(165,44)"/>
<path d="M0 0 C6.93 0 13.86 0 21 0 C21 16.5 21 33 21 50 C14.07 50 7.14 50 0 50 C0 33.5 0 17 0 0 Z " fill="#FFFFFF" transform="translate(451,45)"/>
<path d="M0 0 C0.66 0 1.32 0 2 0 C4 0 6 0 8 0 C8.08732726 3.89569135 8.14050185 7.79112982 8.1875 11.6875 C8.21263672 12.79029297 8.23777344 13.89308594 8.26367188 15.02929688 C8.27333984 16.09599609 8.28300781 17.16269531 8.29296875 18.26171875 C8.3086792 19.24100342 8.32438965 20.22028809 8.34057617 21.22924805 C7.81972266 25.46664339 6.03852319 28.08365601 2.875 30.875 C-1.27700116 32.49969611 -4.74791842 32.27639339 -9 31 C-12.0625 28.625 -12.0625 28.625 -14 26 C-14 25.01 -14 24.02 -14 23 C-11.125 22.875 -11.125 22.875 -8 23 C-7.34 23.66 -6.68 24.32 -6 25 C-2.41656024 25.16677282 -2.41656024 25.16677282 1 25 C1 23.35 1 21.7 1 20 C0.484375 20.350625 -0.03125 20.70125 -0.5625 21.0625 C-4.06579842 22.40992247 -6.39462669 21.90134333 -10 21 C-12.83989127 18.68324659 -14.82093847 16.75273691 -15.203125 13.01171875 C-15.30031515 8.19270735 -15.26046348 4.8426891 -12 1 C-8.29336112 -2.02022427 -4.41326194 -0.71181644 0 0 Z M-7.875 6.6875 C-9.30124388 9.61922354 -9.04230389 10.95326554 -8 14 C-6.17213728 16.20857238 -6.17213728 16.20857238 -3.5625 16.4375 C-0.80718764 16.24237065 -0.80718764 16.24237065 0.9375 13.8125 C2.299735 11.03900999 2.299735 11.03900999 1.25 8.25 C0.18887078 6.09729707 0.18887078 6.09729707 -1 5 C-4.16347861 4.58375281 -5.4575748 4.51181732 -7.875 6.6875 Z " fill="#F9669D" transform="translate(476,121)"/>
<path d="M0 0 C0.66 0 1.32 0 2 0 C4 0 6 0 8 0 C8.08732726 3.89569135 8.14050185 7.79112982 8.1875 11.6875 C8.21263672 12.79029297 8.23777344 13.89308594 8.26367188 15.02929688 C8.27333984 16.09599609 8.28300781 17.16269531 8.29296875 18.26171875 C8.3086792 19.24100342 8.32438965 20.22028809 8.34057617 21.22924805 C7.81972266 25.46664339 6.03852319 28.08365601 2.875 30.875 C-1.27700116 32.49969611 -4.74791842 32.27639339 -9 31 C-12.0625 28.625 -12.0625 28.625 -14 26 C-14 25.01 -14 24.02 -14 23 C-11.125 22.875 -11.125 22.875 -8 23 C-7.34 23.66 -6.68 24.32 -6 25 C-2.41656024 25.16677282 -2.41656024 25.16677282 1 25 C1 23.35 1 21.7 1 20 C0.484375 20.350625 -0.03125 20.70125 -0.5625 21.0625 C-4.06579842 22.40992247 -6.39462669 21.90134333 -10 21 C-12.83989127 18.68324659 -14.82093847 16.75273691 -15.203125 13.01171875 C-15.30031515 8.19270735 -15.26046348 4.8426891 -12 1 C-8.29336112 -2.02022427 -4.41326194 -0.71181644 0 0 Z M-7.875 6.6875 C-9.30124388 9.61922354 -9.04230389 10.95326554 -8 14 C-6.17213728 16.20857238 -6.17213728 16.20857238 -3.5625 16.4375 C-0.80718764 16.24237065 -0.80718764 16.24237065 0.9375 13.8125 C2.299735 11.03900999 2.299735 11.03900999 1.25 8.25 C0.18887078 6.09729707 0.18887078 6.09729707 -1 5 C-4.16347861 4.58375281 -5.4575748 4.51181732 -7.875 6.6875 Z " fill="#F9669D" transform="translate(268,121)"/>
<path d="M0 0 C2.93038162 1.2469709 4.41759241 2.22345655 6.3125 4.75 C7.31199111 8.0210618 7.3581657 10.59742588 7 14 C5.20437595 16.75329021 3.94745078 18.52627461 1 20 C-4.06604257 20.57944931 -9.33722403 21.09830409 -13.6875 18.0625 C-16.38856677 14.48541157 -16.82036603 12.54409275 -16.53515625 8.15625 C-15.68336565 4.72421781 -13.74511226 3.0915141 -11 1 C-7.5507568 -0.7246216 -3.77868569 -0.36610104 0 0 Z " fill="#FFFFFF" transform="translate(466,21)"/>
<path d="M0 0 C2.7682485 1.81368005 2.97690674 2.89293126 3.6875 6.1875 C3.790625 7.115625 3.89375 8.04375 4 9 C2.02 9 0.04 9 -2 9 C-2.33 8.01 -2.66 7.02 -3 6 C-3.99 6.33 -4.98 6.66 -6 7 C-0.51398945 14.73740811 -0.51398945 14.73740811 5.5 22.0625 C8 25 8 25 8 27 C4.05272412 27.17942163 1.4019487 27.09350689 -2 25 C-2.515625 25.515625 -3.03125 26.03125 -3.5625 26.5625 C-6 28 -6 28 -9.5 27.9375 C-13.37694159 26.8990335 -14.83860413 26.37177756 -17 23 C-17.7202381 17.95833333 -17.7202381 17.95833333 -17 15 C-15.33333333 13.33333333 -13.66666667 11.66666667 -12 10 C-11.55305726 7.19740609 -11.75774506 4.85860831 -12 2 C-7.57309144 -0.63506462 -4.99765908 -1.55482727 0 0 Z M-11 16 C-12.01111093 19.04913228 -12.01111093 19.04913228 -11 22 C-9.35 22 -7.7 22 -6 22 C-4.98888907 18.95086772 -4.98888907 18.95086772 -6 16 C-7.65 16 -9.3 16 -11 16 Z " fill="#F9669D" transform="translate(558,115)"/>
<path d="M0 0 C2.4378712 2.65297749 3.25785845 4.84393378 4.125 8.3125 C0.875 8.5625 0.875 8.5625 -2.875 8.3125 C-4.20833333 6.97916667 -5.54166667 5.64583333 -6.875 4.3125 C-9.97793293 4.06572994 -9.97793293 4.06572994 -12.875 5.3125 C-15.06184899 7.64043603 -15.89976719 9.19797637 -15.828125 12.421875 C-15.59003127 14.39665241 -15.23956319 16.3571156 -14.875 18.3125 C-10.88887058 19.12173543 -10.88887058 19.12173543 -6.875 19.3125 C-5.5006709 18.02146357 -4.16603643 16.6868291 -2.875 15.3125 C0.875 15.0625 0.875 15.0625 4.125 15.3125 C3.26789583 18.74091668 2.43114549 20.96924596 0.0625 23.625 C-3.88870619 25.89484186 -7.33531637 26.51301606 -11.875 26.3125 C-16.61717807 24.70194896 -19.0903254 22.43794386 -21.875 18.3125 C-23.44340852 13.60727445 -23.42395539 9.78601184 -21.6875 5.125 C-19.38404026 1.55066593 -16.96283075 -0.75157587 -13.0625 -2.5 C-8.11191846 -2.92433556 -4.24627931 -2.49238134 0 0 Z " fill="#F9669D" transform="translate(671.875,116.6875)"/>
<path d="M0 0 C2.4378712 2.65297749 3.25785845 4.84393378 4.125 8.3125 C0.875 8.5625 0.875 8.5625 -2.875 8.3125 C-4.20833333 6.97916667 -5.54166667 5.64583333 -6.875 4.3125 C-9.97793293 4.06572994 -9.97793293 4.06572994 -12.875 5.3125 C-15.06184899 7.64043603 -15.89976719 9.19797637 -15.828125 12.421875 C-15.59003127 14.39665241 -15.23956319 16.3571156 -14.875 18.3125 C-10.88887058 19.12173543 -10.88887058 19.12173543 -6.875 19.3125 C-5.5006709 18.02146357 -4.16603643 16.6868291 -2.875 15.3125 C0.875 15.0625 0.875 15.0625 4.125 15.3125 C3.26789583 18.74091668 2.43114549 20.96924596 0.0625 23.625 C-3.88870619 25.89484186 -7.33531637 26.51301606 -11.875 26.3125 C-16.61717807 24.70194896 -19.0903254 22.43794386 -21.875 18.3125 C-23.44340852 13.60727445 -23.42395539 9.78601184 -21.6875 5.125 C-19.38404026 1.55066593 -16.96283075 -0.75157587 -13.0625 -2.5 C-8.11191846 -2.92433556 -4.24627931 -2.49238134 0 0 Z " fill="#F9669D" transform="translate(71.875,116.6875)"/>
<path d="M0 0 C6.6 0 13.2 0 20 0 C20 6.27 20 12.54 20 19 C13.4 19 6.8 19 0 19 C0 12.73 0 6.46 0 0 Z " fill="#FFFFFF" transform="translate(218,76)"/>
<path d="M0 0 C0.66 0 1.32 0 2 0 C3.98 0 5.96 0 8 0 C8 6.93 8 13.86 8 21 C5 21 2 21 -1 21 C-2.3921875 21.3403125 -2.3921875 21.3403125 -3.8125 21.6875 C-7.83994407 22.08234746 -9.65112333 21.20721417 -13 19 C-15.61577455 14.83249478 -15.55457571 10.77788306 -15 6 C-13.76513134 3.09805864 -12.73249057 1.59684416 -10.3125 -0.375 C-6.71712344 -1.3467234 -3.6665208 -0.59137432 0 0 Z M-7.875 6.6875 C-9.30124388 9.61922354 -9.04230389 10.95326554 -8 14 C-6.17213728 16.20857238 -6.17213728 16.20857238 -3.5625 16.4375 C-0.80718764 16.24237065 -0.80718764 16.24237065 0.9375 13.8125 C2.299735 11.03900999 2.299735 11.03900999 1.25 8.25 C0.18887078 6.09729707 0.18887078 6.09729707 -1 5 C-4.16347861 4.58375281 -5.4575748 4.51181732 -7.875 6.6875 Z " fill="#F9669D" transform="translate(944,121)"/>
<path d="M0 0 C0.66 0 1.32 0 2 0 C3.98 0 5.96 0 8 0 C8 6.93 8 13.86 8 21 C5 21 2 21 -1 21 C-2.3921875 21.3403125 -2.3921875 21.3403125 -3.8125 21.6875 C-7.83994407 22.08234746 -9.65112333 21.20721417 -13 19 C-15.61577455 14.83249478 -15.55457571 10.77788306 -15 6 C-13.76513134 3.09805864 -12.73249057 1.59684416 -10.3125 -0.375 C-6.71712344 -1.3467234 -3.6665208 -0.59137432 0 0 Z M-7.875 6.6875 C-9.30124388 9.61922354 -9.04230389 10.95326554 -8 14 C-6.17213728 16.20857238 -6.17213728 16.20857238 -3.5625 16.4375 C-0.80718764 16.24237065 -0.80718764 16.24237065 0.9375 13.8125 C2.299735 11.03900999 2.299735 11.03900999 1.25 8.25 C0.18887078 6.09729707 0.18887078 6.09729707 -1 5 C-4.16347861 4.58375281 -5.4575748 4.51181732 -7.875 6.6875 Z " fill="#F9669D" transform="translate(908,121)"/>
<path d="M0 0 C0.66 0 1.32 0 2 0 C3.98 0 5.96 0 8 0 C8 6.93 8 13.86 8 21 C5 21 2 21 -1 21 C-2.3921875 21.3403125 -2.3921875 21.3403125 -3.8125 21.6875 C-7.83994407 22.08234746 -9.65112333 21.20721417 -13 19 C-15.61577455 14.83249478 -15.55457571 10.77788306 -15 6 C-13.76513134 3.09805864 -12.73249057 1.59684416 -10.3125 -0.375 C-6.71712344 -1.3467234 -3.6665208 -0.59137432 0 0 Z M-7.875 6.6875 C-9.30124388 9.61922354 -9.04230389 10.95326554 -8 14 C-6.17213728 16.20857238 -6.17213728 16.20857238 -3.5625 16.4375 C-0.80718764 16.24237065 -0.80718764 16.24237065 0.9375 13.8125 C2.299735 11.03900999 2.299735 11.03900999 1.25 8.25 C0.18887078 6.09729707 0.18887078 6.09729707 -1 5 C-4.16347861 4.58375281 -5.4575748 4.51181732 -7.875 6.6875 Z " fill="#F9669D" transform="translate(717,121)"/>
<path d="M0 0 C1.98 0 3.96 0 6 0 C6.33 2.97 6.66 5.94 7 9 C7.4846875 8.3503125 7.969375 7.700625 8.46875 7.03125 C13.87852238 0.28984135 13.87852238 0.28984135 17.3125 -0.59765625 C19.5 -0.5625 19.5 -0.5625 23 0 C16.84965831 8.44646925 16.84965831 8.44646925 13 12 C14.3686205 16.06264191 16.20547649 18.63165589 19.125 21.75 C23 25.91459075 23 25.91459075 23 27 C19.83049936 27.50938403 18.04891082 27.78797864 15 27 C11.90544986 24.31840503 9.44372456 21.27563079 7 18 C6.67 20.97 6.34 23.94 6 27 C4.02 27 2.04 27 0 27 C0 18.09 0 9.18 0 0 Z " fill="#F9669D" transform="translate(830,115)"/>
<path d="M0 0 C1.98 0 3.96 0 6 0 C6.33 2.97 6.66 5.94 7 9 C7.99 8.34 8.98 7.68 10 7 C12.875 6.5625 12.875 6.5625 16 7 C18.71966716 9.00898041 20.71500401 10.57310852 21.40039062 14.00463867 C21.49172492 16.29332394 21.43710172 18.52557923 21.3125 20.8125 C21.28994141 21.60076172 21.26738281 22.38902344 21.24414062 23.20117188 C21.18554161 25.13493929 21.09586827 27.06772167 21 29 C19.02 29 17.04 29 15 29 C14.67 24.05 14.34 19.1 14 14 C10.26847757 12.56726565 10.26847757 12.56726565 8.29296875 14.01953125 C6.43254948 16.86917647 6.4794658 19.31479092 6.3125 22.6875 C6.24675781 23.86699219 6.18101562 25.04648438 6.11328125 26.26171875 C6.07589844 27.16535156 6.03851562 28.06898438 6 29 C4.02 29 2.04 29 0 29 C0 19.43 0 9.86 0 0 Z " fill="#F9669D" transform="translate(753,113)"/>
<path d="M0 0 C1.98 0 3.96 0 6 0 C6.33 2.97 6.66 5.94 7 9 C7.99 8.34 8.98 7.68 10 7 C12.875 6.5625 12.875 6.5625 16 7 C18.71966716 9.00898041 20.71500401 10.57310852 21.40039062 14.00463867 C21.49172492 16.29332394 21.43710172 18.52557923 21.3125 20.8125 C21.28994141 21.60076172 21.26738281 22.38902344 21.24414062 23.20117188 C21.18554161 25.13493929 21.09586827 27.06772167 21 29 C19.02 29 17.04 29 15 29 C14.67 24.05 14.34 19.1 14 14 C10.26847757 12.56726565 10.26847757 12.56726565 8.29296875 14.01953125 C6.43254948 16.86917647 6.4794658 19.31479092 6.3125 22.6875 C6.24675781 23.86699219 6.18101562 25.04648438 6.11328125 26.26171875 C6.07589844 27.16535156 6.03851563 28.06898438 6 29 C4.02 29 2.04 29 0 29 C0 19.43 0 9.86 0 0 Z " fill="#F9669D" transform="translate(378,113)"/>
<path d="M0 0 C2.5 1.5625 2.5 1.5625 4 4 C4.59985024 6.7044972 4.81454444 9.21816666 5 12 C-0.28 12 -5.56 12 -11 12 C-9.68 13.32 -8.36 14.64 -7 16 C-5.68 16 -4.36 16 -3 16 C-2.67 15.01 -2.34 14.02 -2 13 C-0.02 13 1.96 13 4 13 C3.68461012 15.91735638 3.39881041 17.57051187 1.375 19.75 C-2.61358524 21.84925539 -6.29034566 22.39759403 -10.6875 21.375 C-13.75740595 19.54965052 -15.20726402 18.12068856 -17 15 C-17.76974669 11.137012 -17.89504095 7.64318587 -15.9765625 4.12109375 C-11.37598308 -1.6644834 -6.70821497 -1.52845404 0 0 Z M-9.25 5.3125 C-9.8275 5.869375 -10.405 6.42625 -11 7 C-11 7.66 -11 8.32 -11 9 C-8.03 9 -5.06 9 -2 9 C-2.33 7.68 -2.66 6.36 -3 5 C-5.78313821 3.90662428 -6.59946354 3.76635373 -9.25 5.3125 Z " fill="#F9669D" transform="translate(871,121)"/>
<path d="M0 0 C2.5 1.5625 2.5 1.5625 4 4 C4.59985024 6.7044972 4.81454444 9.21816666 5 12 C-0.28 12 -5.56 12 -11 12 C-9.68 13.32 -8.36 14.64 -7 16 C-5.68 16 -4.36 16 -3 16 C-2.67 15.01 -2.34 14.02 -2 13 C-0.02 13 1.96 13 4 13 C3.68461012 15.91735638 3.39881041 17.57051187 1.375 19.75 C-2.61358524 21.84925539 -6.29034566 22.39759403 -10.6875 21.375 C-13.75740595 19.54965052 -15.20726402 18.12068856 -17 15 C-17.76974669 11.137012 -17.89504095 7.64318587 -15.9765625 4.12109375 C-11.37598308 -1.6644834 -6.70821497 -1.52845404 0 0 Z M-9.25 5.3125 C-9.8275 5.869375 -10.405 6.42625 -11 7 C-11 7.66 -11 8.32 -11 9 C-8.03 9 -5.06 9 -2 9 C-2.33 7.68 -2.66 6.36 -3 5 C-5.78313821 3.90662428 -6.59946354 3.76635373 -9.25 5.3125 Z " fill="#F9669D" transform="translate(634,121)"/>
<path d="M0 0 C2.5 1.5625 2.5 1.5625 4 4 C4.59985024 6.7044972 4.81454444 9.21816666 5 12 C-0.28 12 -5.56 12 -11 12 C-9.68 13.32 -8.36 14.64 -7 16 C-5.68 16 -4.36 16 -3 16 C-2.67 15.01 -2.34 14.02 -2 13 C-0.02 13 1.96 13 4 13 C3.68461012 15.91735638 3.39881041 17.57051187 1.375 19.75 C-2.61358524 21.84925539 -6.29034566 22.39759403 -10.6875 21.375 C-13.75740595 19.54965052 -15.20726402 18.12068856 -17 15 C-17.76974669 11.137012 -17.89504095 7.64318587 -15.9765625 4.12109375 C-11.37598308 -1.6644834 -6.70821497 -1.52845404 0 0 Z M-9.25 5.3125 C-9.8275 5.869375 -10.405 6.42625 -11 7 C-11 7.66 -11 8.32 -11 9 C-8.03 9 -5.06 9 -2 9 C-2.33 7.68 -2.66 6.36 -3 5 C-5.78313821 3.90662428 -6.59946354 3.76635373 -9.25 5.3125 Z " fill="#F9669D" transform="translate(190,121)"/>
<path d="M0 0 C2.371875 -0.103125 4.74375 -0.20625 7.1875 -0.3125 C7.92508545 -0.35802002 8.6626709 -0.40354004 9.42260742 -0.45043945 C13.26947109 -0.53096124 14.88049613 -0.09168286 17.953125 2.265625 C21.00917929 6.34814027 20.71264588 8.01147884 20 13 C18.625 15.5 18.625 15.5 16 17 C12.59261423 17.3204438 9.43812659 17.18095403 6 17 C6 20.3 6 23.6 6 27 C4.02 27 2.04 27 0 27 C0 18.09 0 9.18 0 0 Z M6 5 C6 7.31 6 9.62 6 12 C8.31 12 10.62 12 13 12 C13.67958603 9.60280568 13.67958603 9.60280568 14 7 C12.10244856 4.65026182 12.10244856 4.65026182 8.875 4.875 C7.92625 4.91625 6.9775 4.9575 6 5 Z " fill="#F9669D" transform="translate(288,115)"/>
<path d="M0 0 C3.0625 1.9375 3.0625 1.9375 5 5 C5.76431356 10.02495513 5.76545216 14.60948833 3 19 C-1.15748151 21.870642 -4.25731431 22.42652662 -9.1015625 21.58203125 C-12.03934648 20.68135262 -13.88194918 19.18223418 -16 17 C-17.2438276 13.2685172 -17.6643142 9.86908268 -17 6 C-12.98938454 -1.21601083 -7.43443327 -1.83582328 0 0 Z M-9.875 6.125 C-11.28536955 8.07474484 -11.28536955 8.07474484 -10.8125 11.0625 C-10.23351637 14.09515868 -10.23351637 14.09515868 -8 16 C-5.5 16.41666667 -5.5 16.41666667 -3 16 C-0.69836118 12.54754176 -0.65509678 11.05261287 -1 7 C-2.82203581 4.77033253 -2.82203581 4.77033253 -5.4375 4.6875 C-7.99282027 4.82275592 -7.99282027 4.82275592 -9.875 6.125 Z " fill="#F9669D" transform="translate(695,121)"/>
<path d="M0 0 C3.0625 1.9375 3.0625 1.9375 5 5 C5.76431356 10.02495513 5.76545216 14.60948833 3 19 C-1.15748151 21.870642 -4.25731431 22.42652662 -9.1015625 21.58203125 C-12.03934648 20.68135262 -13.88194918 19.18223418 -16 17 C-17.2438276 13.2685172 -17.6643142 9.86908268 -17 6 C-12.98938454 -1.21601083 -7.43443327 -1.83582328 0 0 Z M-9.875 6.125 C-11.28536955 8.07474484 -11.28536955 8.07474484 -10.8125 11.0625 C-10.23351637 14.09515868 -10.23351637 14.09515868 -8 16 C-5.5 16.41666667 -5.5 16.41666667 -3 16 C-0.69836118 12.54754176 -0.65509678 11.05261287 -1 7 C-2.82203581 4.77033253 -2.82203581 4.77033253 -5.4375 4.6875 C-7.99282027 4.82275592 -7.99282027 4.82275592 -9.875 6.125 Z " fill="#F9669D" transform="translate(454,121)"/>
<path d="M0 0 C3.0625 1.9375 3.0625 1.9375 5 5 C5.76431356 10.02495513 5.76545216 14.60948833 3 19 C-1.15748151 21.870642 -4.25731431 22.42652662 -9.1015625 21.58203125 C-12.03934648 20.68135262 -13.88194918 19.18223418 -16 17 C-17.2438276 13.2685172 -17.6643142 9.86908268 -17 6 C-12.98938454 -1.21601083 -7.43443327 -1.83582328 0 0 Z M-9.875 6.125 C-11.28536955 8.07474484 -11.28536955 8.07474484 -10.8125 11.0625 C-10.23351637 14.09515868 -10.23351637 14.09515868 -8 16 C-5.5 16.41666667 -5.5 16.41666667 -3 16 C-0.69836118 12.54754176 -0.65509678 11.05261287 -1 7 C-2.82203581 4.77033253 -2.82203581 4.77033253 -5.4375 4.6875 C-7.99282027 4.82275592 -7.99282027 4.82275592 -9.875 6.125 Z " fill="#F9669D" transform="translate(419,121)"/>
<path d="M0 0 C3.0625 1.9375 3.0625 1.9375 5 5 C5.76431356 10.02495513 5.76545216 14.60948833 3 19 C-1.15748151 21.870642 -4.25731431 22.42652662 -9.1015625 21.58203125 C-12.03934648 20.68135262 -13.88194918 19.18223418 -16 17 C-17.2438276 13.2685172 -17.6643142 9.86908268 -17 6 C-12.98938454 -1.21601083 -7.43443327 -1.83582328 0 0 Z M-9.875 6.125 C-11.28536955 8.07474484 -11.28536955 8.07474484 -10.8125 11.0625 C-10.23351637 14.09515868 -10.23351637 14.09515868 -8 16 C-5.5 16.41666667 -5.5 16.41666667 -3 16 C-0.69836118 12.54754176 -0.65509678 11.05261287 -1 7 C-2.82203581 4.77033253 -2.82203581 4.77033253 -5.4375 4.6875 C-7.99282027 4.82275592 -7.99282027 4.82275592 -9.875 6.125 Z " fill="#F9669D" transform="translate(95,121)"/>
<path d="M0 0 C2.31 0 4.62 0 7 0 C8.65 3.63 10.3 7.26 12 11 C13.32 7.37 14.64 3.74 16 0 C18.31 0 20.62 0 23 0 C20.99765361 7.31905848 18.36796037 14.18564502 15.3125 21.125 C14.89677734 22.08148438 14.48105469 23.03796875 14.05273438 24.0234375 C13.04015854 26.35119804 12.02253838 28.67660297 11 31 C8.69 31 6.38 31 4 31 C4.34224609 30.12988281 4.34224609 30.12988281 4.69140625 29.2421875 C4.97886719 28.46101563 5.26632812 27.67984375 5.5625 26.875 C5.85253906 26.10929687 6.14257812 25.34359375 6.44140625 24.5546875 C7.6996724 18.80009965 5.29370252 13.91068488 2.9375 8.75 C0 2.24313501 0 2.24313501 0 0 Z " fill="#F9669D" transform="translate(329,121)"/>
<path d="M0 0 C1.98 0 3.96 0 6 0 C6.06058594 0.99902344 6.12117188 1.99804688 6.18359375 3.02734375 C6.26738281 4.31769531 6.35117188 5.60804687 6.4375 6.9375 C6.51871094 8.22527344 6.59992188 9.51304687 6.68359375 10.83984375 C6.64919188 13.86023957 6.64919188 13.86023957 8 15 C9.66617115 15.04063832 11.33388095 15.042721 13 15 C14.41634833 12.16730334 14.3463005 9.52533562 14.5625 6.375 C14.64628906 5.18648438 14.73007813 3.99796875 14.81640625 2.7734375 C14.87699219 1.85820313 14.93757813 0.94296875 15 0 C16.98 0 18.96 0 21 0 C21 6.93 21 13.86 21 21 C18.33333333 21 15.66666667 21 13 21 C11.906875 21.226875 10.81375 21.45375 9.6875 21.6875 C5.5469888 22.03839078 4.19804766 21.53962608 1 19 C-0.65497356 15.69005287 -0.10084335 12.00877 -0.0625 8.375 C-0.05798828 7.57320312 -0.05347656 6.77140625 -0.04882812 5.9453125 C-0.03703168 3.96350994 -0.01909605 1.98174567 0 0 Z " fill="#F9669D" transform="translate(103,121)"/>
<path d="M0 0 C2.72590774 2.00668135 4.71453047 3.56969139 5.40014648 7.00488281 C5.49174285 9.29352338 5.43709979 11.52561463 5.3125 13.8125 C5.28994141 14.60076172 5.26738281 15.38902344 5.24414062 16.20117188 C5.18554161 18.13493929 5.09586827 20.06772167 5 22 C3.02 22 1.04 22 -1 22 C-1.33 17.05 -1.66 12.1 -2 7 C-5.73152243 5.56726565 -5.73152243 5.56726565 -7.70703125 7.01953125 C-9.56745052 9.86917647 -9.5205342 12.31479092 -9.6875 15.6875 C-9.75324219 16.86699219 -9.81898438 18.04648438 -9.88671875 19.26171875 C-9.92410156 20.16535156 -9.96148438 21.06898438 -10 22 C-11.98 22 -13.96 22 -16 22 C-16 15.07 -16 8.14 -16 1 C-13.33333333 1 -10.66666667 1 -8 1 C-5.11138291 -0.44430855 -3.20352299 -0.37688506 0 0 Z " fill="#F9669D" transform="translate(812,120)"/>
<path d="M0 0 C2.72590774 2.00668135 4.71453047 3.56969139 5.40014648 7.00488281 C5.49174285 9.29352338 5.43709979 11.52561463 5.3125 13.8125 C5.28994141 14.60076172 5.26738281 15.38902344 5.24414062 16.20117188 C5.18554161 18.13493929 5.09586827 20.06772167 5 22 C3.02 22 1.04 22 -1 22 C-1.33 17.05 -1.66 12.1 -2 7 C-5.73152243 5.56726565 -5.73152243 5.56726565 -7.70703125 7.01953125 C-9.56745052 9.86917647 -9.5205342 12.31479092 -9.6875 15.6875 C-9.75324219 16.86699219 -9.81898438 18.04648438 -9.88671875 19.26171875 C-9.92410156 20.16535156 -9.96148437 21.06898438 -10 22 C-11.98 22 -13.96 22 -16 22 C-16 15.07 -16 8.14 -16 1 C-13.33333333 1 -10.66666667 1 -8 1 C-5.11138291 -0.44430855 -3.20352299 -0.37688506 0 0 Z " fill="#F9669D" transform="translate(245,120)"/>
<path d="M0 0 C2.72590774 2.00668135 4.71453047 3.56969139 5.40014648 7.00488281 C5.49174285 9.29352338 5.43709979 11.52561463 5.3125 13.8125 C5.28994141 14.60076172 5.26738281 15.38902344 5.24414062 16.20117188 C5.18554161 18.13493929 5.09586827 20.06772167 5 22 C3.02 22 1.04 22 -1 22 C-1.33 17.05 -1.66 12.1 -2 7 C-5.73152243 5.56726565 -5.73152243 5.56726565 -7.70703125 7.01953125 C-9.56745052 9.86917647 -9.5205342 12.31479092 -9.6875 15.6875 C-9.75324219 16.86699219 -9.81898438 18.04648438 -9.88671875 19.26171875 C-9.92410156 20.16535156 -9.96148437 21.06898438 -10 22 C-11.98 22 -13.96 22 -16 22 C-16 15.07 -16 8.14 -16 1 C-13.33333333 1 -10.66666667 1 -8 1 C-5.11138291 -0.44430855 -3.20352299 -0.37688506 0 0 Z " fill="#F9669D" transform="translate(144,120)"/>
<path d="M0 0 C2.5625 1.8125 2.5625 1.8125 4 4 C4 5.32 4 6.64 4 8 C1.125 8.125 1.125 8.125 -2 8 C-2.66 7.34 -3.32 6.68 -4 6 C-6.58354218 5.83312552 -6.58354218 5.83312552 -9 6 C-9.72256829 10.48133574 -9.72256829 10.48133574 -10 15 C-7.08347826 15.16681109 -7.08347826 15.16681109 -4 15 C-3.34 14.34 -2.68 13.68 -2 13 C1.125 12.875 1.125 12.875 4 13 C3.68461012 15.91735638 3.39881041 17.57051187 1.375 19.75 C-2.61358524 21.84925539 -6.29034566 22.39759403 -10.6875 21.375 C-13.75740595 19.54965052 -15.20726402 18.12068856 -17 15 C-17.76974669 11.137012 -17.89504095 7.64318587 -15.9765625 4.12109375 C-11.39812455 -1.63663882 -6.68816846 -1.56942581 0 0 Z " fill="#F9669D" transform="translate(745,121)"/>
<path d="M0 0 C2.5625 1.8125 2.5625 1.8125 4 4 C4 5.32 4 6.64 4 8 C1.125 8.125 1.125 8.125 -2 8 C-2.66 7.34 -3.32 6.68 -4 6 C-6.58354218 5.83312552 -6.58354218 5.83312552 -9 6 C-9.72256829 10.48133574 -9.72256829 10.48133574 -10 15 C-7.08347826 15.16681109 -7.08347826 15.16681109 -4 15 C-3.34 14.34 -2.68 13.68 -2 13 C1.125 12.875 1.125 12.875 4 13 C3.68461012 15.91735638 3.39881041 17.57051187 1.375 19.75 C-2.61358524 21.84925539 -6.29034566 22.39759403 -10.6875 21.375 C-13.75740595 19.54965052 -15.20726402 18.12068856 -17 15 C-17.76974669 11.137012 -17.89504095 7.64318587 -15.9765625 4.12109375 C-11.39812455 -1.63663882 -6.68816846 -1.56942581 0 0 Z " fill="#F9669D" transform="translate(370,121)"/>
<path d="M0 0 C1.75 1.1875 1.75 1.1875 3.75 4.1875 C3.75 5.1775 3.75 6.1675 3.75 7.1875 C1.77 7.1875 -0.21 7.1875 -2.25 7.1875 C-2.58 6.5275 -2.91 5.8675 -3.25 5.1875 C-4.57 5.1875 -5.89 5.1875 -7.25 5.1875 C-7.58 5.8475 -7.91 6.5075 -8.25 7.1875 C-7.32767578 7.35185547 -7.32767578 7.35185547 -6.38671875 7.51953125 C-5.57847656 7.67808594 -4.77023437 7.83664063 -3.9375 8 C-3.13699219 8.15082031 -2.33648437 8.30164063 -1.51171875 8.45703125 C1.04909751 9.28409971 2.1387312 10.04761305 3.75 12.1875 C4.25 15.6875 4.25 15.6875 3.75 19.1875 C1.46351149 21.5477462 -0.18091453 22.12662681 -3.4453125 22.3125 C-7.68832322 22.08844663 -9.66365005 21.74524752 -12.8125 18.75 C-14.25 16.1875 -14.25 16.1875 -14.25 14.1875 C-11.375 14.0625 -11.375 14.0625 -8.25 14.1875 C-7.59 14.8475 -6.93 15.5075 -6.25 16.1875 C-4.14179203 15.8689823 -4.14179203 15.8689823 -2.25 15.1875 C-3.03246094 14.88457031 -3.81492187 14.58164063 -4.62109375 14.26953125 C-5.63300781 13.85058594 -6.64492188 13.43164062 -7.6875 13 C-8.69683594 12.59394531 -9.70617187 12.18789062 -10.74609375 11.76953125 C-13.25 10.1875 -13.25 10.1875 -14.17578125 7.68359375 C-14.27515386 4.3415359 -13.27972029 2.79714038 -11.25 0.1875 C-7.31134079 -1.1253864 -3.95356946 -1.42767786 0 0 Z " fill="#F9669D" transform="translate(511.25,120.8125)"/>
<path d="M0 0 C1.75 1.1875 1.75 1.1875 3.75 4.1875 C3.75 5.1775 3.75 6.1675 3.75 7.1875 C1.77 7.1875 -0.21 7.1875 -2.25 7.1875 C-2.58 6.5275 -2.91 5.8675 -3.25 5.1875 C-4.57 5.1875 -5.89 5.1875 -7.25 5.1875 C-7.58 5.8475 -7.91 6.5075 -8.25 7.1875 C-7.32767578 7.35185547 -7.32767578 7.35185547 -6.38671875 7.51953125 C-5.57847656 7.67808594 -4.77023437 7.83664063 -3.9375 8 C-3.13699219 8.15082031 -2.33648437 8.30164063 -1.51171875 8.45703125 C1.04909751 9.28409971 2.1387312 10.04761305 3.75 12.1875 C4.25 15.6875 4.25 15.6875 3.75 19.1875 C1.46351149 21.5477462 -0.18091453 22.12662681 -3.4453125 22.3125 C-7.68832322 22.08844663 -9.66365005 21.74524752 -12.8125 18.75 C-14.25 16.1875 -14.25 16.1875 -14.25 14.1875 C-11.375 14.0625 -11.375 14.0625 -8.25 14.1875 C-7.59 14.8475 -6.93 15.5075 -6.25 16.1875 C-4.14179203 15.8689823 -4.14179203 15.8689823 -2.25 15.1875 C-3.03246094 14.88457031 -3.81492187 14.58164063 -4.62109375 14.26953125 C-5.63300781 13.85058594 -6.64492188 13.43164062 -7.6875 13 C-8.69683594 12.59394531 -9.70617187 12.18789062 -10.74609375 11.76953125 C-13.25 10.1875 -13.25 10.1875 -14.17578125 7.68359375 C-14.27515386 4.3415359 -13.27972029 2.79714038 -11.25 0.1875 C-7.31134079 -1.1253864 -3.95356946 -1.42767786 0 0 Z " fill="#F9669D" transform="translate(324.25,120.8125)"/>
<path d="M0 0 C1.75 1.1875 1.75 1.1875 3.75 4.1875 C3.75 5.1775 3.75 6.1675 3.75 7.1875 C1.77 7.1875 -0.21 7.1875 -2.25 7.1875 C-2.58 6.5275 -2.91 5.8675 -3.25 5.1875 C-4.57 5.1875 -5.89 5.1875 -7.25 5.1875 C-7.58 5.8475 -7.91 6.5075 -8.25 7.1875 C-7.32767578 7.35185547 -7.32767578 7.35185547 -6.38671875 7.51953125 C-5.57847656 7.67808594 -4.77023438 7.83664063 -3.9375 8 C-3.13699219 8.15082031 -2.33648437 8.30164063 -1.51171875 8.45703125 C1.04909751 9.28409971 2.1387312 10.04761305 3.75 12.1875 C4.25 15.6875 4.25 15.6875 3.75 19.1875 C1.46351149 21.5477462 -0.18091453 22.12662681 -3.4453125 22.3125 C-7.68832322 22.08844663 -9.66365005 21.74524752 -12.8125 18.75 C-14.25 16.1875 -14.25 16.1875 -14.25 14.1875 C-11.375 14.0625 -11.375 14.0625 -8.25 14.1875 C-7.59 14.8475 -6.93 15.5075 -6.25 16.1875 C-4.14179203 15.8689823 -4.14179203 15.8689823 -2.25 15.1875 C-3.03246094 14.88457031 -3.81492188 14.58164063 -4.62109375 14.26953125 C-5.63300781 13.85058594 -6.64492187 13.43164062 -7.6875 13 C-8.69683594 12.59394531 -9.70617187 12.18789062 -10.74609375 11.76953125 C-13.25 10.1875 -13.25 10.1875 -14.17578125 7.68359375 C-14.27515386 4.3415359 -13.27972029 2.79714038 -11.25 0.1875 C-7.31134079 -1.1253864 -3.95356946 -1.42767786 0 0 Z " fill="#F9669D" transform="translate(167.25,120.8125)"/>
<path d="M0 0 C0 1.98 0 3.96 0 6 C-0.99 6.33 -1.98 6.66 -3 7 C-3.33 7.66 -3.66 8.32 -4 9 C-2.68 9 -1.36 9 0 9 C0 10.65 0 12.3 0 14 C-1.32 14 -2.64 14 -4 14 C-4 19.28 -4 24.56 -4 30 C-5.98 30 -7.96 30 -10 30 C-10 24.72 -10 19.44 -10 14 C-10.99 14 -11.98 14 -13 14 C-13 12.35 -13 10.7 -13 9 C-12.01 9 -11.02 9 -10 9 C-10.103125 8.2575 -10.20625 7.515 -10.3125 6.75 C-10 4 -10 4 -7.8125 1.6875 C-4.82698671 -0.10380798 -3.4027576 -0.38888658 0 0 Z " fill="#F9669D" transform="translate(616,112)"/>
<path d="M0 0 C1.98 0 3.96 0 6 0 C6 1.98 6 3.96 6 6 C7.65 6 9.3 6 11 6 C11 7.65 11 9.3 11 11 C9.35 11 7.7 11 6 11 C6.33 14.3 6.66 17.6 7 21 C8.32 21.33 9.64 21.66 11 22 C11 23.65 11 25.3 11 27 C5.04296875 27.390625 5.04296875 27.390625 3 27 C0.52910601 24.70559844 0.03444266 23.35452982 -0.29296875 19.984375 C-0.25816406 18.91703125 -0.22335937 17.8496875 -0.1875 16.75 C-0.16042969 15.67234375 -0.13335938 14.5946875 -0.10546875 13.484375 C-0.07066406 12.66453125 -0.03585937 11.8446875 0 11 C-0.99 11 -1.98 11 -3 11 C-3 9.35 -3 7.7 -3 6 C-2.01 6 -1.02 6 0 6 C0 4.02 0 2.04 0 0 Z " fill="#F9669D" transform="translate(520,115)"/>
<path d="M0 0 C1.98 0 3.96 0 6 0 C6 7.59 6 15.18 6 23 C8.97 23 11.94 23 15 23 C15 24.32 15 25.64 15 27 C10.05 27 5.1 27 0 27 C0 18.09 0 9.18 0 0 Z " fill="#F9669D" transform="translate(577,115)"/>
<path d="M0 0 C0 2.31 0 4.62 0 7 C-0.969375 7.12375 -1.93875 7.2475 -2.9375 7.375 C-4.4534375 7.684375 -4.4534375 7.684375 -6 8 C-7.35091528 10.70183055 -7.33858058 13.11808206 -7.5625 16.125 C-7.64628906 17.22070312 -7.73007812 18.31640625 -7.81640625 19.4453125 C-7.87699219 20.28835937 -7.93757812 21.13140625 -8 22 C-9.98 22 -11.96 22 -14 22 C-14 15.07 -14 8.14 -14 1 C-11.33333333 1 -8.66666667 1 -6 1 C-3 0 -3 0 0 0 Z " fill="#F9669D" transform="translate(892,120)"/>
<path d="M0 0 C1.98 0 3.96 0 6 0 C6 9.57 6 19.14 6 29 C4.02 29 2.04 29 0 29 C0 19.43 0 9.86 0 0 Z " fill="#F9669D" transform="translate(920,113)"/>
<path d="M0 0 C1.98 0 3.96 0 6 0 C6 9.57 6 19.14 6 29 C4.02 29 2.04 29 0 29 C0 19.43 0 9.86 0 0 Z " fill="#F9669D" transform="translate(428,113)"/>
<path d="M0 0 C1.98 0 3.96 0 6 0 C6 9.57 6 19.14 6 29 C4.02 29 2.04 29 0 29 C0 19.43 0 9.86 0 0 Z " fill="#F9669D" transform="translate(208,113)"/>
<path d="M0 0 C1.98 0 3.96 0 6 0 C6 9.57 6 19.14 6 29 C4.02 29 2.04 29 0 29 C0 19.43 0 9.86 0 0 Z " fill="#F9669D" transform="translate(198,113)"/>
<path d="M0 0 C1.98 0 3.96 0 6 0 C6 6.93 6 13.86 6 21 C4.02 21 2.04 21 0 21 C0 14.07 0 7.14 0 0 Z " fill="#F9669D" transform="translate(786,121)"/>
<path d="M0 0 C1.98 0 3.96 0 6 0 C6 6.93 6 13.86 6 21 C4.02 21 2.04 21 0 21 C0 14.07 0 7.14 0 0 Z " fill="#F9669D" transform="translate(594,121)"/>
<path d="M0 0 C1.98 0 3.96 0 6 0 C6 6.93 6 13.86 6 21 C4.02 21 2.04 21 0 21 C0 14.07 0 7.14 0 0 Z " fill="#F9669D" transform="translate(488,121)"/>
<path d="M0 0 C1.98 0 3.96 0 6 0 C6 6.93 6 13.86 6 21 C4.02 21 2.04 21 0 21 C0 14.07 0 7.14 0 0 Z " fill="#F9669D" transform="translate(218,121)"/>
<path d="M0 0 C1.98 0 3.96 0 6 0 C6.38218767 1.65614657 6.71395102 3.32457024 7 5 C6 6 6 6 3.4375 6.0625 C2.2309375 6.0315625 2.2309375 6.0315625 1 6 C-0.0625 4.125 -0.0625 4.125 -1 2 C-0.67 1.34 -0.34 0.68 0 0 Z " fill="#F9669D" transform="translate(786,112)"/>
<path d="M0 0 C1.98 0 3.96 0 6 0 C6.38218767 1.65614657 6.71395102 3.32457024 7 5 C6 6 6 6 3.4375 6.0625 C2.2309375 6.0315625 2.2309375 6.0315625 1 6 C-0.0625 4.125 -0.0625 4.125 -1 2 C-0.67 1.34 -0.34 0.68 0 0 Z " fill="#F9669D" transform="translate(594,112)"/>
<path d="M0 0 C1.98 0 3.96 0 6 0 C6.38218767 1.65614657 6.71395102 3.32457024 7 5 C6 6 6 6 3.4375 6.0625 C2.2309375 6.0315625 2.2309375 6.0315625 1 6 C-0.0625 4.125 -0.0625 4.125 -1 2 C-0.67 1.34 -0.34 0.68 0 0 Z " fill="#F9669D" transform="translate(488,112)"/>
<path d="M0 0 C1.98 0 3.96 0 6 0 C6.38218767 1.65614657 6.71395102 3.32457024 7 5 C6 6 6 6 3.4375 6.0625 C2.2309375 6.0315625 2.2309375 6.0315625 1 6 C-0.0625 4.125 -0.0625 4.125 -1 2 C-0.67 1.34 -0.34 0.68 0 0 Z " fill="#F9669D" transform="translate(218,112)"/>
</svg>
