<?xml version="1.0" encoding="UTF-8"?>
<svg version="1.1" xmlns="http://www.w3.org/2000/svg" width="697" height="151">
<path d="M0 0 C1 1 1 1 1.0625 4.0625 C-0.72675949 14.90850507 -17.31157334 23.73276622 -25.5 30.0625 C-26.30896729 30.68801758 -26.30896729 30.68801758 -27.13427734 31.32617188 C-31.65562094 34.79348488 -36.31792909 38.03769854 -41.05078125 41.2109375 C-42.01564453 42.09652344 -42.01564453 42.09652344 -43 43 C-43 44.32 -43 45.64 -43 47 C-28.46478179 48.47648943 -15.19382954 40.01317428 -3 33 C-2.01 32.01 -2.01 32.01 -1 31 C0.32 31 1.64 31 3 31 C1.68028835 34.95913494 -0.2577599 37.89417743 -2.78125 41.15625 C-4.2201056 43.33298027 -5.09700424 45.55856701 -6 48 C1.81787069 44.69613327 8.47425806 40.00092919 15.28491211 35.01464844 C16.35044312 34.23976074 16.35044312 34.23976074 17.4375 33.44921875 C18.07558594 32.97830811 18.71367187 32.50739746 19.37109375 32.0222168 C21 31 21 31 23 31 C22.64125561 35.90284001 21.15384827 38.57692046 18.15625 42.2890625 C16.87993554 44.17766294 16.42737157 45.77572523 16 48 C24.1897807 43.74485079 32.17891012 39.44219434 39.828125 34.25 C42 33 42 33 45 33 C42.71043112 38.85401133 37.00592533 41.6128739 32 45 C31.13117188 45.59941406 30.26234375 46.19882813 29.3671875 46.81640625 C23.83246519 50.41657829 19.6465873 52 13 52 C10.8614515 49.8614515 10.57344937 48.86724686 10 46 C9.35933594 46.42152344 8.71867188 46.84304687 8.05859375 47.27734375 C-0.97647059 53 -0.97647059 53 -7 53 C-7.99 52.34 -8.98 51.68 -10 51 C-10.4375 44.875 -10.4375 44.875 -9 42 C-9.55985596 42.2673999 -10.11971191 42.5347998 -10.6965332 42.81030273 C-13.2343327 44.02117233 -15.77339804 45.22936412 -18.3125 46.4375 C-19.19357422 46.85837891 -20.07464844 47.27925781 -20.98242188 47.71289062 C-21.82998047 48.11572266 -22.67753906 48.51855469 -23.55078125 48.93359375 C-24.33106689 49.30540771 -25.11135254 49.67722168 -25.9152832 50.06030273 C-30.0037565 51.90320398 -33.41305477 52.25236726 -37.875 52.375 C-39.08929688 52.42398438 -40.30359375 52.47296875 -41.5546875 52.5234375 C-45.8642973 51.86868953 -47.26746225 50.29359113 -50 47 C-50.89460937 47.433125 -51.78921875 47.86625 -52.7109375 48.3125 C-66.70259197 54.84944133 -66.70259197 54.84944133 -74 53 C-75.61254883 51.76147461 -75.61254883 51.76147461 -77 50 C-77.29296875 47.73828125 -77.29296875 47.73828125 -77.1875 45.3125 C-77.14689453 44.10013672 -77.14689453 44.10013672 -77.10546875 42.86328125 C-77.07066406 42.24839844 -77.03585938 41.63351563 -77 41 C-77.6705542 41.32798584 -78.3411084 41.65597168 -79.03198242 41.99389648 C-82.08094803 43.48107461 -85.13414306 44.9593602 -88.1875 46.4375 C-89.24259766 46.95376953 -90.29769531 47.47003906 -91.38476562 48.00195312 C-92.40634766 48.49501953 -93.42792969 48.98808594 -94.48046875 49.49609375 C-95.41785889 49.95169678 -96.35524902 50.4072998 -97.32104492 50.87670898 C-99.94922525 51.97871005 -102.16183271 52.73526214 -105 53 C-106.485 52.01 -106.485 52.01 -108 51 C-106.67648663 46.3677032 -104.7237296 42.95272954 -102 39 C-111.11763005 41.91705527 -119.50406764 45.55718948 -127.95654297 50.05249023 C-128.68502441 50.43348877 -129.41350586 50.8144873 -130.1640625 51.20703125 C-130.80811035 51.5522583 -131.4521582 51.89748535 -132.11572266 52.25317383 C-134 53 -134 53 -138 53 C-137.48967606 49.22360282 -136.79233071 47.55277419 -134 45 C-134.59425781 45.20157715 -135.18851563 45.4031543 -135.80078125 45.61083984 C-138.53276322 46.53548615 -141.26635909 47.45527035 -144 48.375 C-144.93457031 48.69210938 -145.86914062 49.00921875 -146.83203125 49.3359375 C-161.60512395 54.29473785 -161.60512395 54.29473785 -167.8125 54.25 C-168.54082031 54.25515625 -169.26914063 54.2603125 -170.01953125 54.265625 C-172 54 -172 54 -175 52 C-175 51.34 -175 50.68 -175 50 C-175.83144531 50.5053125 -176.66289062 51.010625 -177.51953125 51.53125 C-179.14955078 52.50578125 -179.14955078 52.50578125 -180.8125 53.5 C-182.43091797 54.47453125 -182.43091797 54.47453125 -184.08203125 55.46875 C-187 57 -187 57 -190 57 C-188.52453959 47.06816946 -171.69417 38.4184408 -164.1953125 32.859375 C-163.3280957 32.21677734 -162.46087891 31.57417969 -161.56738281 30.91210938 C-157.62344754 27.97478519 -153.71624237 24.99041727 -149.8125 22 C-149.1122168 21.46648926 -148.41193359 20.93297852 -147.69042969 20.38330078 C-143.2887774 17.02213545 -138.97007728 13.57884912 -134.76171875 9.9765625 C-133 9 -133 9 -130.88989258 9.43896484 C-130.26622803 9.62410645 -129.64256348 9.80924805 -129 10 C-133.70426526 16.00065519 -138.9602524 20.24116458 -145.125 24.6875 C-146.90059098 25.98011998 -148.67410539 27.27559829 -150.4453125 28.57421875 C-151.22406738 29.13713623 -152.00282227 29.70005371 -152.80517578 30.2800293 C-155.05388509 32.04222697 -157.02258662 33.9412498 -159 36 C-157.69675781 35.45859375 -157.69675781 35.45859375 -156.3671875 34.90625 C-155.21476562 34.4421875 -154.06234375 33.978125 -152.875 33.5 C-151.73804688 33.0359375 -150.60109375 32.571875 -149.4296875 32.09375 C-146.0528355 31.01684959 -143.51385272 30.78639193 -140 31 C-139.505 32.485 -139.505 32.485 -139 34 C-146.03278613 41.69625652 -157.12032212 45.37160369 -167 48 C-167.99 48 -168.98 48 -170 48 C-170 48.66 -170 49.32 -170 50 C-157.54004206 48.28630951 -146.31578871 44.56735526 -134.62744141 40.01123047 C-132.24645946 39.09485552 -129.85444221 38.22903293 -127.44921875 37.37890625 C-116.77874753 33.48158767 -108.28612213 27.63836849 -99.30566406 20.75683594 C-95.3942779 17.77649553 -91.41657331 14.88895612 -87.4375 12 C-86.72408447 11.4726123 -86.01066895 10.94522461 -85.27563477 10.40185547 C-72.39355937 1 -72.39355937 1 -67 1 C-68.39099567 4.29047014 -69.87044858 5.94865752 -72.75390625 8.03125 C-73.8999231 8.8675293 -73.8999231 8.8675293 -75.0690918 9.72070312 C-75.8919165 10.30787109 -76.71474121 10.89503906 -77.5625 11.5 C-78.83057495 12.41942383 -78.83057495 12.41942383 -80.12426758 13.35742188 C-86.44943876 17.93009062 -92.81613414 22.44714967 -99.21508789 26.91601562 C-103.88508504 30.18075173 -108.46036085 33.55639486 -113 37 C-112.0862561 36.65449097 -112.0862561 36.65449097 -111.15405273 36.30200195 C-105.86050169 34.33109464 -101.6327713 33.69275793 -96 34 C-95.31640625 35.703125 -95.31640625 35.703125 -95 38 C-96.21484375 40.359375 -96.21484375 40.359375 -97.9375 42.75 C-98.50339844 43.54921875 -99.06929688 44.3484375 -99.65234375 45.171875 C-100.09707031 45.77515625 -100.54179687 46.3784375 -101 47 C-82.47452082 39.94943204 -82.47452082 39.94943204 -66.6875 28.6875 C-63.69435684 25.69435684 -62.15583909 25.1978971 -58 25 C-58 26.32 -58 27.64 -58 29 C-59.38202922 29.94382483 -60.77258502 30.87755162 -62.203125 31.74609375 C-66.18599925 34.5254473 -70.15984119 38.37573925 -71.6640625 43.07421875 C-72.00105183 45.17102976 -72.00105183 45.17102976 -72 48 C-63.31925413 47.85033197 -56.08280319 44.8479381 -49 40 C-46.89706893 37.46030632 -45.40346102 34.9272504 -43.828125 32.03515625 C-35.378159 18.00604604 -17.03172076 -0.63080447 0 0 Z M-30 22 C-33.78750939 25.76089647 -33.78750939 25.76089647 -37 30 C-37 30.99 -37 31.98 -37 33 C-19.24965025 19.81610167 -19.24965025 19.81610167 -4 4 C-12.62883622 4 -23.81650601 16.23873162 -30 22 Z " fill="#031B4E" transform="translate(288,42)"/>
<path d="M0 0 C-1.39099567 3.29047014 -2.87044858 4.94865752 -5.75390625 7.03125 C-6.51791748 7.58876953 -7.28192871 8.14628906 -8.0690918 8.72070312 C-8.8919165 9.30787109 -9.71474121 9.89503906 -10.5625 10.5 C-11.83057495 11.41942383 -11.83057495 11.41942383 -13.12426758 12.35742188 C-19.44943876 16.93009062 -25.81613414 21.44714967 -32.21508789 25.91601562 C-36.88508504 29.18075173 -41.46036085 32.55639486 -46 36 C-45.3908374 35.76966064 -44.7816748 35.53932129 -44.15405273 35.30200195 C-38.86050169 33.33109464 -34.6327713 32.69275793 -29 33 C-28.31640625 34.703125 -28.31640625 34.703125 -28 37 C-29.21484375 39.359375 -29.21484375 39.359375 -30.9375 41.75 C-31.50339844 42.54921875 -32.06929688 43.3484375 -32.65234375 44.171875 C-33.09707031 44.77515625 -33.54179687 45.3784375 -34 46 C-31.91663498 45.06987414 -29.83394628 44.1382719 -27.75195312 43.20507812 C-25.94294293 42.39450493 -24.13302942 41.58594504 -22.32226562 40.77929688 C-17.94094582 38.81737441 -13.59216701 36.82430774 -9.30859375 34.65625 C5.99140878 26.95506675 5.99140878 26.95506675 15 28 C17 30 17 30 17.125 32.625 C17.08375 33.40875 17.0425 34.1925 17 35 C23.20412907 34.56750062 29.3160452 33.69763953 35.4375 32.625 C36.13552734 32.51115967 36.83355469 32.39731934 37.55273438 32.2800293 C41.39512953 31.5789886 43.38929717 30.85820065 46 28 C47.32 28 48.64 28 50 28 C48.125 32.75 48.125 32.75 47 35 C48.03060547 34.74863281 48.03060547 34.74863281 49.08203125 34.4921875 C49.98308594 34.28851563 50.88414062 34.08484375 51.8125 33.875 C52.70582031 33.66617188 53.59914063 33.45734375 54.51953125 33.2421875 C57 33 57 33 60 35 C59.125 40.75 59.125 40.75 58 43 C58.87213135 42.69707031 59.7442627 42.39414063 60.64282227 42.08203125 C63.9033303 40.95525237 67.16685949 39.83824414 70.43286133 38.72753906 C71.8414029 38.24634522 73.24866124 37.761377 74.65454102 37.27246094 C76.68434121 36.56731943 78.71848368 35.87621851 80.75390625 35.1875 C81.97408447 34.76855469 83.1942627 34.34960938 84.45141602 33.91796875 C88.15728989 32.95931132 91.18977977 32.6856341 95 33 C95.66 33.66 96.32 34.32 97 35 C96.6510457 38.7687064 95.94242204 42.34308028 95 46 C96.11375 45.29875 97.2275 44.5975 98.375 43.875 C99.10847656 43.41996094 99.84195313 42.96492188 100.59765625 42.49609375 C102.19643373 41.50043233 103.78769858 40.49260273 105.37109375 39.47265625 C114.58914314 33.67634679 123.8650188 29.38241827 135 31 C135.99 31.66 136.98 32.32 138 33 C137.67 34.32 137.34 35.64 137 37 C135.72125 36.773125 134.4425 36.54625 133.125 36.3125 C125.12521252 35.43063366 118.28547105 38.20319315 112 43 C115.33509638 41.94253042 118.44727386 40.79178631 121.625 39.3125 C125 38 125 38 127.4375 38.3125 C127.953125 38.539375 128.46875 38.76625 129 39 C128.34 41.31 127.68 43.62 127 46 C135.61833088 43.24792795 143.81529488 39.8498613 152 36 C152.89549561 35.58508301 153.79099121 35.17016602 154.71362305 34.74267578 C158.62639572 32.87174925 162.13774857 31.07266375 165.4140625 28.20703125 C168 26 168 26 171.375 25.6875 C172.24125 25.790625 173.1075 25.89375 174 26 C174.625 28.375 174.625 28.375 175 31 C174.34 31.66 173.68 32.32 173 33 C172.01 33 171.02 33 170 33 C170 32.34 170 31.68 170 31 C169.01 31.99 168.02 32.98 167 34 C169.05287137 36.38576943 170.20464429 37.71066927 173 39 C176.87758619 38.68320374 180.35601751 37.30998864 184 36 C186.30901286 35.25986495 188.62157012 34.53069848 190.9375 33.8125 C191.99839844 33.46832031 193.05929687 33.12414062 194.15234375 32.76953125 C197 32 197 32 201 32 C200.82543945 33.8684082 200.82543945 33.8684082 200 36 C197.74682617 37.17260742 197.74682617 37.17260742 194.79296875 38.10546875 C193.73142578 38.44900391 192.66988281 38.79253906 191.57617188 39.14648438 C190.45791016 39.49001953 189.33964844 39.83355469 188.1875 40.1875 C187.08083984 40.54263672 185.97417969 40.89777344 184.83398438 41.26367188 C176.69398051 43.85882132 176.69398051 43.85882132 173.71020508 44.46582031 C173.1458374 44.64209961 172.58146973 44.81837891 172 45 C171.29116884 46.64917573 170.63107169 48.31953258 170 50 C163.54168325 57.83691898 155.36050366 65.58514826 144.9375 66.9375 C143.638125 66.958125 142.33875 66.97875 141 67 C140.67 66.67 140.34 66.34 140 66 C140 61.52006714 140.6419958 58.89951342 143.6875 55.5625 C150.16150937 49.61341031 158.81037866 45.0440668 167 42 C165.75453595 38.26360784 164.36595047 37.81243487 161 36 C160.01902344 36.58007812 159.03804687 37.16015625 158.02734375 37.7578125 C133.5947442 51.98728527 133.5947442 51.98728527 124 51 C123.34 50.34 122.68 49.68 122 49 C122 47.68 122 46.36 122 45 C120.92621094 45.5053125 119.85242188 46.010625 118.74609375 46.53125 C117.3102112 47.18818973 115.87399532 47.84440125 114.4375 48.5 C113.73302734 48.83386719 113.02855469 49.16773438 112.30273438 49.51171875 C106.32928104 52.20940735 100.97308716 53.08325845 94.625 50.8125 C91.18838583 49.38723753 91.18838583 49.38723753 89.875 46.6875 C90.02238256 43.51877489 90.9554347 40.9815348 92 38 C81.49026689 41.07024125 71.06699785 44.16852331 60.84765625 48.1171875 C58.0494091 48.9846825 55.90658996 49.18199642 53 49 C51.82407324 44.88425634 52.29817397 42.86483393 54 39 C45.72726544 41.93810704 38.29032643 45.28097421 30.6796875 49.64453125 C28 51 28 51 25 51 C25.15404113 45.91664275 28.02068432 43.64245282 31.50390625 40.35546875 C31.99761719 39.90816406 32.49132812 39.46085937 33 39 C20.52611305 39 9.23970045 41.19499524 -1.65722656 47.2890625 C-6.80580267 50.11531349 -10.22827292 50.82453244 -16 50 C-16.66 48.02 -17.32 46.04 -18 44 C-19.02480469 44.49371094 -20.04960937 44.98742187 -21.10546875 45.49609375 C-22.4660065 46.14352206 -23.82669139 46.79064121 -25.1875 47.4375 C-25.86103516 47.76298828 -26.53457031 48.08847656 -27.22851562 48.42382812 C-34.23524849 51.73920904 -34.23524849 51.73920904 -38 52 C-38.99 51.34 -39.98 50.68 -41 50 C-39.67648663 45.3677032 -37.7237296 41.95272954 -35 38 C-44.11763005 40.91705527 -52.50406764 44.55718948 -60.95654297 49.05249023 C-61.68502441 49.43348877 -62.41350586 49.8144873 -63.1640625 50.20703125 C-63.80811035 50.5522583 -64.4521582 50.89748535 -65.11572266 51.25317383 C-67 52 -67 52 -71 52 C-70.66232013 49.15397023 -70.43904148 47.45983783 -68.42797852 45.35351562 C-67.75178467 44.87591797 -67.07559082 44.39832031 -66.37890625 43.90625 C-65.61755371 43.35759277 -64.85620117 42.80893555 -64.07177734 42.24365234 C-63.24371582 41.66824707 -62.4156543 41.0928418 -61.5625 40.5 C-60.70865723 39.88979004 -59.85481445 39.27958008 -58.97509766 38.65087891 C-57.19617995 37.38050426 -55.41323366 36.1157535 -53.62646484 34.85644531 C-50.42634963 32.59453082 -47.25783063 30.29110091 -44.08959961 27.98486328 C-35.40074661 21.66865815 -26.62985316 15.46831561 -17.83886719 9.29541016 C-16.16136275 8.11367376 -14.49047331 6.92256141 -12.8203125 5.73046875 C-11.93085938 5.09753906 -11.04140625 4.46460938 -10.125 3.8125 C-9.01511719 3.01779297 -9.01511719 3.01779297 -7.8828125 2.20703125 C-5.17488188 0.47103424 -3.21515724 0 0 0 Z M8.3125 33.5 C7.879375 33.995 7.44625 34.49 7 35 C9.47266765 34.65555119 9.47266765 34.65555119 12 34 C12.33 33.34 12.66 32.68 13 32 C9.99740483 31.66781808 9.99740483 31.66781808 8.3125 33.5 Z M-4.4375 38.3125 C-5.03626953 38.71662109 -5.63503906 39.12074219 -6.25195312 39.53710938 C-9.14277255 41.52798725 -11.03077314 43.04615971 -13 46 C-6.3895667 44.65343025 -0.93169624 42.18464019 5 39 C4.34 37.35 3.68 35.7 3 34 C0.50435133 34 -2.36816302 36.88498946 -4.4375 38.3125 Z M145 61 C147.96028277 62.37231348 147.96028277 62.37231348 150.48828125 60.8125 C156.32824282 57.06458552 160.81151629 53.54691086 165 48 C157.79778947 48 149.94395725 56.33224148 145 61 Z " fill="#031B4E" transform="translate(464,43)"/>
<path d="M0 0 C-0.57803491 7.77030531 -3.78633277 10.66283292 -9.43310547 15.65869141 C-13.89319977 19.47666555 -18.53358262 23.05995635 -23.19873047 26.62207031 C-26.08650013 28.83114757 -28.9514037 31.06903329 -31.8125 33.3125 C-32.37686768 33.75480957 -32.94123535 34.19711914 -33.52270508 34.65283203 C-40.46520366 40.11892421 -47.29871612 45.72532101 -54.07250977 51.39892578 C-55.33250783 52.44554608 -56.60611594 53.47604982 -57.89428711 54.48779297 C-62.27298714 58.01028973 -64.93742507 61.63283227 -67.6875 66.5 C-73.85903894 76.85171514 -83.02812506 91.66984027 -95.09375 95.69921875 C-97 96 -97 96 -99 95 C-99.56610144 91.84600628 -99.4330635 89.71496332 -97.7578125 86.94921875 C-95.91396512 84.55731535 -93.99011579 82.27180497 -92 80 C-91.278125 79.16855469 -90.55625 78.33710937 -89.8125 77.48046875 C-78.41351165 64.59723712 -78.41351165 64.59723712 -72.125 59.8125 C-68.58509989 56.79317343 -68.12726202 54.01809613 -67.5625 49.5 C-67.71828672 45.91758555 -67.71828672 45.91758555 -70 43.3125 C-75.09057221 39.3690484 -75.09057221 39.3690484 -81 37 C-84.51648588 38.19383465 -87.53639866 39.82259043 -90.66796875 41.80078125 C-91.55250732 42.35934814 -92.4370459 42.91791504 -93.34838867 43.4934082 C-94.28529541 44.0937085 -95.22220215 44.69400879 -96.1875 45.3125 C-97.15985596 45.93406982 -98.13221191 46.55563965 -99.1340332 47.19604492 C-113.09338119 56.19880457 -126.69647779 65.82015212 -139.11328125 76.8828125 C-143.73793605 81 -143.73793605 81 -147 81 C-146.50801582 76.80829478 -143.99929661 74.46159474 -141.125 71.625 C-140.59817627 71.10462158 -140.07135254 70.58424316 -139.52856445 70.0480957 C-125.47259775 56.59866042 -108.32053549 46.41361566 -92 36 C-101.56522096 36.68223556 -109.45227948 38.5722164 -118.18725586 42.52368164 C-122.14450067 44.30793056 -125.63209222 45.50256276 -130 46 C-128.95718001 42.72770278 -127.93246886 41.96030091 -124.91015625 40.18359375 C-123.63516033 39.5851912 -122.35200359 39.00396333 -121.0625 38.4375 C-120.38372803 38.13376465 -119.70495605 37.8300293 -119.00561523 37.51708984 C-109.26106716 33.25852333 -100.41170991 31.65798522 -89.796875 31.40625 C-85.67797017 30.96554413 -82.63745335 29.84298772 -79 28 C-77.62110596 27.30849854 -77.62110596 27.30849854 -76.21435547 26.60302734 C-74.02298142 25.49539226 -71.83424623 24.3825261 -69.64770508 23.26538086 C-52.77760568 14.64903698 -35.67053869 6.40110213 -17.5 0.875 C-16.52220581 0.57420532 -16.52220581 0.57420532 -15.5246582 0.26733398 C-10.6998637 -1.08875291 -4.65850074 -2.32925037 0 0 Z M-57.25 22.1875 C-58.29728271 22.68644775 -59.34456543 23.18539551 -60.42358398 23.69946289 C-66.1895781 26.49440645 -71.63748033 29.49127003 -77 33 C-75.515 33.99 -75.515 33.99 -74 35 C-72.63799651 35.96823614 -71.28427287 36.94818834 -69.9375 37.9375 C-69.24527344 38.44152344 -68.55304688 38.94554687 -67.83984375 39.46484375 C-63.46241559 43.11734751 -63.52233891 46.68955438 -63 52 C-58.06944279 48.42292908 -53.37222464 44.65302636 -48.75 40.6875 C-43.7295419 36.38951923 -38.56449649 32.38012623 -33.24609375 28.453125 C-26.6558372 23.52853769 -20.33702385 18.24345882 -14 13 C-12.63294922 11.87078125 -12.63294922 11.87078125 -11.23828125 10.71875 C-7.23329741 7.49579508 -7.23329741 7.49579508 -5 3 C-21.93988261 3 -42.41218544 15.1065827 -57.25 22.1875 Z " fill="#031B4E" transform="translate(164,27)"/>
<path d="M0 0 C0 0.66 0 1.32 0 2 C19.14 2.33 38.28 2.66 58 3 C58.33 3.99 58.66 4.98 59 6 C58.04731987 6.03425331 58.04731987 6.03425331 57.07539368 6.06919861 C50.40683393 6.30948662 43.73841722 6.55349117 37.07006836 6.79956055 C34.58833166 6.89066452 32.10656111 6.98085153 29.62475586 7.07006836 C26.03750252 7.19918928 22.4503878 7.33171412 18.86328125 7.46484375 C17.22496086 7.52272316 17.22496086 7.52272316 15.55354309 7.58177185 C10.01130527 7.79071174 4.4754927 8.06245166 -1.05883789 8.42651367 C-2.6263253 8.52871468 -2.6263253 8.52871468 -4.22547913 8.63298035 C-10.98390686 9.52699986 -15.51260815 14.0603715 -20.25 18.625 C-21.39568047 19.70198555 -22.54151603 20.77880615 -23.6875 21.85546875 C-24.79231998 22.90295719 -25.89652433 23.95109549 -27 25 C-35.21158068 32.79384039 -43.89385949 39.65265687 -52.93701172 46.44677734 C-60.5006626 52.14144562 -67.97296999 57.95143956 -75.35546875 63.87890625 C-83.30435504 70.25445315 -91.2726076 76.57014874 -99.5625 82.5 C-100.41956543 83.11367432 -100.41956543 83.11367432 -101.29394531 83.73974609 C-110.76862521 90.44840355 -110.76862521 90.44840355 -116 90 C-114.63741467 86.86066452 -113.1931018 85.04738048 -110.54296875 82.8984375 C-109.84937256 82.33116943 -109.15577637 81.76390137 -108.44116211 81.17944336 C-107.69745361 80.58397705 -106.95374512 79.98851074 -106.1875 79.375 C-105.41994385 78.75181885 -104.6523877 78.1286377 -103.86157227 77.48657227 C-98.41301832 73.08134637 -92.8813517 68.79628995 -87.3046875 64.5546875 C-82.79644235 61.09882298 -78.41518753 57.48617465 -74.01806641 53.89086914 C-69.65742077 50.33063493 -65.25497097 46.83239862 -60.8125 43.375 C-55.64641374 39.34856684 -50.61505623 35.18919532 -45.63671875 30.93334961 C-41.47400311 27.3791993 -37.22690279 23.94458305 -32.92578125 20.55859375 C-30.92554105 18.99540828 -30.92554105 18.99540828 -29 17 C-29.32041397 14.39719432 -29.32041397 14.39719432 -30 12 C-36.79324329 11.06036082 -43.16456941 11.03758836 -50 11.4375 C-57.22906065 11.79962363 -64.44879954 12.13059702 -71.6875 12.1875 C-72.37521484 12.20031006 -73.06292969 12.21312012 -73.77148438 12.22631836 C-77.36057984 12.23404564 -79.94663805 11.95569765 -83 10 C-82.375 8.109375 -82.375 8.109375 -81 6 C-64.97689019 -0.54602657 -43.99466223 2.67695938 -27.16625977 3.70507812 C-17.48856154 4.26120621 -8.68836167 -0.76662015 0 0 Z M-24 9 C-23.34 10.32 -22.68 11.64 -22 13 C-20.35 11.68 -18.7 10.36 -17 9 C-19.31 9 -21.62 9 -24 9 Z " fill="#031B4E" transform="translate(452,31)"/>
<path d="M0 0 C2.625 0.375 2.625 0.375 5 1 C4.67 2.65 4.34 4.3 4 6 C2.35 6 0.7 6 -1 6 C-1.625 4.125 -1.625 4.125 -2 2 C-1.34 1.34 -0.68 0.68 0 0 Z " fill="#031B4E" transform="translate(232,57)"/>
</svg>
